<svg id="レイヤー_1" data-name="レイヤー 1" xmlns="http://www.w3.org/2000/svg" viewBox="0 0 1466 708"><pattern id="diagonal-texture" patternUnits="userSpaceOnUse" width="6" height="6"><style>.diagonal-1{fill:#242424}</style><path d="M0 0h6v6H0z"/><path class="diagonal-1" d="M5 0h1v1H5zM4 1h1v1H4zM3 2h1v1H3zM2 3h1v1H2zM1 4h1v1H1zM0 5h1v1H0zM4.5.5H5V1h-.5zM5 1h.5v.5H5zM4 2h.5v.5H4zm-.5-.5H4V2h-.5zm-1 1H3V3h-.5zM3 3h.5v.5H3zM2 4h.5v.5H2zM1 5h.5v.5H1zM0 0h.5v.5H0z"/>/&gt;<path class="diagonal-1" d="M5.5 5.5H6V6h-.5zm-4-2H2V4h-.5zm-1 1H1V5H.5z"/></pattern><g fill="url(#diagonal-texture)"><path d="M73.07 635.16h11.1l3.81-26h13.12v-11H89.56l2.66-18h12.94v-11H93.81l3.87-26.39h-11.1l-3.87 26.43h-8.5l3.87-26.39H67l-3.82 26.39H49.67v11h11.92l-2.66 18h-13.2v11h11.61l-3.81 26h11.1l3.74-26h8.5zm-.44-54.93h8.5l-2.66 18H70zm90.16-37.42h-55.88v14.91h37l-29.3 77.44h19l29.18-82zm15.84 52.46h8.69a10 10 0 0 1 7.9 3.2Q198 601.67 198 609a17.89 17.89 0 0 1-.7 5.17 11.86 11.86 0 0 1-2 4 8.86 8.86 0 0 1-3.14 2.54 9.51 9.51 0 0 1-4.19.89 7.81 7.81 0 0 1-3.71-.89 8.84 8.84 0 0 1-2.89-2.44 12.08 12.08 0 0 1-1.9-3.68 14.85 14.85 0 0 1-.7-4.66h-17.9a28.18 28.18 0 0 0 2.28 11.83 24.62 24.62 0 0 0 6 8.28 24 24 0 0 0 8.5 4.88 31.19 31.19 0 0 0 9.86 1.59 34 34 0 0 0 11.23-1.81 25.83 25.83 0 0 0 9-5.26 24.39 24.39 0 0 0 6-8.53 28.89 28.89 0 0 0 2.19-11.54 26.07 26.07 0 0 0-3.2-13.19 19.76 19.76 0 0 0-9.74-8.37 21.16 21.16 0 0 0 5-3.71 24.07 24.07 0 0 0 3.71-4.76 22.24 22.24 0 0 0 3.11-11.39 30.08 30.08 0 0 0-2-11.38 22.79 22.79 0 0 0-5.58-8.25 23.36 23.36 0 0 0-8.59-5 34.55 34.55 0 0 0-11-1.68 28.25 28.25 0 0 0-10.18 1.81 24.87 24.87 0 0 0-8.21 5.07 23.63 23.63 0 0 0-5.52 7.93 25.7 25.7 0 0 0-2 10.37h17.95a12.46 12.46 0 0 1 .7-4.31 10.43 10.43 0 0 1 1.84-3.23 7.64 7.64 0 0 1 2.7-2 8.31 8.31 0 0 1 7.07.19 8 8 0 0 1 2.76 2.44 10.88 10.88 0 0 1 1.65 3.68 19 19 0 0 1 .54 4.66q0 5.77-2.32 9.23t-7.26 3.46h-8.69zM35.61 8v267.28h82.2c53.62 0 83.5-27.87 83.5-76.55 0-27.49-13.73-48.3-34.33-59.37 18.18-11.08 30-29.6 30-55.56C197 35.88 165.31 8 113.72 8zm81.09 156.74c16.7 0 28.76 9.16 28.76 30.74 0 21.38-12.25 30.55-28.76 30.55H90v-61.29zm-3.35-107.48c15.77 0 27.65 9 27.65 29.59 0 20.43-11.88 29.4-27.83 29.4H90v-59zM328.82 8H266.1l-69.21 267.28h55.85l12.25-55h64.2l12.43 55H398zm-31.73 69.3l20.78 92.21h-41.38zM583.25 8h-53.63v156.36L456.33 8h-53.25v267.28h53.44V119.5L530 275.28h53.25zm135.12 0H664v182.9c0 23.86-9.46 33.6-24.86 33.6a34.59 34.59 0 0 1-24.49-10.31L590 257.72c11.5 12.41 31.54 21.57 55.48 21.57 43.6 0 72.92-28.25 72.92-83zm108.76-4c-59.93 0-95.56 49.45-95.56 137.64s35.63 137.64 95.56 137.64c59.75 0 95.56-49.45 95.56-137.64S886.88 4 827.13 4zm-.19 54.6c24.86 0 39.34 26.35 39.34 83s-14.47 83-39.34 83-39.34-26.35-39.34-83 14.48-83 39.34-83z"/><path d="M226.54 542.09l-47.13-63.57 32.47-58.61-38.22-22.34-24.12 40.66L136 419.91c-2.6-3.44-4.82-6.87-7.24-9.93 19.67-20.43 37.85-43.53 37.85-73.5 0-37-24.49-65.67-62.9-65.67-40.82 0-65.68 29-65.68 69.49 0 24.63 8.54 41.43 26.53 66.44C45.07 427.16 28 451.22 28 481.38c0 39.33 24.31 64.72 66.24 64.72 24.31 0 42.12-10.31 56.22-25.2l16 21.19zM98.88 496.46c-10.58 0-17.81-7.06-17.81-19.47 0-10.69 5.38-20.81 13.36-30.93l14.84 19.85 12.43 16.8c-7.05 8.6-14.47 13.75-22.82 13.75zM87 338.77c0-13.36 7.05-20 16.14-20s15 8 15 19.28c0 10.69-7.24 21.19-17.44 32.45C90.34 355 87 347.36 87 338.77zm293.41 203.32h64.39l-73.67-136.88 68.65-130.39h-62.71l-52 107.1H313v-107.1h-54.31v267.27h54.37v-109.2h11.32z"/><path d="M557.65 274.82h-62.72l-69.21 267.27h55.85l12.25-55H558l12.43 55h56.41zm-31.73 69.3l20.78 92.21h-41.38z"/><path d="M779.61 274.82H626.9v50.78h88.32l-88.88 173v43.53h153.45v-50.82h-89.06l88.88-173zm99.86-4.01c-59.93 0-95.56 49.45-95.56 137.64s35.63 137.65 95.56 137.65c59.75 0 95.56-49.45 95.56-137.64s-35.81-137.65-95.56-137.65zm-.19 54.6c24.86 0 39.34 26.35 39.34 83s-14.47 83-39.34 83S840 465.15 840 408.45s14.43-83 39.29-83zm200.07-54.6c-59.93 0-95.56 49.45-95.56 137.64s35.63 137.64 95.56 137.64c59.75 0 95.56-49.45 95.56-137.64s-35.81-137.64-95.56-137.64zm-.19 54.6c24.86 0 39.34 26.35 39.34 83s-14.47 83-39.34 83-39.34-26.35-39.34-83 14.49-83 39.35-83zm163.89-50.59h-54.37v267.27h54.37zm158.66 216.49h-85.35v-58.8h80.16v-50.78h-80.16V325.6h86.09v-50.78H1262v267.27h139.72z"/></g></svg>