<svg xmlns="http://www.w3.org/2000/svg" width="1466" height="361" viewBox="0 0 1466 361"><pattern id="diagonal-texture" patternUnits="userSpaceOnUse" width="6" height="6"><style>.diagonal-1{fill:#242424}</style><path d="M0 0h6v6H0z"/><path class="diagonal-1" d="M5 0h1v1H5zM4 1h1v1H4zM3 2h1v1H3zM2 3h1v1H2zM1 4h1v1H1zM0 5h1v1H0zM4.5.5H5V1h-.5zM5 1h.5v.5H5zM4 2h.5v.5H4zm-.5-.5H4V2h-.5zm-1 1H3V3h-.5zM3 3h.5v.5H3zM2 4h.5v.5H2zM1 5h.5v.5H1zM0 0h.5v.5H0z"/>/&gt;<path class="diagonal-1" d="M5.5 5.5H6V6h-.5zm-4-2H2V4h-.5zm-1 1H1V5H.5z"/></pattern><g fill="url(#diagonal-texture)"><path class="a" d="M72.733 350.673h10.492l3.6-24.582h12.408V315.72H88.321l2.518-16.967h12.231V288.32H92.338L96 263.379H85.5l-3.654 24.941h-8.034l3.657-24.941H67.037L63.38 288.32H50.61v10.432h11.271l-2.518 16.968H46.892v10.372h10.972l-3.6 24.582h10.495l3.541-24.582h8.03zm-.42-51.921h8.034l-2.518 16.968H69.8zm52.206 12.471a21.277 21.277 0 0 1 1.319-1.769 7.892 7.892 0 0 1 1.709-1.529 9.048 9.048 0 0 1 2.338-1.079 10.644 10.644 0 0 1 3.148-.42 9.246 9.246 0 0 1 4.646 1.109 9.38 9.38 0 0 1 3.238 3.088 14.1 14.1 0 0 1 1.888 4.8 30.062 30.062 0 0 1 .6 6.235 42.071 42.071 0 0 1-.45 6.355 17.807 17.807 0 0 1-1.5 5.1 9.209 9.209 0 0 1-2.728 3.417 6.6 6.6 0 0 1-4.077 1.259 7.059 7.059 0 0 1-5.876-3q-2.279-3-2.7-8.454H109.29a26.385 26.385 0 0 0 2.218 10.792 24.463 24.463 0 0 0 13.85 13.04 26.594 26.594 0 0 0 9.413 1.709 24.925 24.925 0 0 0 11.271-2.4 23.289 23.289 0 0 0 7.974-6.415 27.258 27.258 0 0 0 4.736-9.293 38.951 38.951 0 0 0 1.559-11.092 47.858 47.858 0 0 0-1.469-12.411 26.716 26.716 0 0 0-4.317-9.233 18.707 18.707 0 0 0-7.045-5.756 22.394 22.394 0 0 0-9.653-1.978 15.218 15.218 0 0 0-3.208.33 19.124 19.124 0 0 0-2.848.839 18.448 18.448 0 0 0-2.338 1.079q-1.02.57-1.739 1.049l1.559-18.706h28.359v-14.51h-42.266l-4.317 44.367zm90.881-35.134a21.269 21.269 0 0 0-4.856-7.644 20.427 20.427 0 0 0-7.464-4.677 29.393 29.393 0 0 0-19.066 0 20.705 20.705 0 0 0-7.494 4.677 21.044 21.044 0 0 0-4.886 7.644 29.3 29.3 0 0 0-1.739 10.492 23.043 23.043 0 0 0 2.7 11.272 20.782 20.782 0 0 0 7.494 7.854 21.907 21.907 0 0 0-8.573 8.394 24.841 24.841 0 0 0-3.118 12.65 28.593 28.593 0 0 0 1.919 10.912 21.552 21.552 0 0 0 13.31 12.62 32.249 32.249 0 0 0 19.995 0 21.456 21.456 0 0 0 7.914-4.766 22.157 22.157 0 0 0 5.216-7.854 29.011 29.011 0 0 0 1.889-10.912 24.687 24.687 0 0 0-3.118-12.62 22.525 22.525 0 0 0-8.523-8.424 20.94 20.94 0 0 0 7.434-7.854 23.042 23.042 0 0 0 2.7-11.272 29.318 29.318 0 0 0-1.734-10.492zm-15.858 58.426a6.594 6.594 0 0 1-5.906 3.268 6.928 6.928 0 0 1-6.085-3.268q-2.189-3.267-2.188-9.083t2.188-9.113a6.813 6.813 0 0 1 5.965-3.3 6.742 6.742 0 0 1 5.935 3.3q2.158 3.3 2.158 9.113t-2.071 9.083zm-.929-38.731a5.277 5.277 0 0 1-4.976 3.148 5.4 5.4 0 0 1-5.036-3.148 17.652 17.652 0 0 1-1.679-8.3 16.855 16.855 0 0 1 1.679-8.244 5.344 5.344 0 0 1 4.916-2.968 5.4 5.4 0 0 1 5.066 3.058 17.22 17.22 0 0 1 1.649 8.154 18.212 18.212 0 0 1-1.624 8.301zM1280.293 6.26h-52.212V181.9c0 22.918-9.088 32.269-23.879 32.269a33.221 33.221 0 0 1-23.522-9.9l-23.7 41.8c11.048 11.917 30.294 20.718 53.281 20.718 41.877 0 70.032-27.135 70.032-79.755zm96.077 72.054c-16.038 0-27.264 7.334-34.392 23.285V82.165H1296v180.777h48.47V157.7c0-18.151 8.732-26.952 22.809-26.952a64.556 64.556 0 0 1 18.533 2.934l3.742-53.17a37.458 37.458 0 0 0-13.184-2.198zm17.835 124.675c-17.285 0-31.185 14.3-31.185 31.9 0 17.785 13.9 31.9 31.185 31.9s30.828-14.118 30.828-31.9c.001-17.599-13.543-31.9-30.828-31.9z"/><path class="a" d="M44.584 7.69v256.682h78.942c51.5 0 80.189-26.768 80.189-73.521 0-26.4-13.187-46.386-32.967-57.02 17.463-10.634 28.868-28.418 28.868-53.353 0-46.019-30.472-72.788-80.011-72.788zm77.873 150.526c16.038 0 27.621 8.8 27.621 29.518 0 20.535-11.761 29.335-27.621 29.335H96.8v-58.853zm-3.208-103.223c15.147 0 26.552 8.617 26.552 28.418 0 19.618-11.4 28.235-26.73 28.235H96.8V54.993zM303.01 3.84c-57.558 0-91.772 47.486-91.772 132.192s34.214 132.191 91.772 132.191c57.38 0 91.772-47.486 91.772-132.191S360.39 3.84 303.01 3.84zm-.178 52.437c23.879 0 37.778 25.3 37.778 79.755s-13.9 79.755-37.778 79.755-37.778-25.3-37.778-79.755 13.9-79.756 37.778-79.756zM676.2 7.69h-53.461l-30.828 174.177L559.479 7.69h-54.172L472.7 182.6 442.046 7.69h-54.172l52.034 256.682h62.013l30.115-153.643 30.116 153.643h62.013zm155.986 28.052c-22.1-22-45.8-31.719-74.487-31.719-47.757 0-78.942 31.719-78.942 76.088 0 33.552 16.572 63.8 60.766 79.938l15.147 5.684c16.394 6.05 23.344 15.4 23.344 27.318 0 14.484-10.87 24.018-26.552 24.018-19.424 0-33.145-10.267-43.48-23.1L672.7 230.087c17.82 22.918 44.015 38.136 79.476 38.136 46.51 0 80.9-29.335 80.9-79.2 0-35.2-18-60.32-57.558-75.538l-13.9-5.317c-18.711-7.15-28.512-16.134-28.512-29.7 0-14.668 10.692-23.285 25.661-23.285 16.929 0 30.828 7.517 41.164 18.518zM979.951 215.6H897.98v-56.47h76.982v-48.77H897.98v-53.9h82.684V7.69h-134.9v256.682h134.187zM996.2 7.69v256.682h52.212V166.65h3.029l45.8 97.723h59.34l-53.1-102.49c30.65-10.451 48.648-36.669 48.648-72.971 0-50.42-31.006-81.222-81.258-81.222zm75.022 49.32c15.325 0 27.621 10.084 27.621 31.9 0 22-12.118 32.085-27.621 32.085h-22.809V57.01z"/></g></svg>