<svg xmlns="http://www.w3.org/2000/svg" width="1466" height="403" viewBox="0 0 1466 403"><pattern id="diagonal-texture" patternUnits="userSpaceOnUse" width="6" height="6"><style>.diagonal-1{fill:#242424}</style><path d="M0 0h6v6H0z"/><path class="diagonal-1" d="M5 0h1v1H5zM4 1h1v1H4zM3 2h1v1H3zM2 3h1v1H2zM1 4h1v1H1zM0 5h1v1H0zM4.5.5H5V1h-.5zM5 1h.5v.5H5zM4 2h.5v.5H4zm-.5-.5H4V2h-.5zm-1 1H3V3h-.5zM3 3h.5v.5H3zM2 4h.5v.5H2zM1 5h.5v.5H1zM0 0h.5v.5H0z"/>/&gt;<path class="diagonal-1" d="M5.5 5.5H6V6h-.5zm-4-2H2V4h-.5zm-1 1H1V5H.5z"/></pattern><path d="M215.438 305.379H198.41l-29.617 57.437.779 10.971h28.9v18.886h16.968v-18.886h7.434V359.7h-7.434zM198.47 359.7h-13.19l12.831-28.539.359-.659zm-5.955-201.53c19.9-12.118 32.9-32.384 32.9-60.8 0-52.443-34.725-82.947-91.178-82.947H48.742v292.506H69.31l-3.43 23.391H53.109v10.432h11.272l-2.518 16.967H49.392v10.373h10.972l-3.6 24.581h10.495l3.541-24.581h8.03l-3.6 24.581h10.495l3.6-24.581h12.411v-10.373H90.821l2.518-16.967h12.231V330.32H94.838l3.43-23.391H138.7c1.6 0 3.181-.033 4.746-.078l-27.94 11.418v14.15L132.115 326v66.67h17.027v-86.084c52.109-3.466 80.941-33.41 80.941-83.439 0-30.087-15.028-52.861-37.568-64.979zM80.329 357.719H72.3l2.518-16.967h8.034zm4.017-27.4h-8.034l3.43-23.391h8.034zm23.895-261.992h25.587c17.261 0 30.257 9.82 30.257 32.384 0 22.356-13 32.176-30.46 32.176h-25.384zm29.242 184.7h-29.242v-67.071h29.242c18.276 0 31.476 10.029 31.476 33.639 0 23.405-13.403 33.429-31.476 33.429zM343.236 10.034c-65.591 0-104.58 54.114-104.58 150.641s38.989 150.641 104.58 150.641c65.388 0 104.581-54.113 104.581-150.641S408.624 10.034 343.236 10.034zm-.2 241.528c-27.211 0-43.051-28.833-43.051-90.887s15.84-90.886 43.051-90.886 43.051 28.833 43.051 90.886-15.843 90.887-43.054 90.887zm364.553-237.14l-35.131 198.487L635.5 14.422h-61.734l-37.161 199.323-34.928-199.323h-61.733l59.3 292.507h70.668l34.319-175.086 34.318 175.086h70.668l59.3-292.507zm174.1 120.555l-15.84-6.059c-21.322-8.149-32.491-18.387-32.491-33.848 0-16.714 12.184-26.534 29.242-26.534 19.292 0 35.131 8.566 46.909 21.1l36.756-43.249c-25.181-25.072-52.189-36.146-84.883-36.146-54.423 0-89.96 36.146-89.96 86.708 0 38.235 18.886 72.709 69.247 91.1l17.261 6.477c18.682 6.894 26.6 17.55 26.6 31.131 0 16.5-12.388 27.37-30.258 27.37-22.134 0-37.771-11.7-49.549-26.326l-40.207 41.16c20.307 26.117 50.158 43.458 90.569 43.458 53 0 92.193-33.429 92.193-90.259.005-40.118-20.505-68.742-65.586-86.083zm80.053 171.952h152.911v-55.576h-93.412V187h87.726v-55.575h-87.726V70h94.224V14.422h-153.72zm293.674-116.794c34.927-11.909 55.437-41.787 55.437-83.156 0-57.456-35.334-92.557-92.6-92.557h-85.086v292.507h59.5V195.567h3.452l52.189 111.362h67.622zm-36.756-46.592h-25.99V70.625h25.993c17.464 0 31.476 11.491 31.476 36.354 0 25.073-13.809 36.564-31.476 36.564z" fill="url(#diagonal-texture)"/></svg>