<svg xmlns="http://www.w3.org/2000/svg" width="1466" height="481" viewBox="0 0 1466 481"><pattern id="diagonal-texture" patternUnits="userSpaceOnUse" width="6" height="6"><style>.diagonal-1{fill:#242424}</style><path d="M0 0h6v6H0z"/><path class="diagonal-1" d="M5 0h1v1H5zM4 1h1v1H4zM3 2h1v1H3zM2 3h1v1H2zM1 4h1v1H1zM0 5h1v1H0zM4.5.5H5V1h-.5zM5 1h.5v.5H5zM4 2h.5v.5H4zm-.5-.5H4V2h-.5zm-1 1H3V3h-.5zM3 3h.5v.5H3zM2 4h.5v.5H2zM1 5h.5v.5H1zM0 0h.5v.5H0z"/>/&gt;<path class="diagonal-1" d="M5.5 5.5H6V6h-.5zm-4-2H2V4h-.5zm-1 1H1V5H.5z"/></pattern><g fill="url(#diagonal-texture)"><path class="cls-1" d="M49.73 11.24v267.27h82.2c53.62 0 83.5-27.87 83.5-76.56 0-27.49-13.73-48.29-34.33-59.37C199.28 131.51 211.16 113 211.16 87c0-47.92-31.73-75.79-83.31-75.79zM130.82 168c16.7 0 28.76 9.17 28.76 30.74 0 21.38-12.25 30.54-28.76 30.54H104.1V168zm-3.34-107.51c15.77 0 27.64 9 27.64 29.59 0 20.43-11.87 29.4-27.83 29.4H104.1v-59zM396 11.24h-59l-38 97.36-38-97.36h-60.94l71.63 165.32v101.95h54.36V175.23zM538 227h-86.47V11.24h-54.37v267.27H538zm149.2.73h-85.35v-58.8H682v-50.78h-80.15V62H688V11.24H547.48v267.27H687.2zM857 11.24H696.52v51.54h53.06v215.73H804V62.78h53zm63.88 0h-54.37v267.27h54.37v-109.2h64.76v109.2H1040V11.24h-54.36v106.52h-64.76z"/><path class="cls-1" d="M69.19 370.39h11.1l3.81-26h13.13v-11H85.69l2.66-18h12.94v-11H89.94L93.8 278H82.7l-3.86 26.39h-8.5L74.21 278h-11l-3.91 26.43H45.79v11h11.92l-2.66 18H41.86v11h11.61l-3.81 26h11.1l3.74-26H73zm-.44-54.93h8.5l-2.66 18h-8.5zM158.92 278H103v15h37l-29.3 77.44h19l29.18-82zm15.96 50.66a21.78 21.78 0 0 1 1.4-1.88 8.2 8.2 0 0 1 1.8-1.61 9.3 9.3 0 0 1 2.48-1.14 11.09 11.09 0 0 1 3.33-.45 9.78 9.78 0 0 1 4.91 1.17 10 10 0 0 1 3.43 3.27 15.08 15.08 0 0 1 2 5.08 31.85 31.85 0 0 1 .63 6.59 44.07 44.07 0 0 1-.48 6.72 18.66 18.66 0 0 1-1.58 5.4 9.7 9.7 0 0 1-2.89 3.61 7 7 0 0 1-4.31 1.33 7.46 7.46 0 0 1-6.22-3.17q-2.4-3.16-2.85-8.94h-17.76a27.94 27.94 0 0 0 2.35 11.42 26.16 26.16 0 0 0 6 8.49 25.84 25.84 0 0 0 8.6 5.3 28 28 0 0 0 10 1.81 26.37 26.37 0 0 0 11.92-2.54 24.68 24.68 0 0 0 8.44-6.79 28.74 28.74 0 0 0 5-9.83 41.15 41.15 0 0 0 1.65-11.73 50.47 50.47 0 0 0-1.56-13.13 28.32 28.32 0 0 0-4.56-9.77 19.9 19.9 0 0 0-7.46-6.09 23.75 23.75 0 0 0-10.15-2.09 16.24 16.24 0 0 0-3.39.35 19.66 19.66 0 0 0-3 .89 19.34 19.34 0 0 0-2.48 1.14c-.72.4-1.33.77-1.84 1.11l1.65-19.79h30V278h-44.76l-4.57 47z"/></g></svg>