<svg id="レイヤー_1" data-name="レイヤー 1" xmlns="http://www.w3.org/2000/svg" viewBox="0 0 1466 663.43"><pattern id="diagonal-texture" patternUnits="userSpaceOnUse" width="6" height="6"><style>.diagonal-1{fill:#242424}</style><path d="M0 0h6v6H0z"/><path class="diagonal-1" d="M5 0h1v1H5zM4 1h1v1H4zM3 2h1v1H3zM2 3h1v1H2zM1 4h1v1H1zM0 5h1v1H0zM4.5.5H5V1h-.5zM5 1h.5v.5H5zM4 2h.5v.5H4zm-.5-.5H4V2h-.5zm-1 1H3V3h-.5zM3 3h.5v.5H3zM2 4h.5v.5H2zM1 5h.5v.5H1zM0 0h.5v.5H0z"/>/&gt;<path class="diagonal-1" d="M5.5 5.5H6V6h-.5zm-4-2H2V4h-.5zm-1 1H1V5H.5z"/></pattern><g fill="url(#diagonal-texture)"><path d="M179.48 401.83H97v-60.66h89.69v-53.26H38.33V568.2H97V455.08h82.49zm130.34-113.92h-67.67L167.47 568.2h60.26l13.21-57.66h69.27l13.41 57.66h60.88zm-34.24 72.68l22.42 96.7h-44.64zm262.29 153.56h-93.3V287.91h-58.66V568.2h152zm91.7-230.44c-63.27 0-101.71 51.25-101.71 144.35s38.44 144.35 101.71 144.35c40.84 0 70.47-22.22 85.29-61.26l-49.05-25.23c-8.21 19.82-19.82 29.23-36 29.23-24.23 0-41.24-25.83-41.24-87.09 0-59.66 15.62-87.09 41.24-87.09 16.22 0 27.83 9.61 35.44 29.23l50.61-23.2c-14.21-40.67-45.45-63.29-86.29-63.29z"/><path d="M815 283.71c-64.67 0-103.11 51.85-103.11 144.35S750.31 572.41 815 572.41c64.47 0 103.11-51.85 103.11-144.35S879.44 283.71 815 283.71zm-.2 57.26c26.83 0 42.44 27.63 42.44 87.09s-15.62 87.09-42.44 87.09-42.44-27.63-42.44-87.09S787.95 341 814.77 341zm308.51-53.06h-57.86v164l-79.08-164H928.9V568.2h57.66V404.83l79.28 163.37h57.46zM134.63 10.38c-63.27 0-101.71 51.25-101.71 144.35s38.44 144.35 101.71 144.35c40.84 0 70.47-22.22 85.29-61.26l-49.05-25.23c-8.21 19.82-19.82 29.23-36 29.23-24.23 0-41.24-25.83-41.24-87.09 0-59.66 15.62-87.09 41.24-87.09 16.22 0 27.83 9.61 35.44 29.23l50.65-23.22C206.7 33 175.47 10.38 134.63 10.38zm217.23 4.2h-67.67l-74.68 280.3h60.26L283 237.22h69.27l13.41 57.66h60.86zm-34.23 72.68L340.05 184H295.4zM511.44 196c55.86 0 90.89-34.84 90.89-89.89 0-56.46-35-91.5-91.3-91.5H428v280.27h58.66V196zm-.6-127.53c17.42 0 31.63 12.21 31.63 37.64 0 25.23-14.21 37.44-31.63 37.44h-24.23V68.44z"/><path d="M771.12 14.58H597.94v54.06h57.26v226.24h58.66V68.64h57.26zm107.32 0h-67.67l-74.68 280.3h60.26l13.21-57.66h69.27l13.41 57.66h60.86zM844.2 87.26L866.63 184H822zm168.99-72.68h-58.66v280.3h58.66zm210.81 0h-57.86v164l-79.08-164h-57.46v280.3h57.66V131.51l79.28 163.37H1224zM68.43 653.43h10.49l3.6-24.58h12.41v-10.38H84l2.52-17h12.24v-10.4H88l3.66-24.94H81.2l-3.66 24.94h-8l3.66-24.94H62.73l-3.66 24.94H46.3v10.43h11.27l-2.52 17H42.59v10.37h11L50 653.43h10.45L64 628.85h8zM68 601.51h8l-2.52 17h-8zM142.34 566h-1.8l-31.84 13v14.15l16.61-6.42v66.67h17zm58.92 0h-1.8l-31.84 13v14.15l16.61-6.42v66.67h17z"/></g></svg>