<svg xmlns="http://www.w3.org/2000/svg" width="1466" height="398" viewBox="0 0 1466 398"><pattern id="diagonal-texture" patternUnits="userSpaceOnUse" width="6" height="6"><style>.diagonal-1{fill:#242424}</style><path d="M0 0h6v6H0z"/><path class="diagonal-1" d="M5 0h1v1H5zM4 1h1v1H4zM3 2h1v1H3zM2 3h1v1H2zM1 4h1v1H1zM0 5h1v1H0zM4.5.5H5V1h-.5zM5 1h.5v.5H5zM4 2h.5v.5H4zm-.5-.5H4V2h-.5zm-1 1H3V3h-.5zM3 3h.5v.5H3zM2 4h.5v.5H2zM1 5h.5v.5H1zM0 0h.5v.5H0z"/>/&gt;<path class="diagonal-1" d="M5.5 5.5H6V6h-.5zm-4-2H2V4h-.5zm-1 1H1V5H.5z"/></pattern><g fill="url(#diagonal-texture)"><path d="M148.406 6.6C83.252 6.6 43.665 59.385 43.665 155.26s39.587 148.659 104.741 148.659c42.061 0 72.577-22.886 87.834-63.092l-50.515-25.979c-8.453 20.412-20.412 30.1-37.113 30.1-24.948 0-42.474-26.6-42.474-89.69 0-61.443 16.082-89.69 42.474-89.69 16.7 0 28.66 9.9 36.494 30.1l52.164-23.917C222.632 29.9 190.468 6.6 148.406 6.6zm153.228 4.332h-60.411v288.657h60.412V181.652h71.958v117.937H434V10.932h-60.408v115.05h-71.958zm149.314 0v288.657h60.412v-109.9h3.505l52.989 109.9h68.659l-61.442-115.257c35.464-11.752 56.288-41.237 56.288-82.061 0-56.7-35.876-91.339-94.02-91.339zm86.8 55.463c17.732 0 31.958 11.34 31.958 35.876 0 24.742-14.02 36.082-31.958 36.082H511.36V66.4zM741.908 6.6C675.31 6.6 635.723 60 635.723 155.26s39.587 148.659 106.185 148.659c66.391 0 106.184-53.4 106.184-148.658S808.3 6.6 741.908 6.6zm-.208 58.971c27.629 0 43.711 28.453 43.711 89.69S769.33 244.95 741.7 244.95s-43.71-28.45-43.71-89.69 16.083-89.689 43.71-89.689zm366.018-54.639h-82.061l-42.062 139.174-42.268-139.174h-82.061v288.657h59.794V100.828l35.67 124.535h57.525l35.67-124.947v199.173h59.793zM73.233 388.173h10.492l3.6-24.582h12.408V353.22H88.821l2.518-16.967h12.231V325.82H92.838l3.662-24.941H86l-3.654 24.941h-8.034l3.657-24.941H67.537L63.88 325.82H51.11v10.432h11.271l-2.518 16.968H47.392v10.372h10.972l-3.6 24.582h10.495l3.541-24.582h8.03zm-.42-51.921h8.034l-2.518 16.968H70.3z"/><path d="M161.232 374.084h-29.678l11.212-16.008q3.836-4.556 6.895-8.723a64.223 64.223 0 0 0 5.186-8.244 41.9 41.9 0 0 0 3.267-8.184 33.488 33.488 0 0 0-.45-18.856 20.457 20.457 0 0 0-4.706-7.794 20.777 20.777 0 0 0-7.7-4.886 30.217 30.217 0 0 0-10.582-1.709 25.735 25.735 0 0 0-11 2.278 24.564 24.564 0 0 0-8.274 6.175 27.691 27.691 0 0 0-5.216 9.113 33.453 33.453 0 0 0-1.829 11.152h17.027a29.658 29.658 0 0 1 .54-5.816 14.969 14.969 0 0 1 1.679-4.647 9.067 9.067 0 0 1 2.818-3.058 7.011 7.011 0 0 1 3.957-1.109 6.4 6.4 0 0 1 5.786 3.3q2.008 3.3 2.008 9.113a19.639 19.639 0 0 1-.42 3.957 23.683 23.683 0 0 1-1.439 4.437 45.684 45.684 0 0 1-2.7 5.246q-1.679 2.848-4.2 6.325l-23.623 30.036v11.991h51.441zm22.708-25.361a21.254 21.254 0 0 1 1.319-1.769 7.89 7.89 0 0 1 1.709-1.529 9.047 9.047 0 0 1 2.338-1.079 10.645 10.645 0 0 1 3.148-.42 9.246 9.246 0 0 1 4.646 1.109 9.38 9.38 0 0 1 3.237 3.088 14.1 14.1 0 0 1 1.889 4.8 30.062 30.062 0 0 1 .6 6.235 42.071 42.071 0 0 1-.45 6.355 17.807 17.807 0 0 1-1.5 5.1 9.208 9.208 0 0 1-2.728 3.417 6.6 6.6 0 0 1-4.077 1.259 7.059 7.059 0 0 1-5.875-3q-2.279-3-2.7-8.454h-16.785a26.386 26.386 0 0 0 2.218 10.792 24.464 24.464 0 0 0 13.849 13.04 26.594 26.594 0 0 0 9.413 1.709 24.925 24.925 0 0 0 11.271-2.4 23.291 23.291 0 0 0 7.974-6.415 27.258 27.258 0 0 0 4.736-9.293 38.951 38.951 0 0 0 1.559-11.092 47.854 47.854 0 0 0-1.469-12.411 26.718 26.718 0 0 0-4.317-9.233 18.707 18.707 0 0 0-7.045-5.756 22.394 22.394 0 0 0-9.653-1.978 15.218 15.218 0 0 0-3.208.33 19.122 19.122 0 0 0-2.848.839 18.447 18.447 0 0 0-2.338 1.079q-1.02.57-1.739 1.049l1.559-18.706h28.359v-14.51h-42.265l-4.317 44.367z"/></g><path d="M239.454 319.224a12.784 12.784 0 0 0-2.318.194 5.7 5.7 0 0 0-1.816.632 3.373 3.373 0 0 0-1.2 1.136 3.211 3.211 0 0 0-.437 1.734 3.151 3.151 0 0 0 .324 1.362 3.418 3.418 0 0 0 1.006 1.216 5.294 5.294 0 0 0 1.719.859 8.155 8.155 0 0 0 2.432.324 7.4 7.4 0 0 0 4.232-.956 2.768 2.768 0 0 0 1.346-2.286h10.929a8.765 8.765 0 0 1-1.378 4.961 11.215 11.215 0 0 1-3.616 3.422 17.231 17.231 0 0 1-5.06 1.994 25.379 25.379 0 0 1-5.707.648 30.3 30.3 0 0 1-6.729-.713 18.834 18.834 0 0 1-5.432-2.076 11.146 11.146 0 0 1-3.632-3.323 7.764 7.764 0 0 1-1.33-4.46 7.559 7.559 0 0 1 1.735-5.042 10.5 10.5 0 0 1 4.978-3.1 11.114 11.114 0 0 1-4.475-3.129 6.593 6.593 0 0 1-1.622-4.3 7.965 7.965 0 0 1 1.232-4.41 9.947 9.947 0 0 1 3.422-3.194 17.851 17.851 0 0 1 5.221-1.946 31.033 31.033 0 0 1 6.632-.665 23.009 23.009 0 0 1 5.886.73 15.64 15.64 0 0 1 4.832 2.124 10.97 10.97 0 0 1 3.275 3.389 8.577 8.577 0 0 1 1.216 4.557h-10.931a2.413 2.413 0 0 0-1.41-2.287 7.774 7.774 0 0 0-3.584-.729 7.192 7.192 0 0 0-2.254.309 4.609 4.609 0 0 0-1.508.794 2.909 2.909 0 0 0-.843 1.1 3.143 3.143 0 0 0-.26 1.232 2.609 2.609 0 0 0 1.379 2.335 7.14 7.14 0 0 0 3.745.844h5.675v6.713z"/></svg>