<svg xmlns="http://www.w3.org/2000/svg" width="1466" height="400" viewBox="0 0 1466 400"><pattern id="diagonal-texture" patternUnits="userSpaceOnUse" width="6" height="6"><style>.diagonal-1{fill:#242424}</style><path d="M0 0h6v6H0z"/><path class="diagonal-1" d="M5 0h1v1H5zM4 1h1v1H4zM3 2h1v1H3zM2 3h1v1H2zM1 4h1v1H1zM0 5h1v1H0zM4.5.5H5V1h-.5zM5 1h.5v.5H5zM4 2h.5v.5H4zm-.5-.5H4V2h-.5zm-1 1H3V3h-.5zM3 3h.5v.5H3zM2 4h.5v.5H2zM1 5h.5v.5H1zM0 0h.5v.5H0z"/>/&gt;<path class="diagonal-1" d="M5.5 5.5H6V6h-.5zm-4-2H2V4h-.5zm-1 1H1V5H.5z"/></pattern><g fill="url(#diagonal-texture)"><path d="M69.733 388.673h10.492l3.6-24.581h12.408V353.72H85.321l2.518-16.968h12.231V326.32H89.338L93 301.379H82.5l-3.654 24.941h-8.034l3.657-24.941H64.037L60.38 326.32H47.609v10.432h11.272l-2.518 16.968H43.892v10.372h10.972l-3.6 24.581h10.495l3.541-24.581h8.03zm-.42-51.921h8.034l-2.518 16.968H66.8zm74.329-35.493h-1.8l-31.836 13.01v14.15L126.615 322v66.67h17.027zm36.678 49.703h8.214a9.428 9.428 0 0 1 7.466 3.027q2.667 3.029 2.668 9.923a16.882 16.882 0 0 1-.66 4.886 11.2 11.2 0 0 1-1.888 3.747 8.388 8.388 0 0 1-2.968 2.4 8.99 8.99 0 0 1-3.957.839 7.378 7.378 0 0 1-3.507-.839 8.363 8.363 0 0 1-2.728-2.309 11.422 11.422 0 0 1-1.8-3.477 14.049 14.049 0 0 1-.659-4.407h-16.969a26.638 26.638 0 0 0 2.159 11.182 23.269 23.269 0 0 0 5.666 7.824 22.657 22.657 0 0 0 8.034 4.616 29.465 29.465 0 0 0 9.322 1.5 32.122 32.122 0 0 0 10.613-1.708 24.432 24.432 0 0 0 8.513-4.977 23.047 23.047 0 0 0 5.666-8.064 27.308 27.308 0 0 0 2.068-10.911 24.648 24.648 0 0 0-3.027-12.471 18.679 18.679 0 0 0-9.2-7.914 19.989 19.989 0 0 0 4.767-3.507 22.73 22.73 0 0 0 3.507-4.5 21.013 21.013 0 0 0 2.938-10.762 28.41 28.41 0 0 0-1.889-10.762 21.544 21.544 0 0 0-5.276-7.794 22.069 22.069 0 0 0-8.123-4.736 32.654 32.654 0 0 0-10.433-1.589 26.677 26.677 0 0 0-9.622 1.709 23.516 23.516 0 0 0-7.765 4.8 22.357 22.357 0 0 0-5.216 7.494 24.308 24.308 0 0 0-1.918 9.8h16.967a11.756 11.756 0 0 1 .66-4.077 9.866 9.866 0 0 1 1.738-3.058 7.224 7.224 0 0 1 2.548-1.918 7.851 7.851 0 0 1 6.685.18 7.6 7.6 0 0 1 2.608 2.308 10.286 10.286 0 0 1 1.559 3.477 17.95 17.95 0 0 1 .51 4.407 15.446 15.446 0 0 1-2.189 8.723q-2.189 3.268-6.864 3.268h-8.218z"/><path d="M43.242 14.422v292.507h85.7c70.465 0 109.251-57.248 109.251-146.253 0-89.215-38.786-146.254-109.251-146.254zm84.274 56.412c35.131 0 49.142 33.847 49.142 89.842 0 55.576-14.011 89.841-49.142 89.841h-24.775V70.834zm246.976-56.412h-68.637L230.11 306.929h61.124l13.4-60.173H374.9l13.6 60.173h61.733zm-34.724 75.843l22.743 100.915h-45.284zm175.498-75.843h-59.5v292.507h59.5zm196.382 31.967c-25.181-25.072-52.189-36.146-84.883-36.146-54.422 0-89.959 36.146-89.959 86.708 0 38.235 18.885 72.709 69.246 91.1l17.261 6.477c18.682 6.894 26.6 17.55 26.6 31.131 0 16.506-12.387 27.37-30.257 27.37-22.135 0-37.771-11.7-49.549-26.325L529.9 267.858c20.307 26.117 50.158 43.459 90.569 43.459 53 0 92.193-33.43 92.193-90.26 0-40.115-20.51-68.739-65.591-86.08l-15.839-6.059c-21.323-8.149-32.491-18.387-32.491-33.848 0-16.714 12.184-26.534 29.242-26.534 19.291 0 35.131 8.566 46.909 21.1zm209.613-31.967h-64.576l-41.629 106.556-41.63-106.556H706.82l78.38 180.936v111.571h59.5V193.9zM222.153 335.893a7.655 7.655 0 0 1 1.314-4.539 7.918 7.918 0 0 1 3.737-2.788 8.814 8.814 0 0 1-3.343-2.817 6.589 6.589 0 0 1-1.24-3.869 8.407 8.407 0 0 1 .905-3.971 8.146 8.146 0 0 1 2.525-2.876 11.9 11.9 0 0 1 3.854-1.751 18.976 18.976 0 0 1 4.919-.6 14.368 14.368 0 0 1 4.394.658 10.942 10.942 0 0 1 3.606 1.912 9.286 9.286 0 0 1 2.452 3.036 8.839 8.839 0 0 1 .905 4.058h-8.262a2.988 2.988 0 0 0-.978-2.409 4.343 4.343 0 0 0-4.16-.525 3.1 3.1 0 0 0-1.095.8 3.29 3.29 0 0 0-.628 1.11 3.946 3.946 0 0 0-.2 1.255 3.107 3.107 0 0 0 .949 2.379 3.663 3.663 0 0 0 2.613.89h4.671v5.664h-4.671a4.628 4.628 0 0 0-2.906.847 3.444 3.444 0 0 0-1.094 2.891 4.032 4.032 0 0 0 .248 1.386 3.539 3.539 0 0 0 .73 1.211 3.5 3.5 0 0 0 1.226.847 4.338 4.338 0 0 0 1.737.322 4.8 4.8 0 0 0 1.766-.293 3.675 3.675 0 0 0 1.241-.773 3.119 3.119 0 0 0 .745-1.124 3.7 3.7 0 0 0 .248-1.343h8.233a8.9 8.9 0 0 1-3.708 7.547 11.608 11.608 0 0 1-3.781 1.8 16.026 16.026 0 0 1-4.277.584 18.55 18.55 0 0 1-4.992-.643 12.593 12.593 0 0 1-4.014-1.868 9.057 9.057 0 0 1-2.687-2.993 8.147 8.147 0 0 1-.982-4.015z"/></g></svg>