<svg xmlns="http://www.w3.org/2000/svg" width="1466" height="832" viewBox="0 0 1466 832"><pattern id="diagonal-texture" patternUnits="userSpaceOnUse" width="6" height="6"><style>.diagonal-1{fill:#242424}</style><path d="M0 0h6v6H0z"/><path class="diagonal-1" d="M5 0h1v1H5zM4 1h1v1H4zM3 2h1v1H3zM2 3h1v1H2zM1 4h1v1H1zM0 5h1v1H0zM4.5.5H5V1h-.5zM5 1h.5v.5H5zM4 2h.5v.5H4zm-.5-.5H4V2h-.5zm-1 1H3V3h-.5zM3 3h.5v.5H3zM2 4h.5v.5H2zM1 5h.5v.5H1zM0 0h.5v.5H0z"/>/&gt;<path class="diagonal-1" d="M5.5 5.5H6V6h-.5zm-4-2H2V4h-.5zm-1 1H1V5H.5z"/></pattern><style>.ptn{fill:url(#diagonal-texture)}</style><g class="ptn"><path class="st2" d="M70.2 95.2h10.5l3.6-24.6h12.4V60.2H85.8l2.5-17h12.2V32.8H89.8l3.7-24.9H83l-3.7 24.9h-8L75 7.9H64.5l-3.7 24.9H48.1v10.4h11.3l-2.5 17H44.4v10.4h11l-3.6 24.6h10.5l3.5-24.6h8l-3.6 24.6zm-.4-51.9h8l-2.5 17h-8l2.5-17z"/><path class="st3" d="M157.5 43.9c.1-5.7-.5-11.3-1.9-16.8-1-4.2-2.8-8.1-5.2-11.6-2.1-2.9-4.8-5.2-8-6.7-6.5-2.8-13.9-2.8-20.5 0-3.2 1.5-5.9 3.8-8 6.7-2.5 3.5-4.2 7.4-5.2 11.6-1.3 5.5-2 11.2-1.9 16.8v15.2c-.1 5.7.5 11.4 1.9 16.9 1 4.2 2.8 8.1 5.2 11.6 2.1 2.9 4.8 5.2 8 6.7 6.5 2.9 14 2.9 20.5 0 3.2-1.5 5.9-3.8 8-6.7 2.5-3.5 4.2-7.4 5.2-11.6 1.3-5.5 2-11.2 1.9-16.9V43.9zm-17 17.5c0 3.3-.2 6.6-.6 9.8-.3 2.2-.8 4.4-1.6 6.4-.5 1.4-1.4 2.6-2.6 3.5-1 .7-2.2 1.1-3.4 1.1-1.3 0-2.5-.4-3.5-1.1-1.2-.9-2.1-2.1-2.7-3.5-.9-2.1-1.4-4.2-1.7-6.4-.4-3.2-.6-6.5-.6-9.8v-20c0-3.2.2-6.5.6-9.7.3-2.2.8-4.3 1.7-6.4.5-1.4 1.5-2.6 2.6-3.5 2.1-1.4 4.9-1.4 7 0 1.2.9 2.1 2.1 2.6 3.5.8 2 1.4 4.2 1.7 6.4.4 3.2.6 6.4.6 9.7l-.1 20z"/><path class="st4" d="M210.4 7.9h-17l-29.6 57.4.8 11h28.9v18.9h17V76.3h7.4V62.2h-7.4l-.1-54.3zm-17.3 25.8l.4-.7v29.2h-13.2l12.8-28.5z"/><path class="st5" d="M263.8 499.2c-32.1-31-66.4-44.7-108.1-44.7-69.3 0-114.5 44.7-114.5 107.3 0 47.3 24 90 88.2 112.7l22 8c23.8 8.5 33.9 21.7 33.9 38.5 0 20.4-15.8 33.9-38.5 33.9-28.2 0-48.1-14.5-63.1-32.6l-51.2 50.9C58.3 805.6 96.3 827 147.8 827c67.5 0 117.4-41.4 117.4-111.7 0-49.6-26.1-85.1-83.5-106.5l-20.2-7.5c-27.1-10.1-41.4-22.8-41.4-41.9 0-20.7 15.5-32.8 37.2-32.8 24.6 0 44.7 10.6 59.7 26.1l46.8-53.5z"/><path class="st6" d="M455.1 459.7h-87.4l-96.4 361.9h77.8l17.1-74.5h89.5l17.3 74.5h78.6l-96.5-361.9zm-44.2 93.8l29 124.9h-57.7l28.7-124.9z"/><path class="st7" d="M882.9 459.7H780.1l-52.7 174.5-53-174.5h-103v361.9h75V572.4l44.7 156.2h72.1L808 571.9v249.7h75l-.1-361.9z"/><path class="st8" d="M1159.5 459.7h-76v243.8c0 33.6-16.8 49.4-43.7 49.4s-43.7-15.8-43.7-49.4V459.7h-76v247.4c0 71.6 41.1 120 119.7 120s119.7-48.3 119.7-120V459.7z"/><path class="st9" d="M1420.6 499.2c-32.1-31-66.4-44.7-108.1-44.7-69.3 0-114.5 44.7-114.5 107.3 0 47.3 24 90 88.2 112.7l22 8c23.8 8.5 33.9 21.7 33.9 38.5 0 20.4-15.8 33.9-38.5 33.9-28.2 0-48.1-14.5-63.1-32.6l-51.2 50.9c25.9 32.3 63.9 53.8 115.3 53.8 67.5 0 117.4-41.4 117.4-111.7 0-49.6-26.1-85.1-83.5-106.5l-20.2-7.5c-27.1-10.1-41.4-22.8-41.4-41.9 0-20.7 15.5-32.8 37.2-32.8 24.6 0 44.7 10.6 59.7 26.1l46.8-53.5z"/><path class="st10" d="M46.2 94.7v361.9h109.1c89.7 0 139.1-70.8 139.1-181 0-110.4-49.4-181-139.1-181l-109.1.1zm107.3 69.8c44.7 0 62.6 41.9 62.6 111.2 0 68.8-17.8 111.2-62.6 111.2H122V164.5h31.5z"/><path class="st11" d="M449.7 94.7h-87.4l-96.4 361.9h77.8l17.1-74.5h89.5l17.3 74.5h78.6L449.7 94.7zm-44.2 93.8l29 124.9h-57.7l28.7-124.9z"/><path class="st12" d="M566 94.7v361.9h75.8V318.8h4.4l66.4 137.8h86.1l-77-144.5c44.5-14.7 70.6-51.7 70.6-102.9 0-71.1-45-114.5-117.9-114.5H566zm108.9 69.5c22.2 0 40.1 14.2 40.1 45 0 31-17.6 45.2-40.1 45.2h-33.1v-90.2h33.1z"/><path class="st13" d="M993.4 456.6h89.7L980.4 271.2l95.7-176.6h-87.4l-72.4 145h-16.8v-145h-75.8v361.9h75.7V308.7h15.8l78.2 147.9z"/></g><g class="ptn"><path class="st14" d="M238.5 28.2c-.8 0-1.6.1-2.3.2-.6.1-1.3.3-1.8.6s-.9.7-1.2 1.1c-.3.5-.5 1.1-.4 1.7 0 .5.1.9.3 1.4.2.5.6.9 1 1.2.5.4 1.1.7 1.7.9.8.2 1.6.3 2.4.3 1.5.1 2.9-.2 4.2-1 .8-.5 1.3-1.3 1.3-2.3h10.9c0 1.8-.4 3.5-1.4 5-.9 1.4-2.2 2.6-3.6 3.4-1.6.9-3.3 1.6-5.1 2-1.9.4-3.8.6-5.7.6-2.3 0-4.5-.2-6.7-.7-1.9-.4-3.7-1.1-5.4-2.1-1.4-.8-2.7-2-3.6-3.3-.9-1.3-1.4-2.9-1.3-4.5-.1-1.8.6-3.6 1.7-5 1.3-1.5 3.1-2.6 5-3.1-1.7-.7-3.3-1.7-4.5-3.1-1-1.2-1.6-2.7-1.6-4.3 0-1.6.4-3.1 1.2-4.4.9-1.3 2-2.4 3.4-3.2 1.6-.9 3.4-1.6 5.2-1.9 2.2-.5 4.4-.7 6.6-.7 2 0 4 .2 5.9.7 1.7.4 3.4 1.1 4.8 2.1 1.3.9 2.4 2 3.3 3.4.8 1.4 1.2 3 1.2 4.6h-10.9c0-1-.5-1.9-1.4-2.3-1.1-.5-2.3-.8-3.6-.7-.8 0-1.5.1-2.3.3-.5.2-1.1.4-1.5.8-.4.3-.7.7-.8 1.1-.2.4-.3.8-.3 1.2 0 1 .5 1.9 1.4 2.3 1.1.6 2.4.9 3.7.8h5.7V28l-5.5.2z"/></g></svg>