<svg xmlns="http://www.w3.org/2000/svg" width="1466" height="535" viewBox="0 0 1466 535"><pattern id="diagonal-texture" patternUnits="userSpaceOnUse" width="6" height="6"><style>.diagonal-1{fill:#242424}</style><path d="M0 0h6v6H0z"/><path class="diagonal-1" d="M5 0h1v1H5zM4 1h1v1H4zM3 2h1v1H3zM2 3h1v1H2zM1 4h1v1H1zM0 5h1v1H0zM4.5.5H5V1h-.5zM5 1h.5v.5H5zM4 2h.5v.5H4zm-.5-.5H4V2h-.5zm-1 1H3V3h-.5zM3 3h.5v.5H3zM2 4h.5v.5H2zM1 5h.5v.5H1zM0 0h.5v.5H0z"/>/&gt;<path class="diagonal-1" d="M5.5 5.5H6V6h-.5zm-4-2H2V4h-.5zm-1 1H1V5H.5z"/></pattern><path d="M787.65 9.832H709.9v257.925h77.75c63.929 0 99.117-50.479 99.117-128.962 0-78.668-35.188-128.963-99.117-128.963zm-1.289 208.183h-22.477V59.575h22.477c31.872 0 44.584 29.845 44.584 79.22 0 49.005-12.712 79.22-44.584 79.22zm645.94 49.338v-.521h-.289l-72.628-131.169L1427.55 9.832h-62.27l-51.58 103.354h-11.976V9.832h-53.98v257h-5.544l-54.408-102.061c31.688-10.5 50.3-36.846 50.3-73.324 0-50.664-32.056-81.615-84.01-81.615h-77.202v257h-1.622l-68.473-257h-62.27L875.8 267.757h55.45l12.159-53.057h63.745l12.343 53.059h9.407v257h53.98v-91.013h22.845c51.4 0 83.642-32.056 83.642-82.72 0-46.868-26.246-77.683-69.389-83.269h10.878v-98.2h3.132l47.347 98.2h24.508v257h53.98v-257h13.113v48.818h52.69v208.182h53.98V316.575h52.69v-48.818h.224zm-477.469-101.66l20.449-88.985 20.634 88.985zm179.453 185.333c0 23.214-13.08 34.452-29.108 34.452h-22.293v-69.087h22.293c16.028 0 29.108 11.238 29.108 34.635zm20.157-227.338h-23.582v-64.3h23.582c15.844 0 28.556 10.132 28.556 32.056.002 22.111-12.528 32.244-28.556 32.244zm147.277 143.144V162.376h11.239l55.149 104.456z" fill-rule="evenodd" fill="url(#diagonal-texture)"/></svg>