<svg id="レイヤー_1" data-name="レイヤー 1" xmlns="http://www.w3.org/2000/svg" viewBox="0 0 1466 644"><pattern id="diagonal-texture" patternUnits="userSpaceOnUse" width="6" height="6"><style>.diagonal-1{fill:#242424}</style><path d="M0 0h6v6H0z"/><path class="diagonal-1" d="M5 0h1v1H5zM4 1h1v1H4zM3 2h1v1H3zM2 3h1v1H2zM1 4h1v1H1zM0 5h1v1H0zM4.5.5H5V1h-.5zM5 1h.5v.5H5zM4 2h.5v.5H4zm-.5-.5H4V2h-.5zm-1 1H3V3h-.5zM3 3h.5v.5H3zM2 4h.5v.5H2zM1 5h.5v.5H1zM0 0h.5v.5H0z"/>/&gt;<path class="diagonal-1" d="M5.5 5.5H6V6h-.5zm-4-2H2V4h-.5zm-1 1H1V5H.5z"/></pattern><g fill="url(#diagonal-texture)"><path d="M70.73 632.67h10.49l3.6-24.58h12.41v-10.37H86.32l2.52-17h12.23v-10.4H90.34L94 545.38H83.5l-3.66 24.94h-8l3.66-24.94H65l-3.66 24.94H48.61v10.43h11.27l-2.52 17H44.89v10.37h11l-3.6 24.58h10.47l3.54-24.58h8zm-.42-51.92h8l-2.52 17h-8zM122.4 595h8.21a9.43 9.43 0 0 1 7.46 3q2.67 3 2.67 9.92a16.91 16.91 0 0 1-.66 4.89 11.21 11.21 0 0 1-1.89 3.75 8.38 8.38 0 0 1-3 2.4 9 9 0 0 1-4 .84 7.38 7.38 0 0 1-3.51-.84 8.36 8.36 0 0 1-2.73-2.31 11.42 11.42 0 0 1-1.8-3.48 14 14 0 0 1-.66-4.41h-17a26.64 26.64 0 0 0 2.16 11.18 23.27 23.27 0 0 0 5.67 7.82 22.68 22.68 0 0 0 8 4.62 29.48 29.48 0 0 0 9.32 1.5 32.11 32.11 0 0 0 10.61-1.71 24.41 24.41 0 0 0 8.51-5 23 23 0 0 0 5.67-8.06 27.31 27.31 0 0 0 2.07-10.91 24.64 24.64 0 0 0-3-12.47 18.68 18.68 0 0 0-9.2-7.91 20 20 0 0 0 4.77-3.51 22.75 22.75 0 0 0 3.51-4.5 21 21 0 0 0 2.94-10.76 28.43 28.43 0 0 0-1.89-10.76 21.54 21.54 0 0 0-5.28-7.79 22.08 22.08 0 0 0-8.12-4.74 32.66 32.66 0 0 0-10.43-1.59 26.7 26.7 0 0 0-9.62 1.71 23.51 23.51 0 0 0-7.76 4.8 22.34 22.34 0 0 0-5.22 7.49 24.29 24.29 0 0 0-1.92 9.8h17a11.77 11.77 0 0 1 .66-4.08 9.85 9.85 0 0 1 1.74-3.06 7.22 7.22 0 0 1 2.55-1.92 7.86 7.86 0 0 1 6.68.18 7.61 7.61 0 0 1 2.61 2.31 10.29 10.29 0 0 1 1.56 3.48 17.94 17.94 0 0 1 .51 4.41 15.45 15.45 0 0 1-2.19 8.72q-2.19 3.27-6.86 3.27h-8.14zm82-50.52a36 36 0 0 0-16.19 3.52 33.5 33.5 0 0 0-11.9 9.83A45.09 45.09 0 0 0 169 573a70.55 70.55 0 0 0-2.52 19.43v6.71a51.48 51.48 0 0 0 1.83 14.15 33.66 33.66 0 0 0 5.25 11 24 24 0 0 0 8.27 7.1 23.35 23.35 0 0 0 10.91 2.52 23.48 23.48 0 0 0 18.59-8.63 29.09 29.09 0 0 0 5.1-9.5 37.79 37.79 0 0 0 1.8-11.84 49.18 49.18 0 0 0-1.29-11.45A30.29 30.29 0 0 0 213 583a20.14 20.14 0 0 0-6.51-6.42 17.21 17.21 0 0 0-9.11-2.37 17.44 17.44 0 0 0-7.67 1.65 18.5 18.5 0 0 0-5.94 4.53 32.6 32.6 0 0 1 2.31-9 21.89 21.89 0 0 1 4.44-6.77 18.11 18.11 0 0 1 6.57-4.26 24.36 24.36 0 0 1 8.75-1.47h.84v-14.41zm-8.54 44.94a10 10 0 0 1 2.94 3.27 17.59 17.59 0 0 1 1.89 5 28.91 28.91 0 0 1 .66 6.39 29.48 29.48 0 0 1-.63 6.3 18.17 18.17 0 0 1-1.8 5 9.55 9.55 0 0 1-2.85 3.27 6.36 6.36 0 0 1-3.72 1.17q-4 0-6.48-4.56t-2.46-13.79v-6.12a12.58 12.58 0 0 1 3.27-5 7.66 7.66 0 0 1 5.43-2 6.5 6.5 0 0 1 3.75 1.07zM45.94 10.09v274h82.59c67.91 0 105.29-53.63 105.29-137 0-83.57-37.38-137-105.29-137zm81.22 52.84c33.86 0 47.36 31.71 47.36 84.16 0 52.06-13.5 84.16-47.36 84.16h-23.88V62.93zm174.56-52.84h-57.34v274h57.34zm16.04 0v274h82.59c67.91 0 105.29-53.63 105.29-137 0-83.57-37.38-137-105.29-137zM399 62.93c33.86 0 47.36 31.71 47.36 84.16 0 52.06-13.5 84.16-47.36 84.16h-23.9V62.93zm117.2-52.84v274h82.59c67.91 0 105.29-53.63 105.29-137 0-83.57-37.38-137-105.29-137zm81.22 52.84c33.86 0 47.36 31.71 47.36 84.16 0 52.06-13.5 84.16-47.36 84.16h-23.88V62.93zm291.21-52.84H826.4l-40.12 99.81-40.13-99.81H682l75.55 169.49v104.51h57.34V178.21z"/><path d="M174.33 553.29h67.91L164.54 413 237 279.29h-66.2L116 389.09h-12.72v-109.8H45.94v274h57.34V441.34h11.94z"/><path d="M319.73 275.18c-63.22 0-100.79 50.69-100.79 141.11S256.52 557.4 319.73 557.4c63 0 100.79-50.69 100.79-141.11s-37.77-141.11-100.79-141.11zm-.2 56c26.23 0 41.49 27 41.49 85.14s-15.27 85.14-41.49 85.14S278 474.42 278 416.29s15.31-85.14 41.54-85.14zm301.59-51.89h-56.56v160.29l-77.31-160.29h-56.17v274h56.37v-159.7l77.5 159.7h56.17zm111.93-4.11c-63.22 0-101.18 49.12-101.18 141.11 0 93.55 39.53 141.11 101.58 141.11 50.89 0 93.94-40.51 93.94-129.17 0-10.76-.39-20.94-1.17-28.38h-94.73v48.54h40.71c-3.91 39.34-18 54-39.73 54-24.07 0-41.69-23.09-41.69-86.11 0-60.87 15.27-85.53 40.9-85.53 15.85 0 26.42 7.83 34.25 23.88l45.8-27.4c-14.09-33.46-41.1-52.05-78.68-52.05z"/></g></svg>