<svg xmlns="http://www.w3.org/2000/svg" width="1466" height="658" viewBox="0 0 1466 658"><pattern id="diagonal-texture" patternUnits="userSpaceOnUse" width="6" height="6"><style>.diagonal-1{fill:#242424}</style><path d="M0 0h6v6H0z"/><path class="diagonal-1" d="M5 0h1v1H5zM4 1h1v1H4zM3 2h1v1H3zM2 3h1v1H2zM1 4h1v1H1zM0 5h1v1H0zM4.5.5H5V1h-.5zM5 1h.5v.5H5zM4 2h.5v.5H4zm-.5-.5H4V2h-.5zm-1 1H3V3h-.5zM3 3h.5v.5H3zM2 4h.5v.5H2zM1 5h.5v.5H1zM0 0h.5v.5H0z"/>/&gt;<path class="diagonal-1" d="M5.5 5.5H6V6h-.5zm-4-2H2V4h-.5zm-1 1H1V5H.5z"/></pattern><g fill="url(#diagonal-texture)"><path d="M149.945 565.963a20.577 20.577 0 0 0-8.034-6.655 25.685 25.685 0 0 0-20.475 0 20.627 20.627 0 0 0-8 6.655 33.683 33.683 0 0 0-5.216 11.571 66.567 66.567 0 0 0-1.859 16.817v15.229a65.834 65.834 0 0 0 1.889 16.877 34.074 34.074 0 0 0 5.246 11.571 20.814 20.814 0 0 0 8.034 6.685 25.356 25.356 0 0 0 20.474 0 20.886 20.886 0 0 0 8-6.685 33.706 33.706 0 0 0 5.216-11.571 66.879 66.879 0 0 0 1.859-16.877v-15.228a65.571 65.571 0 0 0-1.889-16.817 34.108 34.108 0 0 0-5.245-11.572zm-9.893 45.955a70.987 70.987 0 0 1-.57 9.8 25.228 25.228 0 0 1-1.649 6.445 8.253 8.253 0 0 1-2.608 3.537 5.835 5.835 0 0 1-3.447 1.079 6.065 6.065 0 0 1-3.537-1.079 8.32 8.32 0 0 1-2.668-3.537 24.932 24.932 0 0 1-1.709-6.445 67.4 67.4 0 0 1-.6-9.8v-20.024a65.641 65.641 0 0 1 .6-9.683 25.351 25.351 0 0 1 1.679-6.355 8.146 8.146 0 0 1 2.638-3.507 6.142 6.142 0 0 1 6.955 0 8.153 8.153 0 0 1 2.638 3.507 25.387 25.387 0 0 1 1.679 6.355 65.776 65.776 0 0 1 .6 9.683z"/><path d="M167.607 419.761l72.415-133.673H173.87l-54.8 109.8h-12.722v-107.8H127.6c67.913 0 105.295-53.626 105.295-137 0-83.57-37.382-137-105.295-137H45v274h4v272h14.85l-3.403 23.232h-12.77v10.432h11.271l-2.518 16.967H43.959v10.372h10.972l-3.6 24.581h10.495l3.537-24.581H73.4l-3.6 24.581h10.492l3.6-24.581H96.3v-10.372H85.388l2.518-16.967h12.231V583.32H89.405l3.407-23.231h13.536V448.14h11.939l59.106 111.949h.57a24.337 24.337 0 0 0-7.079 5.545 27.688 27.688 0 0 0-5.216 9.113 33.451 33.451 0 0 0-1.829 11.152h17.027a29.659 29.659 0 0 1 .54-5.816 14.968 14.968 0 0 1 1.679-4.646 9.068 9.068 0 0 1 2.818-3.058 7.012 7.012 0 0 1 3.957-1.109 6.4 6.4 0 0 1 5.786 3.3q2.008 3.3 2.008 9.113a19.646 19.646 0 0 1-.42 3.957 23.691 23.691 0 0 1-1.439 4.437 45.729 45.729 0 0 1-2.7 5.246q-1.679 2.848-4.2 6.325l-23.622 30.037v11.991h51.447v-14.092h-29.678l11.211-16.008q3.836-4.556 6.895-8.723a64.2 64.2 0 0 0 5.186-8.244 41.9 41.9 0 0 0 3.268-8.184 33.488 33.488 0 0 0-.45-18.856 20.457 20.457 0 0 0-4.706-7.794 19.91 19.91 0 0 0-5.049-3.686h41.909zm-65.259-352.83h23.877c33.859 0 47.363 31.706 47.363 84.157 0 52.06-13.5 84.157-47.363 84.157h-23.877zM74.9 610.719h-8.038l2.518-16.967h8.034zm4.017-27.4h-8.038l3.406-23.231h8.035z"/><path d="M372.441 286.636c42.668-15.429 67.3-62.531 67.3-135.547 0-90.42-37.773-141.111-100.793-141.111-63.216 0-100.793 50.69-100.793 141.111 0 74.5 25.517 122.028 69.864 136.452-42.723 15.429-67.232 62.53-67.232 135.548 0 90.42 37.577 141.111 100.793 141.111 63.02 0 100.793-50.69 100.793-141.111.004-74.507-25.646-122.03-69.932-136.453zM338.756 65.952c26.226 0 41.492 27.009 41.492 85.136s-15.266 85.136-41.492 85.136-41.492-27.009-41.492-85.136 15.266-85.136 41.492-85.136zm2.632 442.272c-26.226 0-41.492-27.009-41.492-85.136s15.266-85.136 41.492-85.136 41.492 27.009 41.492 85.136-15.266 85.136-41.492 85.136zM640.336 14.088h-56.561v160.29l-77.308-160.29H450.3v274h.675v272h56.366v-159.7l77.5 159.7h56.17v-274h-.675zm-133.194 272h-.479v-157.7l77.5 159.7h.284v158.29zm267.83-138.327l72.414-133.673h-66.151l-54.8 109.8h-12.722v-109.8h-57.344v274h57.344V176.14h11.939L784.2 287.034a93.164 93.164 0 0 0-31.257-5.057c-63.216 0-101.185 49.125-101.185 141.111 0 93.552 39.534 141.111 101.576 141.111 50.886 0 93.943-40.513 93.943-129.172 0-10.764-.391-20.941-1.174-28.379h-94.724v48.537h40.709c-3.914 39.339-18.006 54.017-39.73 54.017-24.073 0-41.687-23.094-41.687-86.115 0-60.867 15.266-85.527 40.9-85.527 15.853 0 26.422 7.829 34.25 23.877l45.8-27.4c-9.378-22.274-24.485-37.948-44.615-45.949h65.664zm369.286-133.673l-40.121 99.815-40.122-99.815H853.44v274.001h147.373v-52.06h-90.029v-60.281h84.549v-52.06h-84.549v-57.54h90.812V18.071l73.771 165.506v104.512h57.344V182.207l73.785-168.119h-62.238z"/></g></svg>