<svg id="レイヤー_1" data-name="レイヤー 1" xmlns="http://www.w3.org/2000/svg" viewBox="0 0 1466 404"><pattern id="diagonal-texture" patternUnits="userSpaceOnUse" width="6" height="6"><style>.diagonal-1{fill:#242424}</style><path d="M0 0h6v6H0z"/><path class="diagonal-1" d="M5 0h1v1H5zM4 1h1v1H4zM3 2h1v1H3zM2 3h1v1H2zM1 4h1v1H1zM0 5h1v1H0zM4.5.5H5V1h-.5zM5 1h.5v.5H5zM4 2h.5v.5H4zm-.5-.5H4V2h-.5zm-1 1H3V3h-.5zM3 3h.5v.5H3zM2 4h.5v.5H2zM1 5h.5v.5H1zM0 0h.5v.5H0z"/>/&gt;<path class="diagonal-1" d="M5.5 5.5H6V6h-.5zm-4-2H2V4h-.5zm-1 1H1V5H.5z"/></pattern><g fill="url(#diagonal-texture)"><path d="M69.73 392.68h10.49l3.6-24.58h12.41v-10.37H85.32l2.52-17h12.23v-10.4H89.34L93 305.39H82.5l-3.66 24.94h-8l3.66-24.94H64l-3.66 24.94H47.61v10.43h11.27l-2.52 17H43.89v10.34h11l-3.6 24.58h10.47l3.54-24.58h8zm-.42-51.92h8l-2.52 17h-8zm74.33-35.49h-1.8l-31.84 13v14.15l16.62-6.42v66.67h17zm68.76 12.83a21.27 21.27 0 0 0-4.86-7.64 20.43 20.43 0 0 0-7.46-4.68 29.39 29.39 0 0 0-19.07 0 20.71 20.71 0 0 0-7.49 4.68 21 21 0 0 0-4.89 7.64 29.3 29.3 0 0 0-1.74 10.49 23 23 0 0 0 2.7 11.27 20.78 20.78 0 0 0 7.49 7.85 21.91 21.91 0 0 0-8.57 8.39 24.84 24.84 0 0 0-3.12 12.65 28.59 28.59 0 0 0 1.92 10.91 21.55 21.55 0 0 0 13.31 12.62 32.25 32.25 0 0 0 20 0 21.46 21.46 0 0 0 7.91-4.77 22.16 22.16 0 0 0 5.22-7.85 29 29 0 0 0 1.89-10.91 24.69 24.69 0 0 0-3.12-12.62 22.53 22.53 0 0 0-8.51-8.42 20.94 20.94 0 0 0 7.43-7.85 23 23 0 0 0 2.7-11.27 29.32 29.32 0 0 0-1.74-10.49zm-15.86 58.43a6.59 6.59 0 0 1-5.91 3.27 6.93 6.93 0 0 1-6.09-3.27q-2.19-3.27-2.19-9.08t2.19-9.11a6.81 6.81 0 0 1 6-3.3 6.74 6.74 0 0 1 5.94 3.3q2.16 3.3 2.16 9.11t-2.1 9.08zm-.93-38.73a5.28 5.28 0 0 1-5 3.15 5.4 5.4 0 0 1-5-3.15 17.65 17.65 0 0 1-1.68-8.3 16.85 16.85 0 0 1 1.68-8.24 5.34 5.34 0 0 1 4.92-3 5.4 5.4 0 0 1 5.07 3.06 17.22 17.22 0 0 1 1.65 8.15 18.21 18.21 0 0 1-1.64 8.32z"/><path d="M43.24 14.43v292.51h85.7c70.46 0 109.25-57.25 109.25-146.25 0-89.21-38.79-146.25-109.25-146.25zm84.27 56.41c35.13 0 49.14 33.85 49.14 89.84 0 55.58-14 89.84-49.14 89.84h-24.77V70.84zm215.3 25.7c-18.28 0-31.07 8.36-39.19 26.53v-22.14h-52.39v206h55.23V187c0-20.68 10-30.71 26-30.71a73.57 73.57 0 0 1 21.12 3.34l4.26-60.59a42.68 42.68 0 0 0-15.03-2.5zm20.33 142.08c-19.7 0-35.54 16.3-35.54 36.35 0 20.27 15.84 36.35 35.54 36.35s35.13-16.09 35.13-36.35c0-20.06-15.43-36.35-35.13-36.35zM713.46 14.43h-80.82l-41.43 141-41.63-141h-80.82v292.51h58.89V105.53l35.13 126.2h56.66l35.13-126.61v201.82h58.89zm149.72 0h-68.64L718.8 306.94h61.12l13.4-60.17h70.26l13.61 60.17h61.73zm-34.72 75.84l22.74 100.92h-45.28zm116-75.84v292.51H1004V195.58h3.45l52.19 111.36h67.62l-60.56-116.79c34.93-11.91 55.44-41.79 55.44-83.16 0-57.46-35.33-92.56-92.6-92.56zm85.49 56.2c17.46 0 31.48 11.49 31.48 36.35 0 25.07-13.81 36.56-31.48 36.56h-26v-72.9zm166.35-56.2h-59.5v292.51h59.5zM1316.13 10c-65.59 0-104.58 54.11-104.58 150.64s39 150.64 104.58 150.64c65.39 0 104.58-54.11 104.58-150.64S1381.51 10 1316.13 10zm-.2 59.76c27.21 0 43.05 28.83 43.05 90.89s-15.84 90.89-43.05 90.89-43.05-28.83-43.05-90.89 15.83-90.85 43.04-90.85z"/></g></svg>