<svg xmlns="http://www.w3.org/2000/svg" width="1466" height="708" viewBox="0 0 1466 708"><pattern id="diagonal-texture" patternUnits="userSpaceOnUse" width="6" height="6"><style>.diagonal-1{fill:#242424}</style><path d="M0 0h6v6H0z"/><path class="diagonal-1" d="M5 0h1v1H5zM4 1h1v1H4zM3 2h1v1H3zM2 3h1v1H2zM1 4h1v1H1zM0 5h1v1H0zM4.5.5H5V1h-.5zM5 1h.5v.5H5zM4 2h.5v.5H4zm-.5-.5H4V2h-.5zm-1 1H3V3h-.5zM3 3h.5v.5H3zM2 4h.5v.5H2zM1 5h.5v.5H1zM0 0h.5v.5H0z"/>/&gt;<path class="diagonal-1" d="M5.5 5.5H6V6h-.5zm-4-2H2V4h-.5zm-1 1H1V5H.5z"/></pattern><g fill="url(#diagonal-texture)"><path class="a" d="M65.733 695.673h10.492l3.6-24.581h12.408V660.72H81.321l2.518-16.967H96.07V633.32H85.338L89 608.379H78.5l-3.654 24.941h-8.034l3.657-24.941H60.037L56.38 633.32H43.61v10.432h11.271l-2.518 16.968H39.892v10.372h10.972l-3.6 24.581h10.495l3.541-24.581h8.03zm-.42-51.921h8.034l-2.518 16.968H62.8zm52.206 12.471a21.277 21.277 0 0 1 1.319-1.769 7.892 7.892 0 0 1 1.709-1.529 9.048 9.048 0 0 1 2.338-1.079 10.644 10.644 0 0 1 3.148-.42 9.246 9.246 0 0 1 4.646 1.109 9.38 9.38 0 0 1 3.238 3.088 14.1 14.1 0 0 1 1.888 4.8 30.062 30.062 0 0 1 .6 6.235 42.071 42.071 0 0 1-.45 6.355 17.807 17.807 0 0 1-1.5 5.1 9.209 9.209 0 0 1-2.728 3.417 6.6 6.6 0 0 1-4.077 1.259 7.059 7.059 0 0 1-5.876-3q-2.279-3-2.7-8.454H102.29a26.385 26.385 0 0 0 2.218 10.792 24.463 24.463 0 0 0 13.85 13.04 26.594 26.594 0 0 0 9.413 1.709 24.925 24.925 0 0 0 11.271-2.4 23.289 23.289 0 0 0 7.974-6.415 27.258 27.258 0 0 0 4.736-9.293 38.951 38.951 0 0 0 1.559-11.092 47.858 47.858 0 0 0-1.469-12.411 26.716 26.716 0 0 0-4.317-9.233 18.707 18.707 0 0 0-7.045-5.756 22.394 22.394 0 0 0-9.653-1.978 15.218 15.218 0 0 0-3.208.33 19.124 19.124 0 0 0-2.848.839 18.448 18.448 0 0 0-2.338 1.079q-1.02.57-1.739 1.049l1.559-18.706h28.359v-14.51h-42.266l-4.317 44.367zM172 681.944v14.629h1.079a38.672 38.672 0 0 0 16.7-3.387 32.161 32.161 0 0 0 11.961-9.653 43.157 43.157 0 0 0 7.195-15.049 74.308 74.308 0 0 0 2.4-19.575v-6.115a54.373 54.373 0 0 0-1.829-14.6 36.221 36.221 0 0 0-5.126-11.241 23.44 23.44 0 0 0-7.974-7.225 21.2 21.2 0 0 0-10.312-2.548 22.077 22.077 0 0 0-10.432 2.458 24.29 24.29 0 0 0-7.944 6.655 30.925 30.925 0 0 0-5.036 9.8 39.529 39.529 0 0 0-1.769 11.961 47.1 47.1 0 0 0 1.379 11.691 28.973 28.973 0 0 0 4.077 9.323 19.513 19.513 0 0 0 6.715 6.145 18.779 18.779 0 0 0 9.233 2.218 14.022 14.022 0 0 0 6.355-1.5 20.263 20.263 0 0 0 5.456-4.017q-1.02 9.834-6.085 14.929t-15.139 5.1zm10.672-29.108a9.624 9.624 0 0 1-2.758-3.507 19.264 19.264 0 0 1-1.589-5.156 36.8 36.8 0 0 1-.51-6.3 34.806 34.806 0 0 1 .54-6.175 23.368 23.368 0 0 1 1.559-5.306 11.026 11.026 0 0 1 2.548-3.717 5.029 5.029 0 0 1 3.507-1.409 5.3 5.3 0 0 1 3.208 1.139 9.665 9.665 0 0 1 2.7 3.417 21.476 21.476 0 0 1 1.829 5.726 43.418 43.418 0 0 1 .66 8.064v7.794a14.17 14.17 0 0 1-3.178 4.8 6.522 6.522 0 0 1-8.514.63z"/><path class="a" d="M99.037 308.52H36.082v300.809h62.955v-122.9h74.987v122.9h62.956V308.52h-62.955v119.894H99.037zm352.815 0h-63.17v202.616c0 27.932-13.966 41.039-36.312 41.039s-36.312-13.107-36.312-41.039V308.52h-63.17v205.624c0 59.517 34.163 99.7 99.482 99.7s99.482-40.18 99.482-99.7zm224.758 0h-62.1v175.973L529.643 308.52h-61.666v300.809h61.881V434l85.086 175.329h61.666zm190.38 0H681.133v58.013h61.451v242.8h62.955v-242.8h61.451z"/><path class="a" d="M36.082 15.187V316h90.672c74.558 0 115.6-58.873 115.6-150.4 0-91.747-41.039-150.4-115.6-150.4zM125.251 73.2c37.171 0 52 34.808 52 92.391 0 57.154-14.826 92.391-52 92.391H99.037V73.2zm325.958-58.013h-63.17V217.8c0 27.932-13.966 41.039-36.312 41.039s-36.312-13.107-36.312-41.039V15.187h-63.17v205.624c0 59.517 34.163 99.7 99.482 99.7s99.482-40.18 99.482-99.7zm119.475-4.512c-67.9 0-109.151 55.005-109.151 154.917s41.254 154.917 109.151 154.917c43.832 0 75.632-23.85 91.532-65.748l-52.642-27.073c-8.809 21.272-21.271 31.37-38.675 31.37-26 0-44.262-27.717-44.262-93.466 0-64.029 16.759-93.466 44.262-93.466 17.4 0 29.866 10.313 38.031 31.37l54.36-24.924c-15.255-43.618-48.774-67.897-92.606-67.897zM808.331 316h74.558l-85.3-154.057 79.5-146.752h-72.626L744.3 135.725h-13.965V15.187H667.38V316h62.955V193.1h13.107z"/></g></svg>