<svg xmlns="http://www.w3.org/2000/svg" width="1466" height="303" viewBox="0 0 1466 303"><pattern id="diagonal-texture" patternUnits="userSpaceOnUse" width="6" height="6"><style>.diagonal-1{fill:#242424}</style><path d="M0 0h6v6H0z"/><path class="diagonal-1" d="M5 0h1v1H5zM4 1h1v1H4zM3 2h1v1H3zM2 3h1v1H2zM1 4h1v1H1zM0 5h1v1H0zM4.5.5H5V1h-.5zM5 1h.5v.5H5zM4 2h.5v.5H4zm-.5-.5H4V2h-.5zm-1 1H3V3h-.5zM3 3h.5v.5H3zM2 4h.5v.5H2zM1 5h.5v.5H1zM0 0h.5v.5H0z"/>/&gt;<path class="diagonal-1" d="M5.5 5.5H6V6h-.5zm-4-2H2V4h-.5zm-1 1H1V5H.5z"/></pattern><g fill="url(#diagonal-texture)"><path class="a" d="M699.606 126.745h-80.681V67.41h87.731V15.32H561.547v274.158h57.377V178.835h80.681zM827.153 15.32h-66.19l-73.044 274.158h58.944l12.925-56.4h67.756l13.12 56.4H900.2zM793.666 86.4l21.934 94.589h-43.671zm256.626 150.2h-91.256V15.32h-57.377v274.158h148.633zm89.756-225.393c-61.881 0-99.48 50.132-99.48 141.192s37.6 141.191 99.48 141.191c39.949 0 68.931-21.737 83.422-59.923l-47.978-24.674c-8.029 19.387-19.387 28.591-35.249 28.591-23.7 0-40.34-25.262-40.34-85.185 0-58.357 15.274-85.185 40.34-85.185 15.862 0 27.22 9.4 34.661 28.591l49.544-22.716c-13.902-39.753-44.448-61.882-84.4-61.882z"/><path class="a" d="M1321.466 11.207c-63.252 0-100.851 50.719-100.851 141.192s37.6 141.191 100.851 141.191c63.056 0 100.851-50.719 100.851-141.191s-37.795-141.192-100.851-141.192zm-.2 56.007c26.241 0 41.515 27.024 41.515 85.185s-15.274 85.185-41.515 85.185-41.515-27.024-41.515-85.185 15.278-85.185 41.519-85.185z"/></g></svg>