<svg id="レイヤー_1" data-name="レイヤー 1" xmlns="http://www.w3.org/2000/svg" viewBox="0 0 1466 434"><pattern id="diagonal-texture" patternUnits="userSpaceOnUse" width="6" height="6"><style>.diagonal-1{fill:#242424}</style><path d="M0 0h6v6H0z"/><path class="diagonal-1" d="M5 0h1v1H5zM4 1h1v1H4zM3 2h1v1H3zM2 3h1v1H2zM1 4h1v1H1zM0 5h1v1H0zM4.5.5H5V1h-.5zM5 1h.5v.5H5zM4 2h.5v.5H4zm-.5-.5H4V2h-.5zm-1 1H3V3h-.5zM3 3h.5v.5H3zM2 4h.5v.5H2zM1 5h.5v.5H1zM0 0h.5v.5H0z"/>/&gt;<path class="diagonal-1" d="M5.5 5.5H6V6h-.5zm-4-2H2V4h-.5zm-1 1H1V5H.5z"/></pattern><g fill="url(#diagonal-texture)"><path d="M67.73 100.67h10.49l3.6-24.58h12.41V65.72H83.32l2.52-17h12.23v-10.4H87.34L91 13.38H80.5l-3.65 24.94h-8l3.66-24.94H62l-3.62 24.94H45.61v10.43h11.27l-2.52 17H41.89v10.34h11l-3.6 24.58h10.47l3.54-24.58h8zm-.42-51.92h8l-2.52 17h-8zm87.69.6a65.57 65.57 0 0 0-1.89-16.82A34.11 34.11 0 0 0 147.88 21a20.57 20.57 0 0 0-8-6.66 25.68 25.68 0 0 0-20.47 0 20.63 20.63 0 0 0-8 6.66 33.68 33.68 0 0 0-5.22 11.57 66.56 66.56 0 0 0-1.86 16.82v15.19a65.84 65.84 0 0 0 1.89 16.88A34.07 34.07 0 0 0 111.43 93a20.81 20.81 0 0 0 8 6.69 25.36 25.36 0 0 0 20.47 0 20.89 20.89 0 0 0 8-6.69 33.7 33.7 0 0 0 5.22-11.57A66.87 66.87 0 0 0 155 64.58zm-17 17.57a71 71 0 0 1-.57 9.8 25.22 25.22 0 0 1-1.65 6.45 8.25 8.25 0 0 1-2.61 3.54 5.84 5.84 0 0 1-3.45 1.08 6.07 6.07 0 0 1-3.54-1.08 8.32 8.32 0 0 1-2.67-3.54 24.93 24.93 0 0 1-1.71-6.45 67.39 67.39 0 0 1-.6-9.8v-20a65.63 65.63 0 0 1 .6-9.68 25.34 25.34 0 0 1 1.68-6.36 8.15 8.15 0 0 1 2.64-3.51 6.14 6.14 0 0 1 7 0 8.15 8.15 0 0 1 2.64 3.51 25.39 25.39 0 0 1 1.68 6.36 65.76 65.76 0 0 1 .6 9.68zm76.41-53.54h-52.82v14.09h35l-27.7 73.2h17.93l27.58-77.52z"/><path class="cls-1" d="M205.12 229.1H111v-69.21h102.35V99.13H44.08v319.8H111V289.86h94.11zM335.64 94.33C261.86 94.33 218 153.49 218 259s43.86 164.7 117.64 164.7c73.55 0 117.64-59.16 117.64-164.7S409.2 94.33 335.64 94.33zm-.23 65.33c30.61 0 48.43 31.52 48.43 99.37s-17.84 99.36-48.43 99.36S287 326.87 287 259s17.8-99.34 48.41-99.34z"/><path class="cls-1" d="M661.49 99.13h-72l-40 100.05-40-100.05h-72.32l70.36 158.53-70.13 161h72l39.7-101.15 39.75 101.19h72.41l-70.35-161.27z"/></g></svg>