<svg xmlns="http://www.w3.org/2000/svg" width="1466" height="334" viewBox="0 0 1466 334"><pattern id="diagonal-texture" patternUnits="userSpaceOnUse" width="6" height="6"><style>.diagonal-1{fill:#242424}</style><path d="M0 0h6v6H0z"/><path class="diagonal-1" d="M5 0h1v1H5zM4 1h1v1H4zM3 2h1v1H3zM2 3h1v1H2zM1 4h1v1H1zM0 5h1v1H0zM4.5.5H5V1h-.5zM5 1h.5v.5H5zM4 2h.5v.5H4zm-.5-.5H4V2h-.5zm-1 1H3V3h-.5zM3 3h.5v.5H3zM2 4h.5v.5H2zM1 5h.5v.5H1zM0 0h.5v.5H0z"/>/&gt;<path class="diagonal-1" d="M5.5 5.5H6V6h-.5zm-4-2H2V4h-.5zm-1 1H1V5H.5z"/></pattern><path d="M89.173 6.292c-50.609 0-81.005 41.59-81.005 119.467 0 79.2 31.65 119.467 81.319 119.467 40.738 0 75.208-34.3 75.208-109.36 0-9.113-.313-17.729-.94-24.026H87.92v41.093h32.59c-3.134 33.305-14.415 45.732-31.807 45.732-19.272 0-33.374-19.552-33.374-72.906 0-51.532 12.221-72.409 32.747-72.409 12.691 0 21.152 6.628 27.42 20.215l36.664-23.2C140.879 22.033 119.257 6.292 89.173 6.292zM268.3 9.771h-52.959L156.9 241.746h47.16l10.34-47.72h54.213l10.5 47.721h47.632zm-26.793 60.148l17.549 80.031h-34.94zM483.15 9.771h-45.282v135.706L375.978 9.771H331.01v231.975h45.125V106.538l62.047 135.208h44.968zm92.48-3.479c-50.609 0-80.692 42.915-80.692 119.467s30.083 119.467 80.692 119.467c50.452 0 80.692-42.915 80.692-119.467S626.082 6.292 575.63 6.292zm-.157 47.389c21 0 33.217 22.866 33.217 72.078s-12.221 72.078-33.217 72.078-33.217-22.866-33.217-72.078 12.222-72.078 33.217-72.078zm244.62-43.91h-45.281v135.706L712.922 9.771h-44.969v231.975h45.125V106.538l62.047 135.208h44.968zm16.019 0v231.975h66.121c54.369 0 84.3-45.4 84.3-115.987 0-70.752-29.927-115.987-84.3-115.987zm65.024 44.738c27.106 0 37.917 26.843 37.917 71.249 0 44.075-10.811 71.25-37.917 71.25H882.02V54.509zM1074.62 6.292c-50.609 0-80.692 42.915-80.692 119.467s30.083 119.467 80.692 119.467c50.452 0 80.692-42.915 80.692-119.467S1125.072 6.292 1074.62 6.292zm-.157 47.389c21 0 33.217 22.866 33.217 72.078s-12.221 72.078-33.217 72.078-33.217-22.866-33.217-72.078 12.222-72.078 33.217-72.078zm92.48-43.91v231.975h45.908V153.43h2.664l40.268 88.316h52.176l-46.692-92.624c26.95-9.445 42.775-33.139 42.775-65.947 0-45.567-27.263-73.4-71.448-73.4zm65.964 44.572c13.475 0 24.286 9.113 24.286 28.831 0 19.884-10.654 29-24.286 29h-20.056v-57.83zm192.909 49.71h-64.554V53.847h70.194V9.771h-116.1v231.975h45.908v-93.618h64.554z" fill="url(#diagonal-texture)"/></svg>