<svg id="レイヤー_1" xmlns="http://www.w3.org/2000/svg" viewBox="0 0 1466 311"><pattern id="diagonal-texture" patternUnits="userSpaceOnUse" width="6" height="6"><style>.diagonal-1{fill:#242424}</style><path d="M0 0h6v6H0z"/><path class="diagonal-1" d="M5 0h1v1H5zM4 1h1v1H4zM3 2h1v1H3zM2 3h1v1H2zM1 4h1v1H1zM0 5h1v1H0zM4.5.5H5V1h-.5zM5 1h.5v.5H5zM4 2h.5v.5H4zm-.5-.5H4V2h-.5zm-1 1H3V3h-.5zM3 3h.5v.5H3zM2 4h.5v.5H2zM1 5h.5v.5H1zM0 0h.5v.5H0z"/>/&gt;<path class="diagonal-1" d="M5.5 5.5H6V6h-.5zm-4-2H2V4h-.5zm-1 1H1V5H.5z"/></pattern><path d="M133.3 138.5v50.1h42c-4 40.6-18.6 55.8-41 55.8-24.9 0-43-23.8-43-88.9 0-62.9 15.8-88.3 42.2-88.3 16.4 0 27.3 8.1 35.4 24.7l47.3-28.3C201.6 29 173.7 9.8 134.9 9.8 69.7 9.8 30.5 60.5 30.5 155.5c0 96.6 40.8 145.7 104.9 145.7 52.5 0 97-41.8 97-133.4 0-11.1-.4-21.6-1.2-29.3h-97.9zm284.9-34.9C418.2 48 383 14 326 14h-84.7v283h59.2V189.3h3.4l52 107.7h67.3L363 184c34.8-11.5 55.2-40.4 55.2-80.4zm-91.8 35.3h-25.9V68.4h25.9c17.4 0 31.3 11.1 31.3 35.2 0 24.2-13.7 35.3-31.3 35.3zM428.8 297H581v-53.8h-93V181h87.3v-53.8H488V67.8h93.8V14h-153v283zm304.4-117.4L653.4 14h-58v283h58.2V132.1l80 164.9h58V14h-58.4v165.6zM808.3 297h59.2V14h-59.2v283zm213.6-117.4L942.1 14h-58v283h58.2V132.1l80 164.9h58V14h-58.4v165.6zM1223.5 14h-59.2v193.6c0 25.3-10.3 35.6-27.1 35.6-10 0-19.5-3.9-26.7-10.9l-26.9 46.1c12.5 13.1 34.4 22.8 60.4 22.8 47.5 0 79.4-29.9 79.4-87.9l.1-199.3zm136.7 0h-68.3l-75.4 283h60.8l13.3-58.2h69.9L1374 297h61.4l-75.2-283zm-57 171l22.4-97.6 22.6 97.6h-45z" fill="url(#diagonal-texture)"/></svg>