<svg id="レイヤー_1" data-name="レイヤー 1" xmlns="http://www.w3.org/2000/svg" viewBox="0 0 1466 364"><pattern id="diagonal-texture" patternUnits="userSpaceOnUse" width="6" height="6"><style>.diagonal-1{fill:#242424}</style><path d="M0 0h6v6H0z"/><path class="diagonal-1" d="M5 0h1v1H5zM4 1h1v1H4zM3 2h1v1H3zM2 3h1v1H2zM1 4h1v1H1zM0 5h1v1H0zM4.5.5H5V1h-.5zM5 1h.5v.5H5zM4 2h.5v.5H4zm-.5-.5H4V2h-.5zm-1 1H3V3h-.5zM3 3h.5v.5H3zM2 4h.5v.5H2zM1 5h.5v.5H1zM0 0h.5v.5H0z"/>/&gt;<path class="diagonal-1" d="M5.5 5.5H6V6h-.5zm-4-2H2V4h-.5zm-1 1H1V5H.5z"/></pattern><path d="M93.5 8.39H34v292.5h59.5V181.38h70.87v119.51h59.5V8.39h-59.5V125H93.5zm304.04 236.93h-93.41V181h87.73v-55.61h-87.73V64h94.22V8.39H244.63v292.5h152.91zM416.05 8.39v292.5h59.5V189.53H479l52.19 111.36h67.62L538.3 184.1c34.93-11.91 55.44-41.79 55.44-83.16 0-57.46-35.33-92.56-92.6-92.56zm85.49 56.2C519 64.59 533 76.08 533 100.95c0 25.07-13.81 36.56-31.48 36.56h-26V64.59zM706.69 4C641.09 4 602.1 58.11 602.1 154.64s39 150.64 104.58 150.64c65.39 0 104.58-54.11 104.58-150.64S772.07 4 706.69 4zm-.2 59.75c27.21 0 43.05 28.83 43.05 90.89s-15.84 90.89-43.05 90.89-43.05-28.83-43.05-90.89 15.83-90.89 43.04-90.89z" fill="url(#diagonal-texture)"/></svg>