<svg xmlns="http://www.w3.org/2000/svg" width="1466" height="324.891" viewBox="0 0 1466 324.891"><pattern id="diagonal-texture" patternUnits="userSpaceOnUse" width="6" height="6"><style>.diagonal-1{fill:#242424}</style><path d="M0 0h6v6H0z"/><path class="diagonal-1" d="M5 0h1v1H5zM4 1h1v1H4zM3 2h1v1H3zM2 3h1v1H2zM1 4h1v1H1zM0 5h1v1H0zM4.5.5H5V1h-.5zM5 1h.5v.5H5zM4 2h.5v.5H4zm-.5-.5H4V2h-.5zm-1 1H3V3h-.5zM3 3h.5v.5H3zM2 4h.5v.5H2zM1 5h.5v.5H1zM0 0h.5v.5H0z"/>/&gt;<path class="diagonal-1" d="M5.5 5.5H6V6h-.5zm-4-2H2V4h-.5zm-1 1H1V5H.5z"/></pattern><g fill="url(#diagonal-texture)"><path d="M72.733 313.673h10.492l3.6-24.582h12.408V278.72H88.321l2.518-16.967h12.231V251.32H92.338L96 226.379H85.5l-3.654 24.941h-8.034l3.657-24.941H67.037L63.38 251.32H50.61v10.432h11.271l-2.518 16.968H46.892v10.372h10.972l-3.6 24.582h10.495l3.541-24.582h8.03zm-.42-51.921h8.034l-2.518 16.968H69.8zm74.329-35.493h-1.8l-31.836 13.01v14.149L129.615 247v66.67h17.027zm36.798 47.964a21.254 21.254 0 0 1 1.319-1.769 7.89 7.89 0 0 1 1.709-1.529 9.047 9.047 0 0 1 2.338-1.079 10.645 10.645 0 0 1 3.148-.42 9.246 9.246 0 0 1 4.646 1.109 9.38 9.38 0 0 1 3.237 3.088 14.1 14.1 0 0 1 1.889 4.8 30.062 30.062 0 0 1 .6 6.235 42.071 42.071 0 0 1-.45 6.355 17.807 17.807 0 0 1-1.5 5.1 9.208 9.208 0 0 1-2.728 3.417 6.6 6.6 0 0 1-4.077 1.259 7.059 7.059 0 0 1-5.875-3q-2.279-3-2.7-8.454h-16.785a26.386 26.386 0 0 0 2.218 10.792 24.464 24.464 0 0 0 13.849 13.04 26.594 26.594 0 0 0 9.413 1.709 24.925 24.925 0 0 0 11.271-2.4 23.291 23.291 0 0 0 7.974-6.415 27.258 27.258 0 0 0 4.736-9.293 38.951 38.951 0 0 0 1.559-11.092 47.854 47.854 0 0 0-1.469-12.411 26.718 26.718 0 0 0-4.317-9.233 18.707 18.707 0 0 0-7.045-5.756 22.394 22.394 0 0 0-9.653-1.978 15.218 15.218 0 0 0-3.208.33 19.122 19.122 0 0 0-2.848.839 18.447 18.447 0 0 0-2.338 1.079q-1.02.57-1.739 1.049l1.559-18.706h28.359v-14.51h-42.265l-4.317 44.367z"/><path d="M85.877 8.13H42.164v219.552h43.713zm83.994-3.293c-47.144 0-75.789 40.146-75.789 113.069s28.645 113.069 75.789 113.069c30.435 0 52.515-17.407 63.555-47.988l-36.552-19.76c-6.117 15.525-14.77 22.9-26.854 22.9-18.052 0-30.733-20.23-30.733-68.218 0-46.733 11.637-68.218 30.733-68.218 12.084 0 20.737 7.528 26.407 22.9L234.172 54.4C223.58 22.558 200.306 4.837 169.871 4.837zm179.482 181.13h-68.628v-48.3h64.45V95.951h-64.45V49.845h69.225V8.13H237.012v219.552h112.341zM467.519 4.837c-47.144 0-75.789 40.146-75.789 113.069s28.645 113.069 75.789 113.069c30.435 0 52.515-17.407 63.555-47.988l-36.552-19.76c-6.117 15.525-14.77 22.9-26.854 22.9-18.052 0-30.733-20.23-30.733-68.218 0-46.733 11.637-68.218 30.733-68.218 12.084 0 20.737 7.528 26.407 22.9l37.745-18.198c-10.593-31.835-33.866-49.556-64.301-49.556zM647.9 185.339h-69.527V8.13H534.66v219.552H647.9zM694.745 8.13h-43.713v219.552h43.713zm192.008 0h-59.378l-30.434 105.855L766.356 8.13h-59.377v219.552h43.265V76.5l25.81 94.721h41.624l25.81-95.035v151.496h43.265zm12.247 0v219.552h66.09c43.116 0 67.136-22.9 67.136-62.886 0-22.582-11.04-39.676-27.6-48.772 14.621-9.1 24.169-24.307 24.169-45.635 0-39.362-25.512-62.259-66.987-62.259zm65.2 128.751c13.427 0 23.125 7.528 23.125 25.248 0 17.564-9.847 25.092-23.125 25.092h-21.489v-50.34zm-2.691-88.291c12.681 0 22.229 7.371 22.229 24.307 0 16.78-9.548 24.151-22.379 24.151h-18.648V48.59zm190.375 137.377h-68.628v-48.3h64.45V95.951h-64.45V49.845h69.225V8.13h-112.937v219.552h112.341zM1162.482 8.13v219.552h43.713V144.1h2.536l38.342 83.586h49.681l-44.459-87.664c25.661-8.939 40.729-31.364 40.729-62.415 0-43.126-25.959-69.472-68.031-69.472zm62.809 42.185c12.83 0 23.125 8.625 23.125 27.287 0 18.819-10.145 27.444-23.125 27.444h-19.1V50.315z"/><path d="M1429.241 32.124c-18.5-18.819-38.342-27.13-62.362-27.13-39.983 0-66.091 27.13-66.091 65.081 0 28.7 13.875 54.574 50.874 68.375l12.681 4.861c13.726 5.175 19.544 13.173 19.544 23.367 0 12.389-9.1 20.544-22.229 20.544-16.262 0-27.749-8.782-36.4-19.76l-29.54 30.894c14.919 19.6 36.85 32.619 66.539 32.619 38.939 0 67.733-25.092 67.733-67.747 0-30.11-15.068-51.595-48.189-64.611l-11.637-4.548c-15.665-6.116-23.871-13.8-23.871-25.405 0-12.546 8.951-19.916 21.483-19.916 14.173 0 25.81 6.43 34.463 15.839z"/></g></svg>