<svg xmlns="http://www.w3.org/2000/svg" width="1466" height="309" viewBox="0 0 1466 309"><pattern id="diagonal-texture" patternUnits="userSpaceOnUse" width="6" height="6"><style>.diagonal-1{fill:#242424}</style><path d="M0 0h6v6H0z"/><path class="diagonal-1" d="M5 0h1v1H5zM4 1h1v1H4zM3 2h1v1H3zM2 3h1v1H2zM1 4h1v1H1zM0 5h1v1H0zM4.5.5H5V1h-.5zM5 1h.5v.5H5zM4 2h.5v.5H4zm-.5-.5H4V2h-.5zm-1 1H3V3h-.5zM3 3h.5v.5H3zM2 4h.5v.5H2zM1 5h.5v.5H1zM0 0h.5v.5H0z"/>/&gt;<path class="diagonal-1" d="M5.5 5.5H6V6h-.5zm-4-2H2V4h-.5zm-1 1H1V5H.5z"/></pattern><path d="M1040.965 10h-60.4v288.582h60.4zm152.155 288.582h71.527l-81.834-147.8L1259.082 10h-69.672l-57.716 115.639h-13.4V10h-60.4v288.582h60.4V180.676h12.574zm227.665-54.83h-94.82v-63.488h89.048v-54.831h-89.048v-60.6h95.645V10h-156.041v288.582h155.216z" fill="url(#diagonal-texture)"/></svg>