<svg id="レイヤー_1" data-name="レイヤー 1" xmlns="http://www.w3.org/2000/svg" viewBox="0 0 1466 412"><pattern id="diagonal-texture" patternUnits="userSpaceOnUse" width="6" height="6"><style>.diagonal-1{fill:#242424}</style><path d="M0 0h6v6H0z"/><path class="diagonal-1" d="M5 0h1v1H5zM4 1h1v1H4zM3 2h1v1H3zM2 3h1v1H2zM1 4h1v1H1zM0 5h1v1H0zM4.5.5H5V1h-.5zM5 1h.5v.5H5zM4 2h.5v.5H4zm-.5-.5H4V2h-.5zm-1 1H3V3h-.5zM3 3h.5v.5H3zM2 4h.5v.5H2zM1 5h.5v.5H1zM0 0h.5v.5H0z"/>/&gt;<path class="diagonal-1" d="M5.5 5.5H6V6h-.5zm-4-2H2V4h-.5zm-1 1H1V5H.5z"/></pattern><g fill="url(#diagonal-texture)"><path d="M109.3 11.15H45.75v303.63h63.55zm228.37 0H275v177.62L189.33 11.15h-62.25v303.63h62.46v-177l85.88 177h62.24zm160.07 303.63H573l-86.1-155.5 80.24-148.13h-73.3l-60.73 121.67H419V11.15h-63.53v303.63H419V190.73h13.23zm240.74-58.56H637.42V11.15h-63.55v303.63h164.61zm68.11-245.07H743v303.63h63.55zm228.41 0h-62.72v177.62L886.62 11.15h-62.25v303.63h62.46v-177l85.88 177H1035zm124-4.55c-70 0-112.1 54.4-112.1 156.4 0 103.67 43.81 156.37 112.56 156.37 56.39 0 104.1-44.89 104.1-143.14 0-11.93-.43-23.21-1.3-31.45h-105v53.79h45.11c-4.34 43.59-20 59.86-44 59.86-26.68 0-46.19-25.59-46.19-95.43 0-67.45 16.92-94.78 45.33-94.78 17.57 0 29.28 8.68 38 26.46l50.75-30.36C1230.6 27.2 1200.67 6.6 1159 6.6z"/><path d="M71.23 401.17h10.49l3.6-24.58h12.41v-10.37H86.82l2.52-17h12.23v-10.4H90.84l3.66-24.94H84l-3.66 24.94h-8L76 313.88H65.54l-3.66 24.94H49.11v10.43h11.27l-2.52 17H45.39v10.37h11l-3.6 24.58h10.47l3.54-24.58h8zm-.42-51.92h8l-2.52 17h-8zM146 313a36 36 0 0 0-16.19 3.51 33.5 33.5 0 0 0-11.9 9.83 45.09 45.09 0 0 0-7.34 15.14 70.56 70.56 0 0 0-2.57 19.4v6.71a51.48 51.48 0 0 0 1.83 14.15 33.66 33.66 0 0 0 5.25 11 24 24 0 0 0 8.27 7.1 23.35 23.35 0 0 0 10.91 2.52 23.48 23.48 0 0 0 18.59-8.63 29.09 29.09 0 0 0 5.1-9.5 37.79 37.79 0 0 0 1.8-11.84 49.18 49.18 0 0 0-1.29-11.45 30.29 30.29 0 0 0-3.9-9.44 20.14 20.14 0 0 0-6.51-6.42 17.21 17.21 0 0 0-9.11-2.37 17.44 17.44 0 0 0-7.67 1.65 18.5 18.5 0 0 0-5.94 4.53 32.6 32.6 0 0 1 2.31-9 21.89 21.89 0 0 1 4.44-6.77 18.11 18.11 0 0 1 6.56-4.26 24.36 24.36 0 0 1 8.75-1.47h.84V313zm-8.54 44.94a10 10 0 0 1 2.94 3.27 17.59 17.59 0 0 1 1.89 5 28.9 28.9 0 0 1 .66 6.39 29.47 29.47 0 0 1-.63 6.3 18.17 18.17 0 0 1-1.8 5 9.55 9.55 0 0 1-2.85 3.27 6.36 6.36 0 0 1-3.72 1.17q-4 0-6.48-4.56T125 369.94v-6.12a12.58 12.58 0 0 1 3.27-5 7.66 7.66 0 0 1 5.43-2 6.5 6.5 0 0 1 3.74 1.1zm73.98-44.06h-17l-29.62 57.44.78 11h28.9v18.89h17v-18.92h7.43V368.2h-7.43zm-17.33 25.78l.36-.66v29.2h-13.19z"/></g></svg>