<svg xmlns="http://www.w3.org/2000/svg" width="1466" height="409" viewBox="0 0 1466 409"><pattern id="diagonal-texture" patternUnits="userSpaceOnUse" width="6" height="6"><style>.diagonal-1{fill:#242424}</style><path d="M0 0h6v6H0z"/><path class="diagonal-1" d="M5 0h1v1H5zM4 1h1v1H4zM3 2h1v1H3zM2 3h1v1H2zM1 4h1v1H1zM0 5h1v1H0zM4.5.5H5V1h-.5zM5 1h.5v.5H5zM4 2h.5v.5H4zm-.5-.5H4V2h-.5zm-1 1H3V3h-.5zM3 3h.5v.5H3zM2 4h.5v.5H2zM1 5h.5v.5H1zM0 0h.5v.5H0z"/>/&gt;<path class="diagonal-1" d="M5.5 5.5H6V6h-.5zm-4-2H2V4h-.5zm-1 1H1V5H.5z"/></pattern><path d="M105.59 11.226H42.041v303.647h63.549zM310.96 44.41C284.065 18.383 255.219 6.888 220.3 6.888c-58.127 0-96.083 37.522-96.083 90.01 0 39.691 20.171 75.478 73.96 94.564l18.436 6.724c19.954 7.157 28.413 18.219 28.413 32.317 0 17.134-13.23 28.413-32.317 28.413-23.641 0-40.342-12.146-52.921-27.328l-42.944 42.727c21.689 27.111 53.572 45.113 96.733 45.113 56.608 0 98.468-34.7 98.468-93.7 0-41.643-21.906-71.357-70.056-89.359l-16.917-6.29c-22.773-8.459-34.7-19.086-34.7-35.136 0-17.351 13.013-27.545 31.232-27.545 20.6 0 37.522 8.893 50.1 21.906zm145.268-33.184h-73.309l-80.9 303.647H367.3l14.315-62.465h75.044l14.532 62.465h65.935zM419.14 89.957l24.292 104.758h-48.367zm119.45-78.731v303.647h96.083c62.681 0 97.6-31.666 97.6-86.973 0-31.232-16.05-54.873-40.125-67.453 21.255-12.58 35.136-33.618 35.136-63.115 0-54.44-37.088-86.106-97.384-86.106zm94.781 178.067c19.52 0 33.618 10.411 33.618 34.919 0 24.292-14.315 34.7-33.618 34.7h-31.232v-69.619zm-3.9-122.11c18.436 0 32.317 10.194 32.317 33.618 0 23.207-13.881 33.4-32.534 33.4h-27.115V67.184zM906.168 257.18H806.4v-66.8h93.7v-57.695h-93.7V68.919h100.635V11.226H742.849v303.647h163.319zm179.97-.867H985.067V11.226h-63.549v303.647h164.62zm169.128 0h-101.071V11.226h-63.549v303.647h164.62zm167.826.867h-99.77v-66.8h93.7v-57.695h-93.7V68.919h100.638V11.226h-164.187v303.647h163.319z" fill="url(#diagonal-texture)"/></svg>