<svg xmlns="http://www.w3.org/2000/svg" width="1466" height="259" viewBox="0 0 1466 259"><pattern id="diagonal-texture" patternUnits="userSpaceOnUse" width="6" height="6"><style>.diagonal-1{fill:#242424}</style><path d="M0 0h6v6H0z"/><path class="diagonal-1" d="M5 0h1v1H5zM4 1h1v1H4zM3 2h1v1H3zM2 3h1v1H2zM1 4h1v1H1zM0 5h1v1H0zM4.5.5H5V1h-.5zM5 1h.5v.5H5zM4 2h.5v.5H4zm-.5-.5H4V2h-.5zm-1 1H3V3h-.5zM3 3h.5v.5H3zM2 4h.5v.5H2zM1 5h.5v.5H1zM0 0h.5v.5H0z"/>/&gt;<path class="diagonal-1" d="M5.5 5.5H6V6h-.5zm-4-2H2V4h-.5zm-1 1H1V5H.5z"/></pattern><path d="M112.881 171.263c0 21.033-8.582 29.614-22.547 29.614a31.815 31.815 0 0 1-22.211-9.086l-22.378 38.364c10.432 10.937 28.6 19.013 50.31 19.013 39.541 0 66.126-24.9 66.126-73.193V10.07h-49.3zm62.455 74.372h49.3V10.07h-49.3zm144.213-131.917v41.729h35c-3.365 33.82-15.48 46.44-34.157 46.44-20.7 0-35.839-19.855-35.839-74.035 0-52.329 13.124-73.53 35.166-73.53 13.629 0 22.715 6.731 29.446 20.528l39.373-23.556C376.421 22.521 353.2 6.536 320.9 6.536c-54.348 0-86.991 42.234-86.991 121.316 0 80.429 33.989 121.316 87.327 121.316 43.748 0 80.765-34.83 80.765-111.052 0-9.254-.336-18-1.009-24.4zm171 0v41.729h35c-3.365 33.82-15.48 46.44-34.157 46.44-20.7 0-35.84-19.855-35.84-74.035 0-52.329 13.125-73.53 35.167-73.53 13.629 0 22.715 6.731 29.445 20.528l39.373-23.556C547.421 22.521 524.2 6.536 491.9 6.536c-54.348 0-86.991 42.234-86.991 121.316 0 80.429 33.989 121.316 87.327 121.316 43.748 0 80.765-34.83 80.765-111.052 0-9.254-.336-18-1.009-24.4zM629.747 10.07h-49.3v235.565h127.71V200.2h-78.41zm124.539 85.813L719.793 10.07H664.6l64.949 145.714v89.851h49.3v-91.029L842.287 10.07H788.78zM913.17 10.07h-69.828v235.565h49.3v-83.121h20.865c46.944 0 76.39-29.277 76.39-75.549.003-47.449-29.446-76.895-76.727-76.895zM913 118.43h-20.36v-63.1H913c14.639 0 26.585 10.264 26.585 31.633.002 21.203-11.944 31.467-26.585 31.467zm188.491 50.31c0 21.873-10.937 32.137-28.436 32.137s-28.436-10.264-28.436-32.137V10.07h-49.467V171.1c0 46.608 26.754 78.073 77.9 78.073s77.9-31.465 77.9-78.073V10.07h-49.468zm180.756-62.93h-69.323V54.827h75.38V10.07h-124.679v235.565h49.3v-95.068h69.323zm64.145 139.746v-94.989h69.324V105.81h-69.324V54.827h75.381V10.07h-124.686v235.565l49.305-.079" fill="url(#diagonal-texture)"/></svg>