<svg id="レイヤー_1" data-name="レイヤー 1" xmlns="http://www.w3.org/2000/svg" viewBox="0 0 1466 364"><pattern id="diagonal-texture" patternUnits="userSpaceOnUse" width="6" height="6"><style>.diagonal-1{fill:#242424}</style><path d="M0 0h6v6H0z"/><path class="diagonal-1" d="M5 0h1v1H5zM4 1h1v1H4zM3 2h1v1H3zM2 3h1v1H2zM1 4h1v1H1zM0 5h1v1H0zM4.5.5H5V1h-.5zM5 1h.5v.5H5zM4 2h.5v.5H4zm-.5-.5H4V2h-.5zm-1 1H3V3h-.5zM3 3h.5v.5H3zM2 4h.5v.5H2zM1 5h.5v.5H1zM0 0h.5v.5H0z"/>/&gt;<path class="diagonal-1" d="M5.5 5.5H6V6h-.5zm-4-2H2V4h-.5zm-1 1H1V5H.5z"/></pattern><path d="M294 4c-69.17 0-110.4 57.13-110.4 159S224.72 322 294 322c69 0 110.4-57.13 110.4-159S363 4 294 4zm-.27 254.85c-28.65 0-45.45-30.45-45.45-95.94S265 67 293.71 67s45.46 30.45 45.46 95.94-16.8 95.91-45.46 95.91zm-188.3-38.99c0 27.49-10.87 38.81-28.66 38.81a39.83 39.83 0 0 1-28.2-11.86L20 297c13.29 14.28 36.47 24.88 64.05 24.88 50.39 0 84.17-32.7 84.17-95.94V8.58h-62.79zm534.85 97.47h161.43v-58.66h-98.64v-67.91h92.62V132.1h-92.62V67.24h99.44V8.58H640.28v308.75zm310-123.25c36.93-12.57 58.48-44.11 58.48-87.67 0-60.64-37.28-97.74-97.73-97.74H821.2v308.66H884V199.74h3.59l55.07 117.5H1014zm-38.8-49.23h-27.4V68h27.4c18.41 0 33.24 12.13 33.24 38.36 0 26.37-14.65 38.49-33.24 38.49zM629.32 8.58h-72.4l-60.01 123.7h-13.92V8.58h-62.8v308.66h62.8V191.21h13.02l64.68 126.12h74.38L550 159.23 629.32 8.58z" fill="url(#diagonal-texture)"/></svg>