<svg id="レイヤー_1" data-name="レイヤー 1" xmlns="http://www.w3.org/2000/svg" viewBox="0 0 1466 640"><pattern id="diagonal-texture" patternUnits="userSpaceOnUse" width="6" height="6"><style>.diagonal-1{fill:#242424}</style><path d="M0 0h6v6H0z"/><path class="diagonal-1" d="M5 0h1v1H5zM4 1h1v1H4zM3 2h1v1H3zM2 3h1v1H2zM1 4h1v1H1zM0 5h1v1H0zM4.5.5H5V1h-.5zM5 1h.5v.5H5zM4 2h.5v.5H4zm-.5-.5H4V2h-.5zm-1 1H3V3h-.5zM3 3h.5v.5H3zM2 4h.5v.5H2zM1 5h.5v.5H1zM0 0h.5v.5H0z"/>/&gt;<path class="diagonal-1" d="M5.5 5.5H6V6h-.5zm-4-2H2V4h-.5zm-1 1H1V5H.5z"/></pattern><path d="M292.63 194.1l67.29 127.44h77.31l-88.45-159.75L431.21 9.62h-75.3l-62.38 125H279v-125h-65.24v308H212v311.95h94c77.31 0 119.87-61 119.87-156 0-95.14-42.55-156-119.87-156h-27V194.1zm11.83 183.7c38.54 0 53.92 36.09 53.92 95.8 0 59.27-15.37 95.8-53.92 95.8h-27.18V377.8zm668.63-198.63c0-12.25-.45-23.84-1.34-32.31H863.92v55.25h46.34c-4.46 44.78-20.5 61.49-45.23 61.49-27.4 0-47.46-26.29-47.46-98 0-69.29 17.38-97.36 46.57-97.36 18 0 30.08 8.91 39 27.18l52.14-31.19c-16-38.1-46.79-59.27-89.57-59.27-72 0-115.19 55.92-115.19 160.64 0 96.91 37.27 150.46 97.21 159.32v304.65h167.77V570.3H913v-68.62h96.25v-59.26H913v-65.5h103.38v-59.27H906.82c38.47-17.56 66.27-62.47 66.27-138.48zM738.15 319.51V9.62h-64.39v182.47l-88-182.47h-63.95v308h-18.3v-308h-65.28v308H438v311.95h167.79V570.3H503.3v-68.62h96.25v-59.26H503.3v-65.5h103.38v-59.27H586V139.74l86.34 177.91h-50.65v311.92h94c77.31 0 119.87-61 119.87-156 .02-85.45-34.35-143.22-97.41-154.06zm-24 249.91H687V377.8h27.18c38.54 0 53.92 36.09 53.92 95.8-.03 59.27-15.4 95.81-53.94 95.81zm411.25-251.77h-94v311.92h94c77.31 0 119.87-61 119.87-156 0-95.1-42.55-155.92-119.86-155.92zm-1.56 251.77h-27.18V377.8h27.18c38.54 0 53.92 36.09 53.92 95.8.01 59.27-15.37 95.81-53.91 95.81zm302.22-192.5v-59.27h-168.65v311.92h167.77V570.3h-102.49v-68.62h96.25v-59.26h-96.25v-65.5z" fill="url(#diagonal-texture)"/></svg>