<svg id="レイヤー_1" data-name="レイヤー 1" xmlns="http://www.w3.org/2000/svg" viewBox="0 0 1466 618"><pattern id="diagonal-texture" patternUnits="userSpaceOnUse" width="6" height="6"><style>.diagonal-1{fill:#242424}</style><path d="M0 0h6v6H0z"/><path class="diagonal-1" d="M5 0h1v1H5zM4 1h1v1H4zM3 2h1v1H3zM2 3h1v1H2zM1 4h1v1H1zM0 5h1v1H0zM4.5.5H5V1h-.5zM5 1h.5v.5H5zM4 2h.5v.5H4zm-.5-.5H4V2h-.5zm-1 1H3V3h-.5zM3 3h.5v.5H3zM2 4h.5v.5H2zM1 5h.5v.5H1zM0 0h.5v.5H0z"/>/&gt;<path class="diagonal-1" d="M5.5 5.5H6V6h-.5zm-4-2H2V4h-.5zm-1 1H1V5H.5z"/></pattern><g fill="url(#diagonal-texture)"><path d="M409.781 609h74.268l-84.97-153.458 79.191-146.178h-72.342L346 429.434h-13.912v-120.07h-62.71V609h62.71V486.58h13.056z"/><path d="M521.054 539.017a37.242 37.242 0 1 0 0 74.482 37.242 37.242 0 0 0 0-74.482zm102.718-229.653V609h62.711V494.927h3.638L745.126 609H816.4l-63.783-119.637c36.813-12.2 58.43-42.806 58.43-85.184 0-58.858-37.241-94.815-97.6-94.815zm90.106 57.574c18.407 0 33.175 11.772 33.175 37.241 0 25.684-14.554 37.455-33.175 37.455h-27.4v-74.7zM925.75 304.87c-69.131 0-110.225 55.433-110.225 154.314S856.619 613.5 925.75 613.5c68.917 0 110.225-55.433 110.225-154.315S994.667 304.87 925.75 304.87zm-.214 61.212c28.68 0 45.374 29.536 45.374 93.1s-16.694 93.1-45.374 93.1-45.374-29.536-45.374-93.1 16.694-93.1 45.374-93.1zm228.214-61.212c-69.131 0-110.225 55.433-110.225 154.314S1084.619 613.5 1153.75 613.5c68.917 0 110.225-55.433 110.225-154.315S1222.667 304.87 1153.75 304.87zm-.214 61.212c28.68 0 45.374 29.536 45.374 93.1s-16.694 93.1-45.374 93.1-45.374-29.536-45.374-93.1 16.694-93.1 45.374-93.1zm280.352 185.135h-99.738V309.364h-62.71V609h162.448z"/><path d="M836.812 309.366h74.268l-84.969-153.459L905.3 9.726h-72.341L773.031 129.8H759.12V9.726h-62.711v299.64h62.711V186.941h13.055zM974.631 9.726h-62.71v299.64h62.71zm225.362 0h-61.854v175.289L1053.6 9.726h-61.428v299.64h61.64V134.718l84.755 174.648h61.426zM1322.4 5.231c-69.131 0-110.653 53.721-110.653 154.315 0 102.305 43.234 154.314 111.081 154.314 55.648 0 102.734-44.3 102.734-141.259 0-11.771-.428-22.9-1.284-31.034h-103.59v53.079h44.518c-4.281 43.02-19.691 59.072-43.448 59.072-26.326 0-45.588-25.255-45.588-94.172 0-66.563 16.694-93.531 44.732-93.531 17.336 0 28.894 8.561 37.455 26.112l50.083-29.964c-15.41-36.599-44.946-56.932-86.04-56.932z"/></g></svg>