<svg xmlns="http://www.w3.org/2000/svg" width="1466" height="320" viewBox="0 0 1466 320"><pattern id="diagonal-texture" patternUnits="userSpaceOnUse" width="6" height="6"><style>.diagonal-1{fill:#242424}</style><path d="M0 0h6v6H0z"/><path class="diagonal-1" d="M5 0h1v1H5zM4 1h1v1H4zM3 2h1v1H3zM2 3h1v1H2zM1 4h1v1H1zM0 5h1v1H0zM4.5.5H5V1h-.5zM5 1h.5v.5H5zM4 2h.5v.5H4zm-.5-.5H4V2h-.5zm-1 1H3V3h-.5zM3 3h.5v.5H3zM2 4h.5v.5H2zM1 5h.5v.5H1zM0 0h.5v.5H0z"/>/&gt;<path class="diagonal-1" d="M5.5 5.5H6V6h-.5zm-4-2H2V4h-.5zm-1 1H1V5H.5z"/></pattern><path d="M686.438 309.881h74.241l-84.939-153.4L754.9 10.349h-72.313l-59.906 120.027h-13.907V10.349h-62.688v299.532h62.688V187.5h13.051zM824.323 10.349h-62.688v299.532h62.688zm17.577 0v299.532h62.688V195.845h3.637l54.985 114.036h71.246L970.7 190.283c36.8-12.2 58.409-42.79 58.409-85.153 0-58.837-37.228-94.78-97.562-94.78zM931.973 67.9c18.4 0 33.162 11.767 33.162 37.228 0 25.674-14.549 37.442-33.162 37.442h-27.385V67.9zm108.348-57.551v299.532h94.78c61.832 0 96.278-31.237 96.278-85.794 0-30.809-15.832-54.13-39.581-66.539 20.967-12.409 34.66-33.162 34.66-62.26 0-53.7-36.586-84.939-96.064-84.939zM1133.818 186c19.256 0 33.163 10.27 33.163 34.446 0 23.963-14.121 34.232-33.163 34.232h-30.809V186zm-3.851-120.454c18.186 0 31.879 10.056 31.879 33.162 0 22.893-13.693 32.948-32.093 32.948h-26.744V65.549zm309.676-55.197h-68.037l-43.86 109.115-43.86-109.115h-70.176l82.59 185.282v114.25h62.688V194.134z" fill="url(#diagonal-texture)"/></svg>