<svg xmlns="http://www.w3.org/2000/svg" width="1466" height="414" viewBox="0 0 1466 414"><pattern id="diagonal-texture" patternUnits="userSpaceOnUse" width="6" height="6"><style>.diagonal-1{fill:#242424}</style><path d="M0 0h6v6H0z"/><path class="diagonal-1" d="M5 0h1v1H5zM4 1h1v1H4zM3 2h1v1H3zM2 3h1v1H2zM1 4h1v1H1zM0 5h1v1H0zM4.5.5H5V1h-.5zM5 1h.5v.5H5zM4 2h.5v.5H4zm-.5-.5H4V2h-.5zm-1 1H3V3h-.5zM3 3h.5v.5H3zM2 4h.5v.5H2zM1 5h.5v.5H1zM0 0h.5v.5H0z"/>/&gt;<path class="diagonal-1" d="M5.5 5.5H6V6h-.5zm-4-2H2V4h-.5zm-1 1H1V5H.5z"/></pattern><path d="M110.137 9.959H45.692v307.929h14.832L57.38 339.33H44.609v10.432h11.272l-2.518 16.967H40.892V377.1h10.972l-3.6 24.581h10.495L62.3 377.1h8.03l-3.6 24.581h10.495l3.6-24.581h12.408v-10.371H82.321l2.518-16.967H97.07V339.33H86.338l3.144-21.442h24.766a22.367 22.367 0 0 0-3.883 4.085 33.683 33.683 0 0 0-5.216 11.571 66.567 66.567 0 0 0-1.859 16.817v15.229a65.832 65.832 0 0 0 1.889 16.877 34.074 34.074 0 0 0 5.246 11.571 20.814 20.814 0 0 0 8.034 6.685 25.357 25.357 0 0 0 20.474 0 20.886 20.886 0 0 0 8-6.685 33.7 33.7 0 0 0 5.216-11.571 66.879 66.879 0 0 0 1.859-16.877v-15.228a65.571 65.571 0 0 0-1.889-16.817 34.108 34.108 0 0 0-5.246-11.571 22.239 22.239 0 0 0-3.892-4.085h27.691a21.433 21.433 0 0 0-7.446 9.3 24.293 24.293 0 0 0-1.919 9.8h16.967a11.778 11.778 0 0 1 .659-4.077 9.855 9.855 0 0 1 1.739-3.058 7.221 7.221 0 0 1 2.548-1.919 7.856 7.856 0 0 1 6.685.18 7.612 7.612 0 0 1 2.608 2.308 10.285 10.285 0 0 1 1.559 3.477 17.936 17.936 0 0 1 .51 4.407 15.451 15.451 0 0 1-2.188 8.723q-2.189 3.268-6.865 3.268h-8.209v13.67h8.214A9.429 9.429 0 0 1 193 367q2.667 3.028 2.668 9.923a16.91 16.91 0 0 1-.659 4.886 11.215 11.215 0 0 1-1.889 3.747 8.376 8.376 0 0 1-2.968 2.4 8.986 8.986 0 0 1-3.957.839 7.381 7.381 0 0 1-3.507-.839 8.356 8.356 0 0 1-2.728-2.308 11.42 11.42 0 0 1-1.8-3.477 14.037 14.037 0 0 1-.66-4.407h-16.967a26.638 26.638 0 0 0 2.158 11.182 23.275 23.275 0 0 0 5.666 7.824 22.679 22.679 0 0 0 8.034 4.616 29.482 29.482 0 0 0 9.323 1.5 32.114 32.114 0 0 0 10.612-1.709 24.414 24.414 0 0 0 8.513-4.976 23.05 23.05 0 0 0 5.666-8.064 27.314 27.314 0 0 0 2.068-10.912 24.638 24.638 0 0 0-3.028-12.471 18.682 18.682 0 0 0-9.2-7.914 20 20 0 0 0 4.766-3.507 22.749 22.749 0 0 0 3.507-4.5 21.029 21.029 0 0 0 2.938-10.762 28.428 28.428 0 0 0-1.889-10.762 21.542 21.542 0 0 0-5.276-7.794 20.766 20.766 0 0 0-2.008-1.627h10.252V258.5h-102.5zm26.848 357.969a70.987 70.987 0 0 1-.57 9.8 25.225 25.225 0 0 1-1.649 6.445 8.253 8.253 0 0 1-2.608 3.537 5.835 5.835 0 0 1-3.447 1.079 6.065 6.065 0 0 1-3.537-1.079 8.32 8.32 0 0 1-2.668-3.537 24.932 24.932 0 0 1-1.709-6.445 67.4 67.4 0 0 1-.6-9.8V347.9a65.641 65.641 0 0 1 .6-9.683 25.351 25.351 0 0 1 1.679-6.355 8.146 8.146 0 0 1 2.638-3.507 6.142 6.142 0 0 1 6.955 0 8.152 8.152 0 0 1 2.638 3.507 25.384 25.384 0 0 1 1.679 6.355 65.776 65.776 0 0 1 .6 9.683zm-65.156-1.2H63.8l2.518-16.967h8.034zm4.017-27.4h-8.034l3.144-21.442h8.034zM217.287 9.959h64.445v307.928h-64.445zm232.5 180.138L362.907 9.959h-63.125v307.929h63.345V138.409l87.1 179.479h63.125V9.959h-63.565v180.138zm214.94-29.913L746.108 9.959h-74.342L610.18 133.351h-14.297V9.959h-64.445v307.929h64.445V192.077H609.3l66.425 125.811h76.322l-87.32-157.704z" fill="url(#diagonal-texture)"/></svg>