<svg id="レイヤー_1" data-name="レイヤー 1" xmlns="http://www.w3.org/2000/svg" viewBox="0 0 1466 590"><pattern id="diagonal-texture" patternUnits="userSpaceOnUse" width="6" height="6"><style>.diagonal-1{fill:#242424}</style><path d="M0 0h6v6H0z"/><path class="diagonal-1" d="M5 0h1v1H5zM4 1h1v1H4zM3 2h1v1H3zM2 3h1v1H2zM1 4h1v1H1zM0 5h1v1H0zM4.5.5H5V1h-.5zM5 1h.5v.5H5zM4 2h.5v.5H4zm-.5-.5H4V2h-.5zm-1 1H3V3h-.5zM3 3h.5v.5H3zM2 4h.5v.5H2zM1 5h.5v.5H1zM0 0h.5v.5H0z"/>/&gt;<path class="diagonal-1" d="M5.5 5.5H6V6h-.5zm-4-2H2V4h-.5zm-1 1H1V5H.5z"/></pattern><g fill="url(#diagonal-texture)"><path class="cls-1" d="M65.94 576.68h10.5L80 552.1h12.44v-10.37H81.53l2.52-17h12.23v-10.4H85.55l3.66-24.94h-10.5l-3.66 24.94H67l3.66-24.94H60.25l-3.66 24.94H43.82v10.43h11.27l-2.52 17H40.1v10.34h11l-3.6 24.58H58l3.54-24.58h8zm-.42-51.92h8l-2.52 17h-8zm81.71-35.37h-17l-29.62 57.44.78 11h28.9v18.89h17V557.8h7.43v-14.09h-7.43zm-17.33 25.78l.36-.66v29.2h-13.19zM172.21 563v14.63h1.08A38.67 38.67 0 0 0 190 574.2a32.16 32.16 0 0 0 12-9.65 43.16 43.16 0 0 0 7.19-15 74.31 74.31 0 0 0 2.4-19.58v-6.17a54.37 54.37 0 0 0-1.83-14.6 36.22 36.22 0 0 0-5.17-11.2 23.44 23.44 0 0 0-8-7.22 21.2 21.2 0 0 0-10.31-2.55 22.08 22.08 0 0 0-10.43 2.46 24.29 24.29 0 0 0-7.94 6.65 30.93 30.93 0 0 0-5 9.8 39.53 39.53 0 0 0-1.77 12 47.1 47.1 0 0 0 1.38 11.69 29 29 0 0 0 4.08 9.32 19.51 19.51 0 0 0 6.71 6.15 18.78 18.78 0 0 0 9.23 2.22 14 14 0 0 0 6.36-1.5 20.26 20.26 0 0 0 5.46-4q-1 9.83-6.09 14.93T173.11 563zm10.67-29.11a9.62 9.62 0 0 1-2.76-3.51 19.26 19.26 0 0 1-1.59-5.16 36.8 36.8 0 0 1-.51-6.3 34.81 34.81 0 0 1 .54-6.18 23.37 23.37 0 0 1 1.56-5.31 11 11 0 0 1 2.55-3.72 5 5 0 0 1 3.51-1.41 5.3 5.3 0 0 1 3.21 1.14 9.66 9.66 0 0 1 2.7 3.42 21.48 21.48 0 0 1 1.83 5.73 43.42 43.42 0 0 1 .66 8.06v7.79a14.17 14.17 0 0 1-3.18 4.8 6.52 6.52 0 0 1-8.51.63z"/><path class="cls-1" d="M251.44 250.47h-68.53l-35.13 116.22-35.3-116.22H44v241.05h49.89v-166l29.79 104h48L201.5 325.2v166.32h49.93zm123.46 0h-58.2l-64.22 241.05h51.83l11.36-49.59h59.57l11.54 49.59h52.34zM345.46 313l19.28 83.16h-38.4zm169.27-66.15c-54.41 0-87.47 44.08-87.47 124.14s33.06 124.14 87.47 124.14c35.12 0 60.61-19.11 73.35-52.69l-42.18-21.69c-7.06 17-17 25.14-31 25.14-20.83 0-35.47-22.21-35.47-74.9 0-51.31 13.43-74.9 35.47-74.9 13.95 0 23.93 8.26 30.48 25.14l43.56-20c-12.23-34.92-39.09-54.38-74.21-54.38z"/><path class="cls-1" d="M166.36 208.33H85V11.13H33.91v244.31h132.45zm54.8-197.2H170v244.31h51.13zm154.61 0H224.82v47.12h49.91v197.19h51.13V58.25h49.91zm155.49 0H380.31v47.12h49.91v197.19h51.13V58.25h49.91zm136.12 197.2h-81.32V11.13h-51.13v244.31h132.45zm135.08.67h-80.28v-53.72h75.39v-46.42h-75.39V57.55h81V11.13H671.05v244.31h131.4z"/></g></svg>