<svg id="レイヤー_1" data-name="レイヤー 1" xmlns="http://www.w3.org/2000/svg" viewBox="0 0 1466 412"><pattern id="diagonal-texture" patternUnits="userSpaceOnUse" width="6" height="6"><style>.diagonal-1{fill:#242424}</style><path d="M0 0h6v6H0z"/><path class="diagonal-1" d="M5 0h1v1H5zM4 1h1v1H4zM3 2h1v1H3zM2 3h1v1H2zM1 4h1v1H1zM0 5h1v1H0zM4.5.5H5V1h-.5zM5 1h.5v.5H5zM4 2h.5v.5H4zm-.5-.5H4V2h-.5zm-1 1H3V3h-.5zM3 3h.5v.5H3zM2 4h.5v.5H2zM1 5h.5v.5H1zM0 0h.5v.5H0z"/>/&gt;<path class="diagonal-1" d="M5.5 5.5H6V6h-.5zm-4-2H2V4h-.5zm-1 1H1V5H.5z"/></pattern><g fill="url(#diagonal-texture)"><path class="cls-1" d="M71.73 401.67h10.5l3.6-24.58h12.4v-10.37H87.32l2.52-17h12.23v-10.4H91.34L95 314.38H84.5l-3.66 24.94h-8l3.66-24.94H66l-3.66 24.94H49.61v10.43h11.27l-2.52 17H45.89v10.37h11l-3.6 24.58h10.47l3.54-24.58h8zm-.42-51.92h8l-2.52 17h-8zM153 314.38h-17l-29.62 57.44.78 11H136v18.89h17v-18.92h7.43V368.7H153zm-17.33 25.78l.36-.66v29.2h-13.17zm65.95-25.9h-1.8l-31.84 13v14.15l16.61-6.41v66.67h17z"/><path class="cls-1" d="M208.48 257.11h-99.7V15.35H46.09v299.53h162.39zM421.87 15.35H359v201.76c0 27.81-13.91 40.86-36.16 40.86s-36.16-13.05-36.16-40.86V15.35h-62.9V220.1c0 59.26 34 99.27 99.06 99.27s99.06-40 99.06-99.27zm134.03-4.49c-67.61 0-108.69 54.77-108.69 154.26s41.08 154.25 108.69 154.25c43.65 0 75.31-23.75 91.14-65.47l-52.42-27c-8.77 21.18-21.18 31.24-38.51 31.24-25.89 0-44.07-27.6-44.07-93.07C512 101.36 528.73 72 556.12 72c17.33 0 29.74 10.27 37.87 31.24l54.13-24.82C632.93 35 599.55 10.86 555.9 10.86zm247.21 4.49H730.8L651 314.88h64.4l14.12-61.62h74l14.33 61.62h65zM766.53 93l24 103.34h-47.75zM899.5 15.35v299.53h62.69v-114h3.64l55 114h71.25l-63.76-119.6c36.8-12.2 58.41-42.79 58.41-85.15 0-58.84-37.23-94.78-97.56-94.78zm90.07 57.55c18.4 0 33.16 11.77 33.16 37.23 0 25.67-14.55 37.44-33.16 37.44h-27.38V72.9zm186.02-57.55h-62.69v299.53h62.69zm136.97-4.49c-69.11 0-110.18 55.41-110.18 154.26s41.08 154.26 110.18 154.26c68.89 0 110.18-55.41 110.18-154.26s-41.29-154.26-110.18-154.26zm-.21 61.14c28.67 0 45.36 29.53 45.36 93.07s-16.69 93.07-45.36 93.07-45.35-29.48-45.35-93.02S1283.68 72 1312.35 72z"/></g></svg>