<svg id="レイヤー_1" data-name="レイヤー 1" xmlns="http://www.w3.org/2000/svg" viewBox="0 0 1466 406"><pattern id="diagonal-texture" patternUnits="userSpaceOnUse" width="6" height="6"><style>.diagonal-1{fill:#242424}</style><path d="M0 0h6v6H0z"/><path class="diagonal-1" d="M5 0h1v1H5zM4 1h1v1H4zM3 2h1v1H3zM2 3h1v1H2zM1 4h1v1H1zM0 5h1v1H0zM4.5.5H5V1h-.5zM5 1h.5v.5H5zM4 2h.5v.5H4zm-.5-.5H4V2h-.5zm-1 1H3V3h-.5zM3 3h.5v.5H3zM2 4h.5v.5H2zM1 5h.5v.5H1zM0 0h.5v.5H0z"/>/&gt;<path class="diagonal-1" d="M5.5 5.5H6V6h-.5zm-4-2H2V4h-.5zm-1 1H1V5H.5z"/></pattern><g fill="url(#diagonal-texture)"><path class="cls-1" d="M69.73 394.67h10.49l3.6-24.58h12.41v-10.37H85.32l2.52-17h12.23v-10.4H89.34L93 307.38H82.5l-3.66 24.94h-8l3.66-24.94H64l-3.66 24.94H47.61v10.43h11.27l-2.52 17H43.89v10.37h11l-3.6 24.58h10.47l3.54-24.58h8zm-.42-51.92h8l-2.52 17h-8zM121.4 357h8.21a9.43 9.43 0 0 1 7.46 3q2.67 3 2.67 9.92a16.91 16.91 0 0 1-.66 4.89 11.21 11.21 0 0 1-1.89 3.75 8.38 8.38 0 0 1-3 2.4 9 9 0 0 1-4 .84 7.38 7.38 0 0 1-3.51-.84 8.36 8.36 0 0 1-2.73-2.31 11.42 11.42 0 0 1-1.8-3.48 14 14 0 0 1-.66-4.41h-17a26.64 26.64 0 0 0 2.16 11.18 23.27 23.27 0 0 0 5.67 7.82 22.68 22.68 0 0 0 8 4.62 29.48 29.48 0 0 0 9.32 1.5 32.11 32.11 0 0 0 10.61-1.71 24.41 24.41 0 0 0 8.51-5 23 23 0 0 0 5.67-8.06 27.31 27.31 0 0 0 2.07-10.91 24.64 24.64 0 0 0-3-12.47 18.68 18.68 0 0 0-9.2-7.91 20 20 0 0 0 4.77-3.51 22.75 22.75 0 0 0 3.51-4.5 21 21 0 0 0 2.94-10.76 28.43 28.43 0 0 0-1.89-10.76 21.54 21.54 0 0 0-5.28-7.79 22.08 22.08 0 0 0-8.12-4.74 32.66 32.66 0 0 0-10.43-1.59 26.7 26.7 0 0 0-9.62 1.71 23.51 23.51 0 0 0-7.76 4.8 22.34 22.34 0 0 0-5.22 7.49 24.29 24.29 0 0 0-1.92 9.8h17a11.77 11.77 0 0 1 .66-4.08 9.85 9.85 0 0 1 1.74-3.06 7.22 7.22 0 0 1 2.55-1.92 7.86 7.86 0 0 1 6.68.18 7.61 7.61 0 0 1 2.61 2.31 10.29 10.29 0 0 1 1.56 3.48 17.94 17.94 0 0 1 .51 4.41 15.45 15.45 0 0 1-2.19 8.72q-2.19 3.27-6.86 3.27h-8.14zm95.01-49.62h-52.82v14.09h35l-27.7 73.2h17.93l27.58-77.52z"/><path class="cls-1" d="M198.13 254.5H99.31V14.88H37.18v296.87h160.95zM394.66 14.88h-62.34v200c0 27.57-13.78 40.5-35.84 40.5s-35.84-12.94-35.84-40.5v-200H198.3v202.93c0 58.74 33.72 98.39 98.18 98.39s98.18-39.65 98.18-98.39zm117.85-4.46c-67 0-107.72 54.29-107.72 152.89s40.71 152.9 107.72 152.9c43.26 0 74.64-23.54 90.33-64.89l-52-26.72c-8.69 21-21 31-38.17 31-25.66 0-43.68-27.35-43.68-92.24 0-63.19 16.54-92.24 43.68-92.24 17.18 0 29.48 10.18 37.53 31l53.65-24.6c-15-43.13-48.08-67.1-91.34-67.1zm230.03 4.46h-71.67l-79.1 296.88h63.83l14-61.07H743l14.21 61.07h64.46zm-36.26 77L730 194.28h-47.26zm296.62-44.56c-26.29-25.45-54.5-36.69-88.64-36.69-56.83 0-93.94 36.69-93.94 88 0 38.81 19.72 73.79 72.31 92.46l18 6.57c19.51 7 27.78 17.81 27.78 31.6 0 16.75-12.94 27.78-31.6 27.78-23.11 0-39.44-11.87-51.74-26.72l-42 41.77c21.21 26.51 52.38 44.11 94.58 44.11 55.35 0 96.27-33.93 96.27-91.61 0-40.71-21.42-69.77-68.49-87.37l-16.54-6.15C896.66 122.81 885 112.42 885 96.73c0-17 12.72-26.93 30.54-26.93 20.15 0 36.69 8.69 49 21.42z"/></g></svg>