<svg xmlns="http://www.w3.org/2000/svg" width="1466" height="304" viewBox="0 0 1466 304"><pattern id="diagonal-texture" patternUnits="userSpaceOnUse" width="6" height="6"><style>.diagonal-1{fill:#242424}</style><path d="M0 0h6v6H0z"/><path class="diagonal-1" d="M5 0h1v1H5zM4 1h1v1H4zM3 2h1v1H3zM2 3h1v1H2zM1 4h1v1H1zM0 5h1v1H0zM4.5.5H5V1h-.5zM5 1h.5v.5H5zM4 2h.5v.5H4zm-.5-.5H4V2h-.5zm-1 1H3V3h-.5zM3 3h.5v.5H3zM2 4h.5v.5H2zM1 5h.5v.5H1zM0 0h.5v.5H0z"/>/&gt;<path class="diagonal-1" d="M5.5 5.5H6V6h-.5zm-4-2H2V4h-.5zm-1 1H1V5H.5z"/></pattern><path d="M584.385 236.716h-91.754V14.223H434.94v275.655h149.445zM766.976 14.223h-57.888V199.9c0 25.6-12.8 37.607-33.276 37.607s-33.275-12.011-33.275-37.607V14.223h-57.888v188.43c0 54.54 31.307 91.36 91.163 91.36s91.163-36.82 91.163-91.36zm109.564-4.135c-62.219 0-100.023 50.406-100.023 141.962s37.8 141.963 100.023 141.963c40.167 0 69.308-21.856 83.878-60.25l-48.24-24.809c-8.073 19.493-19.493 28.747-35.441 28.747-23.824 0-40.561-25.4-40.561-85.65 0-58.675 15.358-85.65 40.561-85.65 15.949 0 27.369 9.451 34.851 28.747L961.4 72.307c-13.978-39.97-44.694-62.219-84.86-62.219zm146.375 4.135h-57.691v275.655h57.691zm207.363 0h-56.9v161.258L1095.6 14.223h-56.509v275.655h56.709V129.21l77.971 160.668h56.509zm141.269 0H1305l-73.442 275.655h59.266l13-56.706h68.126l13.192 56.706h59.857zM1337.878 85.7l22.052 95.1h-43.908z" fill="url(#diagonal-texture)"/></svg>