<svg xmlns="http://www.w3.org/2000/svg" width="1466" height="322" viewBox="0 0 1466 322"><pattern id="diagonal-texture" patternUnits="userSpaceOnUse" width="6" height="6"><style>.diagonal-1{fill:#242424}</style><path d="M0 0h6v6H0z"/><path class="diagonal-1" d="M5 0h1v1H5zM4 1h1v1H4zM3 2h1v1H3zM2 3h1v1H2zM1 4h1v1H1zM0 5h1v1H0zM4.5.5H5V1h-.5zM5 1h.5v.5H5zM4 2h.5v.5H4zm-.5-.5H4V2h-.5zm-1 1H3V3h-.5zM3 3h.5v.5H3zM2 4h.5v.5H2zM1 5h.5v.5H1zM0 0h.5v.5H0z"/>/&gt;<path class="diagonal-1" d="M5.5 5.5H6V6h-.5zm-4-2H2V4h-.5zm-1 1H1V5H.5z"/></pattern><path d="M854.371 250.517h-94.63V14.422h-59.5v292.507h154.13zm192.34-236.095h-59.7v197.024c0 27.161-13.2 39.906-34.319 39.906s-34.319-12.745-34.319-39.906V14.422h-59.7v199.949c0 57.875 32.288 96.945 94.021 96.945s94.021-39.071 94.021-96.945zm78.836 0h-59.5v292.507h59.5zm120.231-4.388c-65.591 0-104.987 52.442-104.987 150.641 0 99.87 41.02 150.641 105.393 150.641 52.8 0 97.473-43.249 97.473-137.9 0-11.491-.406-22.356-1.218-30.3h-98.285v51.816h42.238c-4.061 42-18.682 57.666-41.223 57.666-24.977 0-43.254-24.654-43.254-91.931 0-64.978 15.839-91.3 42.441-91.3 16.449 0 27.414 8.357 35.537 25.49l47.518-29.251c-14.62-35.723-42.644-55.572-81.633-55.572zm170.422 4.388h-59.5v292.507h59.5z" fill="url(#diagonal-texture)"/></svg>