<svg id="レイヤー_1" data-name="レイヤー 1" xmlns="http://www.w3.org/2000/svg" viewBox="0 0 1466 322"><pattern id="diagonal-texture" patternUnits="userSpaceOnUse" width="6" height="6"><style>.diagonal-1{fill:#242424}</style><path d="M0 0h6v6H0z"/><path class="diagonal-1" d="M5 0h1v1H5zM4 1h1v1H4zM3 2h1v1H3zM2 3h1v1H2zM1 4h1v1H1zM0 5h1v1H0zM4.5.5H5V1h-.5zM5 1h.5v.5H5zM4 2h.5v.5H4zm-.5-.5H4V2h-.5zm-1 1H3V3h-.5zM3 3h.5v.5H3zM2 4h.5v.5H2zM1 5h.5v.5H1zM0 0h.5v.5H0z"/>/&gt;<path class="diagonal-1" d="M5.5 5.5H6V6h-.5zm-4-2H2V4h-.5zm-1 1H1V5H.5z"/></pattern><path class="cls-1" d="M730.94 14.42h-80.82l-41.43 141-41.63-141h-80.82v292.51h58.89V105.52l35.13 126.2h56.66l35.13-126.62v201.83h58.89zm149.72 0H812l-75.72 292.51h61.12l13.4-60.17h70.26l13.61 60.17h61.73zm-34.72 75.84l22.74 100.92H823.4zm116-75.84v292.51h59.5V195.57h3.45l52.19 111.36h67.62l-60.51-116.79c34.93-11.91 55.44-41.79 55.44-83.16 0-57.46-35.33-92.56-92.6-92.56zm85.49 56.2c17.46 0 31.48 11.49 31.48 36.35 0 25.07-13.81 36.56-31.48 36.56h-26v-72.9zm166.35-56.2h-59.5v292.51h59.5zM1333.61 10C1268 10 1229 64.15 1229 160.68s39 150.64 104.58 150.64c65.39 0 104.58-54.11 104.58-150.64S1399 10 1333.61 10zm-.2 59.76c27.21 0 43.05 28.83 43.05 90.89s-15.84 90.89-43.05 90.89-43.05-28.83-43.05-90.89 15.83-90.86 43.04-90.86z" fill="url(#diagonal-texture)"/></svg>