<svg id="レイヤー_1" data-name="レイヤー 1" xmlns="http://www.w3.org/2000/svg" viewBox="0 0 1466 395"><pattern id="diagonal-texture" patternUnits="userSpaceOnUse" width="6" height="6"><style>.diagonal-1{fill:#242424}</style><path d="M0 0h6v6H0z"/><path class="diagonal-1" d="M5 0h1v1H5zM4 1h1v1H4zM3 2h1v1H3zM2 3h1v1H2zM1 4h1v1H1zM0 5h1v1H0zM4.5.5H5V1h-.5zM5 1h.5v.5H5zM4 2h.5v.5H4zm-.5-.5H4V2h-.5zm-1 1H3V3h-.5zM3 3h.5v.5H3zM2 4h.5v.5H2zM1 5h.5v.5H1zM0 0h.5v.5H0z"/>/&gt;<path class="diagonal-1" d="M5.5 5.5H6V6h-.5zm-4-2H2V4h-.5zm-1 1H1V5H.5z"/></pattern><style>.ptn{fill:url(#diagonal-texture)}</style><g class="ptn"><path class="a ptn" d="M161.035 310.269v14.15L177.642 318v66.67h17.027v-87.411h-1.8zm-26.716 44.307q3.836-4.556 6.9-8.724a64.337 64.337 0 0 0 5.186-8.243 41.948 41.948 0 0 0 3.267-8.184 33.488 33.488 0 0 0-.45-18.856 20.45 20.45 0 0 0-4.706-7.794 20.788 20.788 0 0 0-7.7-4.887 30.222 30.222 0 0 0-10.582-1.708 25.742 25.742 0 0 0-11 2.278 24.586 24.586 0 0 0-8.274 6.175 27.707 27.707 0 0 0-5.216 9.114 33.465 33.465 0 0 0-1.839 11.153h17.027a29.7 29.7 0 0 1 .539-5.815 14.966 14.966 0 0 1 1.679-4.647 9.079 9.079 0 0 1 2.818-3.058 7.015 7.015 0 0 1 3.957-1.109 6.4 6.4 0 0 1 5.786 3.3q2.007 3.3 2.008 9.113a19.584 19.584 0 0 1-.42 3.957 23.682 23.682 0 0 1-1.438 4.436 45.866 45.866 0 0 1-2.7 5.247q-1.68 2.849-4.2 6.325l-23.622 30.037v11.991h51.441v-14.093h-29.673zM692.07 65.655h58.953v232.927h60.4V65.655h58.954V10H692.07zm-528.205 83.483L121.608 10h-82.04v288.582h22.293L58.38 322.32H45.609v10.432h11.272l-2.518 16.967H41.892v10.373h10.972l-3.6 24.581h10.495l3.541-24.581h8.03l-3.6 24.581h10.495l3.6-24.581h12.408v-10.373H83.321l2.518-16.967H98.07V322.32H87.338l3.481-23.738h8.527V99.873l35.661 124.5h57.51L228.178 99.46v199.122h59.777V10h-82.039zM72.829 349.719H64.8l2.518-16.967h8.034zm4.017-27.4h-8.034l3.481-23.738h8.034zm617.818-221C694.664 44.63 658.8 10 600.669 10H514.3v288.582h60.4V188.715h3.5l52.975 109.867h68.641l-61.425-115.227c35.454-11.749 56.273-41.226 56.273-82.039zm-93.583 36.072H574.7V65.449h26.385c17.727 0 31.95 11.337 31.95 35.867-.004 24.735-14.021 36.072-31.954 36.072zM1007.115 10v115.021h-71.94V10h-60.4v288.582h60.4V180.676h71.94v117.906h60.4V10zM366.2 10l-76.884 288.582h62.045l13.6-59.365h71.321l13.818 59.365h62.664L435.874 10zm11.543 174.386l22.881-99.561 23.087 99.561z"/></g></svg>