<svg xmlns="http://www.w3.org/2000/svg" width="1466" height="362" viewBox="0 0 1466 362"><pattern id="diagonal-texture" patternUnits="userSpaceOnUse" width="6" height="6"><style>.diagonal-1{fill:#242424}</style><path d="M0 0h6v6H0z"/><path class="diagonal-1" d="M5 0h1v1H5zM4 1h1v1H4zM3 2h1v1H3zM2 3h1v1H2zM1 4h1v1H1zM0 5h1v1H0zM4.5.5H5V1h-.5zM5 1h.5v.5H5zM4 2h.5v.5H4zm-.5-.5H4V2h-.5zm-1 1H3V3h-.5zM3 3h.5v.5H3zM2 4h.5v.5H2zM1 5h.5v.5H1zM0 0h.5v.5H0z"/>/&gt;<path class="diagonal-1" d="M5.5 5.5H6V6h-.5zm-4-2H2V4h-.5zm-1 1H1V5H.5z"/></pattern><g fill="url(#diagonal-texture)" fill-rule="evenodd"><path d="M53.267 98.673h10.492L67.3 74.092h8.03l-3.6 24.581h10.495l3.6-24.581h12.408V63.719H87.321l2.518-16.967h12.231V36.32H91.338L95 11.379H84.5L80.846 36.32h-8.034l3.657-24.941H66.037L62.38 36.32H49.609v10.432h11.272l-2.518 16.967H45.892v10.373h10.972zm18.046-51.921h8.034l-2.518 16.967H68.8zm64.737 33.035v18.886h16.967V79.787h7.434V65.7h-7.434V11.379H135.99l-29.618 57.437.779 10.972zm-.36-42.628l.36-.659v29.2h-13.19zm68.573 60.4a23.691 23.691 0 0 0 8.034-6.325 29.087 29.087 0 0 0 5.1-9.5 37.793 37.793 0 0 0 1.8-11.841 49.178 49.178 0 0 0-1.297-11.45A30.285 30.285 0 0 0 214 49a20.139 20.139 0 0 0-6.505-6.415 17.206 17.206 0 0 0-9.113-2.368 17.437 17.437 0 0 0-7.674 1.649 18.5 18.5 0 0 0-5.935 4.527 32.6 32.6 0 0 1 2.308-9.023 21.887 21.887 0 0 1 4.437-6.775 18.112 18.112 0 0 1 6.565-4.257 24.361 24.361 0 0 1 8.753-1.469h.839V10.48H205.4a35.97 35.97 0 0 0-16.188 3.507 33.5 33.5 0 0 0-11.9 9.833 45.093 45.093 0 0 0-7.344 15.139 70.554 70.554 0 0 0-2.518 19.425V65.1a51.483 51.483 0 0 0 1.829 14.149 33.657 33.657 0 0 0 5.246 11 24.034 24.034 0 0 0 8.274 7.1 21.989 21.989 0 0 0 6.083 2.073h-2.667l-36.282 120.056-36.459-120.051H42.688v248.995h51.577V176.971l30.769 107.423h49.621l30.769-107.779v171.807H257V99.427h-58.444a22.4 22.4 0 0 0 5.707-1.863zm-7.195-12.95a6.362 6.362 0 0 1-3.717 1.169q-4.018 0-6.475-4.557t-2.458-13.79v-6.11a12.581 12.581 0 0 1 3.268-5.036 7.66 7.66 0 0 1 5.426-2.039 6.5 6.5 0 0 1 3.747 1.169 9.982 9.982 0 0 1 2.938 3.268 17.59 17.59 0 0 1 1.889 5.006 28.912 28.912 0 0 1 .659 6.385 29.477 29.477 0 0 1-.63 6.3 18.168 18.168 0 0 1-1.8 4.976 9.55 9.55 0 0 1-2.846 3.264zm78.087 263.808h133.924v-47.304h-81.813v-54.779H404.1v-47.309h-76.834v-52.289h82.524V99.427H275.155zm320.5-139.437h-86.083v44.107h36.993c-3.557 35.748-16.362 49.087-36.1 49.087-21.876 0-37.883-20.987-37.883-78.255 0-55.312 13.872-77.722 37.171-77.722 14.406 0 24.01 7.114 31.124 21.7L582.492 143c-12.805-30.413-37.349-47.309-71.5-47.309-57.446 0-91.95 44.641-91.95 128.232 0 85.014 35.926 128.232 92.306 128.232 46.242 0 85.369-36.816 85.369-117.383.003-9.78-.352-19.029-1.064-25.787zm58.524-109.553l-66.34 248.995h53.534l11.739-51.222h61.537l11.916 51.222h54.067L714.293 99.427zm9.96 150.464l19.742-85.9 19.919 85.9zm272.488-30.413l-36.46-120.051h-70.786v248.995h51.577V176.971l30.769 107.423h49.621l30.768-107.779v171.807h51.577V99.427h-70.784zm178.044-120.051l-66.339 248.994h53.534L1113.6 297.2h61.537l11.916 51.222h54.067l-66.335-248.995zm9.96 150.464l19.742-85.9 19.92 85.9zm242.6-150.464v145.662L1296.98 99.427h-51.044v248.995h51.222V203.294l70.43 145.128h51.044V99.427z"/><path d="M0 0h1466v362H0z" fill="none"/></g></svg>