<svg xmlns="http://www.w3.org/2000/svg" width="1466" height="523" viewBox="0 0 1466 523"><pattern id="diagonal-texture" patternUnits="userSpaceOnUse" width="6" height="6"><style>.diagonal-1{fill:#242424}</style><path d="M0 0h6v6H0z"/><path class="diagonal-1" d="M5 0h1v1H5zM4 1h1v1H4zM3 2h1v1H3zM2 3h1v1H2zM1 4h1v1H1zM0 5h1v1H0zM4.5.5H5V1h-.5zM5 1h.5v.5H5zM4 2h.5v.5H4zm-.5-.5H4V2h-.5zm-1 1H3V3h-.5zM3 3h.5v.5H3zM2 4h.5v.5H2zM1 5h.5v.5H1zM0 0h.5v.5H0z"/>/&gt;<path class="diagonal-1" d="M5.5 5.5H6V6h-.5zm-4-2H2V4h-.5zm-1 1H1V5H.5z"/></pattern><g fill="url(#diagonal-texture)"><path d="M69.233 98.173h10.492l3.6-24.581h12.408V63.22H84.821l2.518-16.967H99.57V35.82H88.838L92.5 10.879H82L78.346 35.82h-8.034l3.657-24.941H63.537L59.88 35.82H47.11v10.432h11.271L55.863 63.22H43.392v10.372h10.972l-3.6 24.581h10.495L64.8 73.592h8.03zm-.42-51.921h8.034L74.329 63.22H66.3zm88.419 37.832h-29.678l11.212-16.008q3.836-4.556 6.895-8.723a64.223 64.223 0 0 0 5.186-8.244 41.9 41.9 0 0 0 3.267-8.184 31.612 31.612 0 0 0 1.139-8.484 31.767 31.767 0 0 0-1.589-10.372 20.457 20.457 0 0 0-4.706-7.794 20.777 20.777 0 0 0-7.7-4.886 30.217 30.217 0 0 0-10.586-1.709 25.735 25.735 0 0 0-11 2.278 24.564 24.564 0 0 0-8.274 6.175 27.691 27.691 0 0 0-5.216 9.113 33.453 33.453 0 0 0-1.83 11.154h17.027a29.658 29.658 0 0 1 .54-5.816 14.969 14.969 0 0 1 1.679-4.646 9.067 9.067 0 0 1 2.818-3.058 7.011 7.011 0 0 1 3.957-1.109 6.4 6.4 0 0 1 5.786 3.3q2.008 3.3 2.008 9.113a19.639 19.639 0 0 1-.42 3.957 23.682 23.682 0 0 1-1.439 4.437 45.684 45.684 0 0 1-2.7 5.246q-1.679 2.848-4.2 6.325L105.79 86.182v11.991h51.441zm58.681-73.205h-52.82v14.089h35.014l-27.7 73.2h17.926l27.579-77.522zm-70.572 498.197h51.186L137.966 403.31l54.579-100.75h-49.859l-41.3 82.754h-9.591V302.56H48.574v206.516h43.221V424.7h9zM340.339 302.56h-42.631v120.812L239.441 302.56h-42.335v206.516h42.483v-120.37L298 509.076h42.336zm49.403 0h-43.221v206.516h43.221zm84.369-3.098c-47.646 0-76.263 37.025-76.263 106.356 0 70.511 29.8 106.356 76.558 106.356 38.353 0 70.806-30.535 70.806-97.358 0-8.113-.3-15.784-.885-21.389h-71.4v36.583h30.682c-2.95 29.65-13.571 40.713-29.945 40.713-18.144 0-31.42-17.406-31.42-64.905 0-45.876 11.506-64.463 30.83-64.463 11.948 0 19.914 5.9 25.815 18L533.41 338.7c-10.621-25.224-30.977-39.238-59.299-39.238zm120.8 3.098H551.69v206.516h43.221V424.7h51.482v84.377h43.221V302.56h-43.222v82.312h-51.481z"/><path d="M814.393 302.56H686.8v39.828h42.188v166.688H772.2V342.388h42.188zm-587.068-206h-58.71l-30.092 99.57-30.24-99.57H49.574v206.516h42.778v-142.2l25.519 89.1h41.156l25.519-89.392v142.5h42.778zm117.257 167.278h-67.856V218.4h63.725v-39.234h-63.725V135.8h68.445V96.56H233.505v206.516h111.077zM479.542 96.56h-127.6v39.828h42.188v166.688h43.221V136.388h42.188zm79.058 0h-49.86l-55.021 206.516h44.4l9.736-42.483h51.039l9.883 42.483h44.844zm-25.224 53.547l16.524 71.248H517z"/></g></svg>