<svg xmlns="http://www.w3.org/2000/svg" width="1466" height="294" viewBox="0 0 1466 294"><pattern id="diagonal-texture" patternUnits="userSpaceOnUse" width="6" height="6"><style>.diagonal-1{fill:#242424}</style><path d="M0 0h6v6H0z"/><path class="diagonal-1" d="M5 0h1v1H5zM4 1h1v1H4zM3 2h1v1H3zM2 3h1v1H2zM1 4h1v1H1zM0 5h1v1H0zM4.5.5H5V1h-.5zM5 1h.5v.5H5zM4 2h.5v.5H4zm-.5-.5H4V2h-.5zm-1 1H3V3h-.5zM3 3h.5v.5H3zM2 4h.5v.5H2zM1 5h.5v.5H1zM0 0h.5v.5H0z"/>/&gt;<path class="diagonal-1" d="M5.5 5.5H6V6h-.5zm-4-2H2V4h-.5zm-1 1H1V5H.5z"/></pattern><g fill="url(#diagonal-texture)"><path d="M268.884 10.964h-77.618L151.482 142.6 111.5 10.964H33.884v273.03H90.44v-188l33.739 117.793h54.411L212.328 95.6v188.393h56.556zM431.7 232.118h-89.71v-60.067h84.249v-51.876h-84.25V62.839h90.49V10.964H284.848v273.03H431.7z"/><path d="M746.442 10.964h-58.507L654.2 196.234l-35.5-185.27h-59.284l-35.689 186.05-33.543-186.05H430.9l56.946 273.03h67.867l32.957-163.429 32.958 163.428H689.5zm184.058 0H761.806v52.655h55.776v220.374h57.141V63.619H930.5zm320.592 0h-58.506l-33.739 185.27-35.494-185.27h-59.286l-35.689 186.05-33.544-186.05h-59.286l56.946 273.03h67.867l32.959-163.428 32.959 163.428h67.867zm89.093-4.096c-62.992 0-100.436 50.511-100.436 140.61s37.444 140.61 100.436 140.61c62.8 0 100.436-50.511 100.436-140.61s-37.639-140.61-100.436-140.61zm-.195 55.776c26.133 0 41.345 26.913 41.345 84.834s-15.212 84.834-41.345 84.834-41.344-26.913-41.344-84.834 15.211-84.834 41.344-84.834z"/></g></svg>