<svg id="レイヤー_1" data-name="レイヤー 1" xmlns="http://www.w3.org/2000/svg" viewBox="0 0 1466 281"><pattern id="diagonal-texture" patternUnits="userSpaceOnUse" width="6" height="6"><style>.diagonal-1{fill:#242424}</style><path d="M0 0h6v6H0z"/><path class="diagonal-1" d="M5 0h1v1H5zM4 1h1v1H4zM3 2h1v1H3zM2 3h1v1H2zM1 4h1v1H1zM0 5h1v1H0zM4.5.5H5V1h-.5zM5 1h.5v.5H5zM4 2h.5v.5H4zm-.5-.5H4V2h-.5zm-1 1H3V3h-.5zM3 3h.5v.5H3zM2 4h.5v.5H2zM1 5h.5v.5H1zM0 0h.5v.5H0z"/>/&gt;<path class="diagonal-1" d="M5.5 5.5H6V6h-.5zm-4-2H2V4h-.5zm-1 1H1V5H.5z"/></pattern><path class="cls-1" d="M246.86 21h-68.13L143.8 139.94 108.71 21H40.57v246.6h49.65V97.84l29.62 106.39h47.76l29.62-106.74v170.15h49.65zm65.65 73h-46.56v173.64h46.57zm-23.28-82.82c-15.75 0-27.73 12.51-27.73 28.54 0 16.21 12 28.36 27.73 28.36S317 55.92 317 39.71c0-16.03-12-28.53-27.77-28.53zM376.51 94h-46.56v173.64h46.57zm-23.28-82.82c-15.75 0-27.73 12.51-27.73 28.54 0 16.21 12 28.36 27.73 28.36S381 55.92 381 39.71c0-16.03-12-28.53-27.77-28.53zm204.2 110.09h-70.54V67.9h76.7V21H436.73v246.6h50.16v-99.48h70.53zM626 21h-50.14v246.6H626zm101.34-3.66c-55.3 0-88.51 44.21-88.51 127 0 84.2 34.58 127 88.85 127 44.51 0 82.18-36.46 82.18-116.25 0-9.69-.34-18.85-1-25.54H726v43.68h35.61c-3.42 35.4-15.75 48.62-34.75 48.62-21.06 0-36.47-20.78-36.47-77.5 0-54.78 13.35-77 35.78-77 13.87 0 23.11 7 30 21.49l39.99-24.64c-12.33-30.12-35.95-46.86-68.82-46.86zM870.9 21h-50.16v246.6h50.16V166.89h59.75v100.75h50.16V21h-50.16v98.29H870.9zm264.94 0H987.75v47.6h49v199h50.16v-199h49zm135.87 199.79H1193v-54.25h74v-46.86h-74V67.9h79.44V21H1142.8v246.6h128.91zM1287.23 21v246.6h50.16v-93.84h2.91l44 93.88h57l-51-98.46c29.45-10 46.74-35.23 46.74-70.11 0-48.44-29.79-78-78.07-78zm72.07 47.38c14.72 0 26.54 9.69 26.54 30.65 0 21.14-11.64 30.83-26.54 30.83h-21.91V68.42z" fill="url(#diagonal-texture)"/></svg>