<svg id="レイヤー_1" data-name="レイヤー 1" xmlns="http://www.w3.org/2000/svg" viewBox="0 0 1466 440"><pattern id="diagonal-texture" patternUnits="userSpaceOnUse" width="6" height="6"><style>.diagonal-1{fill:#242424}</style><path d="M0 0h6v6H0z"/><path class="diagonal-1" d="M5 0h1v1H5zM4 1h1v1H4zM3 2h1v1H3zM2 3h1v1H2zM1 4h1v1H1zM0 5h1v1H0zM4.5.5H5V1h-.5zM5 1h.5v.5H5zM4 2h.5v.5H4zm-.5-.5H4V2h-.5zm-1 1H3V3h-.5zM3 3h.5v.5H3zM2 4h.5v.5H2zM1 5h.5v.5H1zM0 0h.5v.5H0z"/>/&gt;<path class="diagonal-1" d="M5.5 5.5H6V6h-.5zm-4-2H2V4h-.5zm-1 1H1V5H.5z"/></pattern><g fill="url(#diagonal-texture)"><path d="M272.85 161.51H199l-37.85 128.86-38-128.86H49.26v267.27h53.81v-184l32.1 115.31h51.77L219 244.36v184.42h53.81zm69.64 0h-54.37v267.27h54.37zm195.39 0h-53.62v156.35L411 161.51h-53.29v267.27h53.44V273l73.48 155.78h53.25zm283.39 0h-73.85l-37.85 128.86-38-128.86h-73.89v267.27h53.81v-184l32.1 115.31h51.77l32.1-115.7v184.39h53.81zm69.63 0h-54.36v267.27h54.36zm195.4 0h-53.62v156.35l-73.3-156.35h-53.25v267.27h53.44V273l73.48 155.78h53.25z"/><path d="M68.73 168.66h11.1l3.8-26h13.13v-11H85.22l2.66-18h12.94v-11H89.47l3.87-26.39h-11.1l-3.87 26.43h-8.5l3.87-26.39h-11l-3.91 26.39H45.32v11h11.93l-2.67 18H41.39v11H53l-3.81 26h11.1l3.74-26h8.5zm-.45-54.92h8.5l-2.66 18h-8.5zm90.17-37.43h-55.88v14.91h37l-29.3 77.44h19l29.18-82zm40.26-.95a38.12 38.12 0 0 0-17.13 3.71A35.41 35.41 0 0 0 169 89.48a47.78 47.78 0 0 0-7.77 16 74.53 74.53 0 0 0-2.67 20.52v7.1a54.44 54.44 0 0 0 1.93 15 35.53 35.53 0 0 0 5.51 11.65 25.46 25.46 0 0 0 8.75 7.52 24.81 24.81 0 0 0 11.55 2.66 24.84 24.84 0 0 0 19.7-9.13 30.89 30.89 0 0 0 5.39-10.06 39.86 39.86 0 0 0 1.9-12.52 52 52 0 0 0-1.36-12.12 32.14 32.14 0 0 0-4.12-10 21.4 21.4 0 0 0-6.88-6.78 19.74 19.74 0 0 0-17.76-.76 19.46 19.46 0 0 0-6.28 4.79 34.17 34.17 0 0 1 2.44-9.55 23.21 23.21 0 0 1 4.67-7.16 19.32 19.32 0 0 1 6.95-4.5 25.65 25.65 0 0 1 9.26-1.55h.89V75.36zm-9 47.54a10.58 10.58 0 0 1 3.1 3.46 18.28 18.28 0 0 1 2 5.29 30.32 30.32 0 0 1 .7 6.76 30.79 30.79 0 0 1-.67 6.66 18.89 18.89 0 0 1-1.9 5.26 10.15 10.15 0 0 1-3 3.46A6.79 6.79 0 0 1 186 155q-4.26 0-6.85-4.82t-2.6-14.59v-6.47a13.31 13.31 0 0 1 3.45-5.33 8.11 8.11 0 0 1 5.74-2.16 6.93 6.93 0 0 1 3.93 1.27z"/></g></svg>