<svg xmlns="http://www.w3.org/2000/svg" width="1466" height="459" viewBox="0 0 1466 459"><pattern id="diagonal-texture" patternUnits="userSpaceOnUse" width="6" height="6"><style>.diagonal-1{fill:#242424}</style><path d="M0 0h6v6H0z"/><path class="diagonal-1" d="M5 0h1v1H5zM4 1h1v1H4zM3 2h1v1H3zM2 3h1v1H2zM1 4h1v1H1zM0 5h1v1H0zM4.5.5H5V1h-.5zM5 1h.5v.5H5zM4 2h.5v.5H4zm-.5-.5H4V2h-.5zm-1 1H3V3h-.5zM3 3h.5v.5H3zM2 4h.5v.5H2zM1 5h.5v.5H1zM0 0h.5v.5H0z"/>/&gt;<path class="diagonal-1" d="M5.5 5.5H6V6h-.5zm-4-2H2V4h-.5zm-1 1H1V5H.5z"/></pattern><g fill="url(#diagonal-texture)"><path d="M864.762 226.165h-47.684l-27.5 151-28.928-151h-48.32L683.244 377.8l-27.339-151.635h-48.32L654 448.691h55.313l26.862-133.2 26.862 133.2h55.314zm88.388 0h-53.724l-59.287 222.526h47.843l10.49-45.777h55l10.649 45.777h48.32zm-27.18 57.7l17.8 76.771h-35.443zm196.308-57.7H984.789v42.916h45.459v179.61h46.572v-179.61h45.459zm76.306-3.338c-50.227 0-80.745 40.69-80.745 114.6s30.518 114.6 80.745 114.6c32.425 0 55.949-17.643 67.711-48.638l-38.942-20.027c-6.517 15.736-15.736 23.206-28.61 23.206-19.233 0-32.743-20.5-32.743-69.142 0-47.366 12.4-69.142 32.743-69.142 12.875 0 22.094 7.63 28.134 23.206l40.214-18.438c-11.291-32.264-36.082-50.225-68.507-50.225zm118.103 3.338h-46.572v222.526h46.572v-90.918h55.473v90.918h46.572V226.165h-46.572v88.692h-55.473zM410.565 7.877h-63.5L314.52 115.568 281.814 7.877h-63.5v223.36h46.267V77.438l27.6 96.364H336.7l27.6-96.683v154.118h46.267zm83.452 62.7c-14.359 0-24.41 6.382-30.792 20.262V73.928h-41.161v157.309h43.4v-91.578c0-15.795 7.818-23.453 20.421-23.453a59.326 59.326 0 0 1 16.592 2.553l3.35-46.267a34.408 34.408 0 0 0-11.81-1.915z"/><path d="M506.784 179.066a27.761 27.761 0 1 0 0 55.521 27.761 27.761 0 0 0 0-55.521zM661.542 4.527c-51.532 0-82.483 40.045-82.483 115.03 0 76.261 32.228 115.03 82.8 115.03 41.481 0 76.58-33.025 76.58-105.3 0-8.775-.319-17.071-.957-23.134h-77.216v39.567h33.184c-3.191 32.068-14.678 44.034-32.387 44.034-19.624 0-33.983-18.826-33.983-70.2 0-49.618 12.444-69.72 33.344-69.72 12.923 0 21.538 6.382 27.92 19.464l37.333-22.336c-11.486-27.279-33.503-42.435-64.135-42.435zm179.177 3.35h-53.926l-59.509 223.36h48.022l10.53-45.948h55.2l10.689 45.948h48.5zm-27.282 57.914l17.869 77.059h-35.578zM1093.6 7.877h-63.5l-32.542 107.691L964.852 7.877h-63.5v223.36h46.267V77.438l27.6 96.364h44.512l27.6-96.683v154.118h46.269zM1226.833 188.8h-73.39v-49.141h68.922V97.221h-68.922V50.315h74.028V7.877H1106.7v223.36h120.136zm213.794 42.437l-40.527-53.128 27.92-48.98-32.866-18.666-20.741 33.983-11.647-15.316c-2.233-2.872-4.148-5.743-6.222-8.3 16.911-17.071 32.547-36.376 32.547-61.424 0-30.951-21.06-54.883-54.085-54.883-35.1 0-56.478 24.251-56.478 58.074 0 20.581 7.339 34.621 22.814 55.521-16.752 17.071-31.43 37.173-31.43 62.381 0 32.866 20.9 54.085 56.957 54.085 20.9 0 36.216-8.615 48.342-21.06l13.721 17.709zm-109.765-38.131c-9.094 0-15.316-5.9-15.316-16.273 0-8.934 4.627-17.39 11.487-25.846l12.763 16.593 10.689 14.04c-6.062 7.18-12.444 11.486-19.623 11.486zm-10.211-131.782c0-11.168 6.063-16.752 13.88-16.752s12.923 6.7 12.923 16.114c0 8.934-6.222 17.709-15 27.122-8.931-12.923-11.803-19.308-11.803-26.484z"/></g></svg>