<svg xmlns="http://www.w3.org/2000/svg" width="1466" height="352" viewBox="0 0 1466 352"><pattern id="diagonal-texture" patternUnits="userSpaceOnUse" width="6" height="6"><style>.diagonal-1{fill:#242424}</style><path d="M0 0h6v6H0z"/><path class="diagonal-1" d="M5 0h1v1H5zM4 1h1v1H4zM3 2h1v1H3zM2 3h1v1H2zM1 4h1v1H1zM0 5h1v1H0zM4.5.5H5V1h-.5zM5 1h.5v.5H5zM4 2h.5v.5H4zm-.5-.5H4V2h-.5zm-1 1H3V3h-.5zM3 3h.5v.5H3zM2 4h.5v.5H2zM1 5h.5v.5H1zM0 0h.5v.5H0z"/>/&gt;<path class="diagonal-1" d="M5.5 5.5H6V6h-.5zm-4-2H2V4h-.5zm-1 1H1V5H.5z"/></pattern><path class="a" d="M158.857 8.321c-72.136 0-115.016 57.843-115.016 161.022s42.88 161.022 115.016 161.022c71.913 0 115.016-57.843 115.016-161.022S230.77 8.321 158.857 8.321zm-.223 258.171c-29.926 0-47.346-30.82-47.346-97.149s17.42-97.149 47.346-97.149 47.346 30.82 47.346 97.149-17.42 97.149-47.347 97.149zM351.38 13.011h-65.437v312.664h169.509v-60.3H351.38zm108.767 312.664h65.436V13.011h-65.436zM678.566 163.76L632.783 13.011H543.9v312.664h64.766V110.384L647.3 245.276h62.31l38.636-135.339v215.738h64.766V13.011h-88.887zM897.67 13.011l-83.3 312.664h67.223l14.74-64.32H973.6l14.963 64.32h67.893l-83.3-312.664zm12.507 188.939l24.79-107.869L959.98 201.95zm282.3-1.117c38.413-12.73 60.97-44.666 60.97-88.886 0-61.416-38.86-98.936-101.839-98.936h-93.576v312.664h65.436V206.64h3.8l57.4 119.036h74.369zm-40.423-49.8h-28.586V73.087h28.586c19.206 0 34.616 12.283 34.616 38.86.004 26.8-15.183 39.083-34.613 39.083z" fill="url(#diagonal-texture)"/></svg>