<svg id="レイヤー_1" data-name="レイヤー 1" xmlns="http://www.w3.org/2000/svg" viewBox="0 0 1466 405"><pattern id="diagonal-texture" patternUnits="userSpaceOnUse" width="6" height="6"><style>.diagonal-1{fill:#242424}</style><path d="M0 0h6v6H0z"/><path class="diagonal-1" d="M5 0h1v1H5zM4 1h1v1H4zM3 2h1v1H3zM2 3h1v1H2zM1 4h1v1H1zM0 5h1v1H0zM4.5.5H5V1h-.5zM5 1h.5v.5H5zM4 2h.5v.5H4zm-.5-.5H4V2h-.5zm-1 1H3V3h-.5zM3 3h.5v.5H3zM2 4h.5v.5H2zM1 5h.5v.5H1zM0 0h.5v.5H0z"/>/&gt;<path class="diagonal-1" d="M5.5 5.5H6V6h-.5zm-4-2H2V4h-.5zm-1 1H1V5H.5z"/></pattern><g fill="url(#diagonal-texture)"><path class="cls-1" d="M71.76 98.5h10.5l3.6-24.58h12.4V63.55H87.35l2.52-17h12.23v-10.4H91.37L95 11.21H84.53l-3.65 24.94h-8l3.62-24.94H66.07l-3.66 24.94H49.64v10.43h11.27l-2.52 17H45.92v10.34h11L53.3 98.5h10.49l3.54-24.58h8zm-.42-51.92h8l-2.52 17h-8zm52.21 12.47a21.28 21.28 0 0 1 1.32-1.77 7.89 7.89 0 0 1 1.71-1.53 9 9 0 0 1 2.34-1.08 10.64 10.64 0 0 1 3.15-.42 9.25 9.25 0 0 1 4.65 1.11 9.38 9.38 0 0 1 3.24 3.09 14.1 14.1 0 0 1 1.89 4.8 30.06 30.06 0 0 1 .6 6.24 42.07 42.07 0 0 1-.45 6.36 17.81 17.81 0 0 1-1.5 5.1 9.21 9.21 0 0 1-2.73 3.42 6.6 6.6 0 0 1-4.08 1.26 7.06 7.06 0 0 1-5.88-3q-2.28-3-2.7-8.45h-16.79A26.38 26.38 0 0 0 110.54 85a24.46 24.46 0 0 0 13.85 13 26.59 26.59 0 0 0 9.41 1.71 24.93 24.93 0 0 0 11.27-2.4 23.29 23.29 0 0 0 8-6.42 27.26 27.26 0 0 0 4.74-9.29 39 39 0 0 0 1.56-11.09 47.86 47.86 0 0 0-1.47-12.41 26.72 26.72 0 0 0-4.32-9.23 18.71 18.71 0 0 0-7-5.76 22.39 22.39 0 0 0-9.65-2 15.22 15.22 0 0 0-3.21.33 19.12 19.12 0 0 0-2.85.84 18.45 18.45 0 0 0-2.34 1.08q-1 .57-1.74 1l1.56-18.71h28.36V11.21h-42.33l-4.32 44.37zm58.92 0a21.25 21.25 0 0 1 1.32-1.77 7.89 7.89 0 0 1 1.71-1.53 9 9 0 0 1 2.34-1.08 10.64 10.64 0 0 1 3.15-.42 9.25 9.25 0 0 1 4.65 1.11 9.38 9.38 0 0 1 3.24 3.09 14.1 14.1 0 0 1 1.89 4.8 30.06 30.06 0 0 1 .6 6.24 42.07 42.07 0 0 1-.45 6.36 17.81 17.81 0 0 1-1.5 5.1 9.21 9.21 0 0 1-2.73 3.42 6.6 6.6 0 0 1-4.08 1.26 7.06 7.06 0 0 1-5.88-3q-2.28-3-2.7-8.45h-16.79A26.39 26.39 0 0 0 169.46 85a24.46 24.46 0 0 0 13.85 13 26.59 26.59 0 0 0 9.41 1.71A24.93 24.93 0 0 0 204 97.3a23.29 23.29 0 0 0 8-6.42 27.26 27.26 0 0 0 4.74-9.29 39 39 0 0 0 1.56-11.09 47.85 47.85 0 0 0-1.47-12.41 26.72 26.72 0 0 0-4.32-9.23 18.71 18.71 0 0 0-7-5.76 22.39 22.39 0 0 0-9.65-2 15.22 15.22 0 0 0-3.21.33 19.12 19.12 0 0 0-2.85.84 18.45 18.45 0 0 0-2.34 1.08q-1 .57-1.74 1l1.56-18.71h28.36V11.21H173.3L169 55.58z"/><path class="cls-1" d="M134.86 287.18c58.1 0 94.54-36.23 94.54-93.49 0-58.72-36.44-95.16-95-95.16H48V390h61V287.18zm-.62-132.64c18.12 0 32.9 12.7 32.9 39.15 0 26.24-14.78 38.94-32.9 38.94H109v-78.09zm219.48-56.01h-70.39L205.66 390h62.68l13.74-60h72l14 60h63.3zm-35.61 75.59l23.32 100.57H295zM527 94.15c-65.8 0-105.78 53.31-105.78 150.13s40 150.13 105.78 150.13c42.48 0 73.3-23.11 88.71-63.72l-51-26.24c-8.54 20.61-20.61 30.4-37.48 30.4-25.2 0-42.89-26.86-42.89-90.58 0-62.05 16.24-90.58 42.89-90.58 16.87 0 28.94 10 36.86 30.4L616.72 160c-14.78-42.32-47.27-65.85-89.72-65.85zm186.76 125.16h-93.7v51.85h93.7zM981.13 98.53h-82.87l-42.48 140.55-42.69-140.55h-82.87V390h60.39V189.31l36 125.77h58.1l36-126.19V390h60.39zm153.48 0h-70.38L986.56 390h62.68l13.74-60h72l14 60h63.3zM1099 174.11l23.32 100.57h-46.43zm321.11-75.58h-60.18v170.53l-82.25-170.53h-59.76V390h60V220.13L1360.35 390h59.76z"/></g></svg>