<svg id="レイヤー_1" data-name="レイヤー 1" xmlns="http://www.w3.org/2000/svg" viewBox="0 0 1466 377"><pattern id="diagonal-texture" patternUnits="userSpaceOnUse" width="6" height="6"><style>.diagonal-1{fill:#242424}</style><path d="M0 0h6v6H0z"/><path class="diagonal-1" d="M5 0h1v1H5zM4 1h1v1H4zM3 2h1v1H3zM2 3h1v1H2zM1 4h1v1H1zM0 5h1v1H0zM4.5.5H5V1h-.5zM5 1h.5v.5H5zM4 2h.5v.5H4zm-.5-.5H4V2h-.5zm-1 1H3V3h-.5zM3 3h.5v.5H3zM2 4h.5v.5H2zM1 5h.5v.5H1zM0 0h.5v.5H0z"/>/&gt;<path class="diagonal-1" d="M5.5 5.5H6V6h-.5zm-4-2H2V4h-.5zm-1 1H1V5H.5z"/></pattern><g fill="url(#diagonal-texture)"><path class="cls-1" d="M68.23 365h10.49l3.6-24.58h12.41V330H83.82l2.52-17h12.23v-10.36H87.84l3.66-24.94H81l-3.66 24.94h-8L73 277.7H62.54l-3.66 24.94H46.11v10.43h11.27l-2.52 17H42.39v10.37h11L49.77 365h10.49l3.54-24.58h8zm-.42-51.92h8l-2.52 17h-8zM120 325.54a21.28 21.28 0 0 1 1.32-1.77 7.89 7.89 0 0 1 1.71-1.53 9 9 0 0 1 2.34-1.08 10.64 10.64 0 0 1 3.15-.42 9.25 9.25 0 0 1 4.65 1.11 9.38 9.38 0 0 1 3.24 3.09 14.1 14.1 0 0 1 1.89 4.8 30.06 30.06 0 0 1 .6 6.24 42.07 42.07 0 0 1-.45 6.36 17.81 17.81 0 0 1-1.5 5.1 9.21 9.21 0 0 1-2.73 3.42 6.6 6.6 0 0 1-4.08 1.26 7.06 7.06 0 0 1-5.88-3q-2.28-3-2.7-8.45h-16.77a26.38 26.38 0 0 0 2.21 10.77 24.46 24.46 0 0 0 13.85 13 26.59 26.59 0 0 0 9.41 1.71 24.93 24.93 0 0 0 11.27-2.4 23.29 23.29 0 0 0 8-6.42 27.26 27.26 0 0 0 4.74-9.29 39 39 0 0 0 1.54-11.04 47.86 47.86 0 0 0-1.47-12.41 26.72 26.72 0 0 0-4.32-9.23 18.71 18.71 0 0 0-7-5.76 22.39 22.39 0 0 0-9.65-2 15.22 15.22 0 0 0-3.21.33 19.12 19.12 0 0 0-2.85.84 18.45 18.45 0 0 0-2.34 1.08q-1 .57-1.74 1l1.56-18.71h28.36V277.7h-42.3l-4.32 44.37zm88.44-47.84h-17l-29.62 57.44.78 11h28.9V365h17v-18.89h7.43V332h-7.43zm-17.33 25.78l.36-.66V332h-13.19z"/><path class="cls-1" d="M119.41 184.88c53.77 0 87.49-33.53 87.49-86.53 0-54.35-33.72-88.07-87.9-88.07H39v269.8h56.51v-95.2zm-.58-122.76c16.77 0 30.45 11.76 30.45 36.23 0 24.28-13.68 36-30.45 36H95.51V62.13zm199.34-51.84H253l-71.88 269.8h58l12.72-55.5h66.68l12.91 55.5h58.59zm-33 70l21.58 93.08h-43zm252.59 147.77H448V10.28h-56.51v269.8h146.27zM716.48 10.28h-56.66V192c0 25.05-12.53 36.81-32.57 36.81s-32.57-11.74-32.57-36.81V10.28H538v184.43c0 53.38 30.64 89.42 89.23 89.42s89.23-36 89.23-89.42zm169.52 0H719.26v52h55.12v217.81h56.47V62.32H886zm149.2 218.54h-88.65v-59.35h83.25v-51.26h-83.25V61.55H1036V10.28H890.08v269.8h145.12zm200.87-218.54h-55.69v157.84l-76.12-157.84h-55.31v269.8h55.5V122.83l76.32 157.26h55.31zm138.27 0h-65.14l-71.88 269.8h58l12.72-55.5h66.68l12.91 55.5h58.59zm-33 70l21.66 93.04h-43z"/></g></svg>