<svg id="レイヤー_1" data-name="レイヤー 1" xmlns="http://www.w3.org/2000/svg" viewBox="0 0 1466 404"><pattern id="diagonal-texture" patternUnits="userSpaceOnUse" width="6" height="6"><style>.diagonal-1{fill:#242424}</style><path d="M0 0h6v6H0z"/><path class="diagonal-1" d="M5 0h1v1H5zM4 1h1v1H4zM3 2h1v1H3zM2 3h1v1H2zM1 4h1v1H1zM0 5h1v1H0zM4.5.5H5V1h-.5zM5 1h.5v.5H5zM4 2h.5v.5H4zm-.5-.5H4V2h-.5zm-1 1H3V3h-.5zM3 3h.5v.5H3zM2 4h.5v.5H2zM1 5h.5v.5H1zM0 0h.5v.5H0z"/>/&gt;<path class="diagonal-1" d="M5.5 5.5H6V6h-.5zm-4-2H2V4h-.5zm-1 1H1V5H.5z"/></pattern><g fill="url(#diagonal-texture)"><path class="cls-1" d="M69.73 98.67h10.49l3.6-24.58h12.41V63.72H85.32l2.52-17h12.23v-10.4H89.34L93 11.38H82.5l-3.65 24.94h-8l3.66-24.94H64l-3.62 24.94H47.61v10.43h11.27l-2.52 17H43.89v10.34h11l-3.6 24.58h10.47l3.54-24.58h8zm-.42-51.92h8l-2.52 17h-8zm74.33-35.49h-1.8L110 24.27v14.15L126.62 32v66.67h17zM180.32 61h8.21a9.43 9.43 0 0 1 7.47 3q2.67 3 2.67 9.92a16.91 16.91 0 0 1-.67 4.88 11.21 11.21 0 0 1-1.89 3.75 8.38 8.38 0 0 1-3 2.4 9 9 0 0 1-4 .84 7.38 7.38 0 0 1-3.51-.84 8.36 8.36 0 0 1-2.6-2.31 11.42 11.42 0 0 1-1.8-3.48 14 14 0 0 1-.66-4.41h-17a26.64 26.64 0 0 0 2.16 11.18 23.27 23.27 0 0 0 5.67 7.82 22.68 22.68 0 0 0 8 4.62 29.48 29.48 0 0 0 9.32 1.5 32.11 32.11 0 0 0 10.61-1.71 24.41 24.41 0 0 0 8.51-5 23.05 23.05 0 0 0 5.67-8.06 27.31 27.31 0 0 0 2.07-10.91 24.64 24.64 0 0 0-3-12.47 18.68 18.68 0 0 0-9.2-7.91 20 20 0 0 0 4.77-3.51 22.75 22.75 0 0 0 3.51-4.5 21 21 0 0 0 2.94-10.76 28.43 28.43 0 0 0-1.89-10.76 21.54 21.54 0 0 0-5.28-7.79 22.08 22.08 0 0 0-8.12-4.74 32.66 32.66 0 0 0-10.43-1.59 26.7 26.7 0 0 0-9.62 1.71 23.51 23.51 0 0 0-7.76 4.8 22.34 22.34 0 0 0-5.22 7.49 24.29 24.29 0 0 0-1.92 9.8h17a11.78 11.78 0 0 1 .66-4.08 9.86 9.86 0 0 1 1.74-3.06 7.22 7.22 0 0 1 2.55-1.92 7.86 7.86 0 0 1 6.68.18 7.61 7.61 0 0 1 2.61 2.31 10.28 10.28 0 0 1 1.56 3.48 17.93 17.93 0 0 1 .51 4.41A15.45 15.45 0 0 1 195.4 44q-2.19 3.27-6.86 3.27h-8.21z"/><path class="cls-1" d="M127.92 285.72c56.66 0 92.19-36.35 92.19-93.81 0-58.92-35.54-95.48-92.6-95.48H43.24v292.5h59.5V285.72zm-.61-133.09c17.67 0 32.08 12.74 32.08 39.28C159.4 218.23 145 231 127.31 231h-24.57v-78.37zM385 333.35h-93.36V269h87.73v-55.58h-87.73V152h94.22V96.42H232.14v292.51H385zM532.51 96.42h-68.64l-75.74 292.51h61.12l13.4-60.17h70.26l13.61 60.17h61.73zm-34.72 75.84l22.74 100.92h-45.28zM701.51 92c-64.17 0-103.16 53.49-103.16 150.64s39 150.64 103.16 150.64c41.43 0 71.48-23.19 86.51-63.93l-49.75-26.33c-8.33 20.68-20.1 30.5-36.55 30.5-24.57 0-41.83-27-41.83-90.89 0-62.26 15.84-90.89 41.83-90.89 16.45 0 28.23 10 35.94 30.5L789 158.06C774.62 115.64 742.94 92 701.51 92zm154.99 4.42H797v292.51h59.5V269.42h70.87v119.51h59.5V96.42h-59.5V213H856.5z"/></g></svg>