<svg xmlns="http://www.w3.org/2000/svg" width="1466" height="390" viewBox="0 0 1466 389.99"><pattern id="diagonal-texture" patternUnits="userSpaceOnUse" width="6" height="6"><style>.diagonal-1{fill:#242424}</style><path d="M0 0h6v6H0z"/><path class="diagonal-1" d="M5 0h1v1H5zM4 1h1v1H4zM3 2h1v1H3zM2 3h1v1H2zM1 4h1v1H1zM0 5h1v1H0zM4.5.5H5V1h-.5zM5 1h.5v.5H5zM4 2h.5v.5H4zm-.5-.5H4V2h-.5zm-1 1H3V3h-.5zM3 3h.5v.5H3zM2 4h.5v.5H2zM1 5h.5v.5H1zM0 0h.5v.5H0z"/>/&gt;<path class="diagonal-1" d="M5.5 5.5H6V6h-.5zm-4-2H2V4h-.5zm-1 1H1V5H.5z"/></pattern><path d="M128.7 276.07c55.82 0 90.83-34.81 90.83-89.83 0-56.42-35-91.43-91.23-91.43h-83v280.1h58.62v-98.84zm-.6-127.45c17.41 0 31.61 12.2 31.61 37.61 0 25.21-14.21 37.41-31.61 37.41h-24.21v-75zm157.78-53.81h-58.62v280.1h58.62zm112.61-4.2c-63.22 0-101.64 51.22-101.64 144.25s38.41 144.25 101.64 144.25c40.81 0 70.42-22.21 85.23-61.22l-49-25.21c-8.2 19.81-19.81 29.21-36 29.21-24.21 0-41.21-25.81-41.21-87 0-59.62 15.61-87 41.21-87 16.21 0 27.81 9.6 35.41 29.21l50.62-23.21c-14.23-40.67-45.44-63.28-86.26-63.28zm148.58 4.2h-58.62v280.1h58.62V260.47h69.83v114.44h58.62V94.81H616.9v111.64h-69.83zm328.44 0h-58.82v188.67c0 26-13 38.21-33.81 38.21s-33.81-12.2-33.81-38.21V94.81h-58.82v191.47c0 55.42 31.81 92.83 92.63 92.83s92.63-37.41 92.63-92.83z" fill="url(#diagonal-texture)"/></svg>