<svg xmlns="http://www.w3.org/2000/svg" width="1466" height="412" viewBox="0 0 1466 412"><pattern id="diagonal-texture" patternUnits="userSpaceOnUse" width="6" height="6"><style>.diagonal-1{fill:#242424}</style><path d="M0 0h6v6H0z"/><path class="diagonal-1" d="M5 0h1v1H5zM4 1h1v1H4zM3 2h1v1H3zM2 3h1v1H2zM1 4h1v1H1zM0 5h1v1H0zM4.5.5H5V1h-.5zM5 1h.5v.5H5zM4 2h.5v.5H4zm-.5-.5H4V2h-.5zm-1 1H3V3h-.5zM3 3h.5v.5H3zM2 4h.5v.5H2zM1 5h.5v.5H1zM0 0h.5v.5H0z"/>/&gt;<path class="diagonal-1" d="M5.5 5.5H6V6h-.5zm-4-2H2V4h-.5zm-1 1H1V5H.5z"/></pattern><path d="M93 312.379H82.5l-3.654 24.941h-8.034l3.657-24.941H64.037L60.38 337.32H47.609v10.432h11.272l-2.518 16.967H43.892v10.372h10.972l-3.6 24.581h10.495l3.541-24.58h8.03l-3.6 24.581h10.495l3.6-24.581h12.408v-10.373H85.321l2.518-16.967h12.231V337.32H89.338zm-18.171 52.34H66.8l2.518-16.967h8.034zm75.049-44.756a20.577 20.577 0 0 0-8.034-6.655 25.684 25.684 0 0 0-20.475 0 20.627 20.627 0 0 0-8 6.655 33.683 33.683 0 0 0-5.216 11.571 66.567 66.567 0 0 0-1.859 16.817v15.229a65.832 65.832 0 0 0 1.889 16.877 34.074 34.074 0 0 0 5.246 11.571 20.814 20.814 0 0 0 8.034 6.685 25.356 25.356 0 0 0 20.474 0 20.886 20.886 0 0 0 8-6.685 33.7 33.7 0 0 0 5.216-11.571 66.879 66.879 0 0 0 1.859-16.877v-15.228a65.572 65.572 0 0 0-1.889-16.817 34.108 34.108 0 0 0-5.245-11.572zm-9.893 45.955a70.987 70.987 0 0 1-.57 9.8 25.225 25.225 0 0 1-1.649 6.445 8.253 8.253 0 0 1-2.608 3.537 5.835 5.835 0 0 1-3.447 1.079 6.065 6.065 0 0 1-3.537-1.079 8.32 8.32 0 0 1-2.668-3.537 24.932 24.932 0 0 1-1.709-6.445 67.4 67.4 0 0 1-.6-9.8v-20.024a65.641 65.641 0 0 1 .6-9.683 25.351 25.351 0 0 1 1.679-6.355 8.146 8.146 0 0 1 2.638-3.507 6.142 6.142 0 0 1 6.955 0 8.152 8.152 0 0 1 2.638 3.507 25.384 25.384 0 0 1 1.679 6.355 65.776 65.776 0 0 1 .6 9.683zM204 354.707a20.94 20.94 0 0 0 7.434-7.854 23.042 23.042 0 0 0 2.7-11.272 29.318 29.318 0 0 0-1.739-10.492 21.27 21.27 0 0 0-4.856-7.644 20.427 20.427 0 0 0-7.464-4.677 29.394 29.394 0 0 0-19.066 0 20.7 20.7 0 0 0-7.494 4.677 21.045 21.045 0 0 0-4.886 7.644 29.3 29.3 0 0 0-1.739 10.492 23.043 23.043 0 0 0 2.7 11.272 20.781 20.781 0 0 0 7.494 7.854 21.907 21.907 0 0 0-8.574 8.394 24.841 24.841 0 0 0-3.118 12.65 28.594 28.594 0 0 0 1.919 10.912 21.552 21.552 0 0 0 13.31 12.621 32.249 32.249 0 0 0 19.995 0 21.456 21.456 0 0 0 7.914-4.766 22.157 22.157 0 0 0 5.216-7.854 29.01 29.01 0 0 0 1.889-10.912 24.687 24.687 0 0 0-3.118-12.62 22.526 22.526 0 0 0-8.517-8.425zm-18.4-26.47a5.344 5.344 0 0 1 4.916-2.968 5.4 5.4 0 0 1 5.066 3.058 17.221 17.221 0 0 1 1.649 8.154 18.212 18.212 0 0 1-1.619 8.3 5.277 5.277 0 0 1-4.976 3.148 5.4 5.4 0 0 1-5.036-3.148 17.652 17.652 0 0 1-1.679-8.3 16.855 16.855 0 0 1 1.679-8.244zm10.942 55.278a6.594 6.594 0 0 1-5.906 3.268 6.928 6.928 0 0 1-6.085-3.268q-2.189-3.267-2.188-9.083t2.188-9.113a6.813 6.813 0 0 1 5.966-3.3 6.742 6.742 0 0 1 5.935 3.3q2.158 3.3 2.158 9.113t-2.072 9.083zM134.4 14.7H46.213v297.518h62.265v-104.98h26.351c59.29 0 96.479-36.977 96.479-95.417C231.309 51.894 194.12 14.7 134.4 14.7zm-.213 136.856h-25.709V71.87h25.714c18.488 0 33.577 12.963 33.577 39.952-.001 26.778-15.089 39.739-33.577 39.739zM254.501 14.705h62.265v297.513h-62.265zm375.762-.005l-75.619 283.827-76.786-138.678L556.487 14.7h-71.828l-59.5 119.218h-13.816V14.7h-62.265v297.518h62.265V190.663h12.963l64.178 121.555h126.478l14.026-61.2h73.528l14.238 61.2h64.6L702.091 14.7zm11.9 179.783l23.589-102.637 23.8 102.642zM889.774 71.02c17.213 0 29.539 10.2 37.614 31.026l53.765-24.651c-15.088-43.139-48.24-67.153-91.592-67.153-67.153 0-107.955 54.4-107.955 153.22s40.8 153.219 107.955 153.219c43.352 0 74.8-23.589 90.529-65.028l-52.065-26.776c-8.713 21.038-21.038 31.026-38.252 31.026C864.06 255.9 846 228.489 846 163.461c0-63.328 16.573-92.441 43.774-92.441zm246.752 62.265h-74.166V14.705h-62.265v297.513h62.265V190.663h74.166v121.555h62.265V14.705h-62.265v118.58zM1363.73 14.7v200.4c0 27.626-13.813 40.589-35.914 40.589S1291.9 242.727 1291.9 215.1V14.7h-62.478v203.376c0 58.865 33.789 98.6 98.392 98.6s98.392-39.739 98.392-98.6V14.7z" fill="url(#diagonal-texture)"/></svg>