<svg id="レイヤー_1" data-name="レイヤー 1" xmlns="http://www.w3.org/2000/svg" viewBox="0 0 1466 617"><pattern id="diagonal-texture" patternUnits="userSpaceOnUse" width="6" height="6"><style>.diagonal-1{fill:#242424}</style><path d="M0 0h6v6H0z"/><path class="diagonal-1" d="M5 0h1v1H5zM4 1h1v1H4zM3 2h1v1H3zM2 3h1v1H2zM1 4h1v1H1zM0 5h1v1H0zM4.5.5H5V1h-.5zM5 1h.5v.5H5zM4 2h.5v.5H4zm-.5-.5H4V2h-.5zm-1 1H3V3h-.5zM3 3h.5v.5H3zM2 4h.5v.5H2zM1 5h.5v.5H1zM0 0h.5v.5H0z"/>/&gt;<path class="diagonal-1" d="M5.5 5.5H6V6h-.5zm-4-2H2V4h-.5zm-1 1H1V5H.5z"/></pattern><g fill="url(#diagonal-texture)"><path d="M103.508 201.07v102.259H48.316V13.527h78.174c52.931 0 85.9 36.226 85.9 94.6 0 56.925-32.965 92.943-85.52 92.943zm0-131.859v77.625H126.3c16.388 0 29.762-12.627 29.762-38.709 0-26.289-13.374-38.916-29.762-38.916zm170.66 234.118h-55.192V13.527h55.192zm89.849-289.802c53.12 0 85.9 34.777 85.9 91.7 0 40.986-19.025 70.587-51.425 82.386l56.134 115.714H391.9L343.484 193h-3.2v110.329h-55.195V13.527zm-23.735 55.684v72.243h24.111c16.388 0 29.2-11.385 29.2-36.225 0-24.633-13-36.018-29.2-36.018z"/><path d="M646.567 303.329H589.3l-12.62-59.617h-65.174l-12.433 59.617h-56.7l70.262-289.8H576.3zM523.185 188.65h42.006l-21.1-99.981zm310.62 114.679h-54.062l-74.6-168.913v168.913H650.9V13.527h54.06l74.406 169.534V13.527h54.439zm66.116-174.295h65.74V13.527h55.193v289.8h-55.193v-118.4h-65.74v118.402h-55.192V13.527h55.192z"/><path d="M1221.651 303.329h-57.263l-12.621-59.617h-65.176l-12.433 59.617h-56.7l70.262-289.8h63.669zM1098.27 188.65h42.006l-21.1-99.981zM103.508 489.07v102.258H48.316v-289.8h78.174c52.931 0 85.9 36.225 85.9 94.6 0 56.926-32.965 92.944-85.52 92.944zm0-131.86v77.625H126.3c16.388 0 29.762-12.627 29.762-38.709 0-26.289-13.374-38.916-29.762-38.916zm258.44 234.118H218.976v-289.8h55.192v233.91h87.78zm205.508 0h-57.265l-12.621-59.616H432.4l-12.433 59.616h-56.7l70.261-289.8h63.669zM444.073 476.65h42.007l-21.1-99.982zm310.62 114.678h-54.061l-74.595-168.912v168.912h-54.25v-289.8h54.062l74.406 169.534V301.527h54.438zM924.6 357.417h-53.872v233.911h-55.193V357.417h-53.874v-55.89H924.6z"/></g></svg>