<svg id="レイヤー_1" data-name="レイヤー 1" xmlns="http://www.w3.org/2000/svg" viewBox="0 0 1466 378"><pattern id="diagonal-texture" patternUnits="userSpaceOnUse" width="6" height="6"><style>.diagonal-1{fill:#242424}</style><path d="M0 0h6v6H0z"/><path class="diagonal-1" d="M5 0h1v1H5zM4 1h1v1H4zM3 2h1v1H3zM2 3h1v1H2zM1 4h1v1H1zM0 5h1v1H0zM4.5.5H5V1h-.5zM5 1h.5v.5H5zM4 2h.5v.5H4zm-.5-.5H4V2h-.5zm-1 1H3V3h-.5zM3 3h.5v.5H3zM2 4h.5v.5H2zM1 5h.5v.5H1zM0 0h.5v.5H0z"/>/&gt;<path class="diagonal-1" d="M5.5 5.5H6V6h-.5zm-4-2H2V4h-.5zm-1 1H1V5H.5z"/></pattern><path d="M148.44 10.65H43.18v355.1h74.32v-125.3h31.45c70.77 0 115.15-44.13 115.15-113.88 0-71.57-44.39-115.92-115.66-115.92zM148.19 174H117.5V78.88h30.69c22.07 0 40.08 15.47 40.08 47.68-.01 31.96-18.02 47.44-40.08 47.44zM286.78 10.65h74.32v355.1h-74.32zm92.37 68.48h72.54v286.62h74.32V79.13h72.54V10.65h-219.4v68.48z" fill="url(#diagonal-texture)"/></svg>