<svg xmlns="http://www.w3.org/2000/svg" width="1466" height="535" viewBox="0 0 1466 535.007"><pattern id="diagonal-texture" patternUnits="userSpaceOnUse" width="6" height="6"><style>.diagonal-1{fill:#242424}</style><path d="M0 0h6v6H0z"/><path class="diagonal-1" d="M5 0h1v1H5zM4 1h1v1H4zM3 2h1v1H3zM2 3h1v1H2zM1 4h1v1H1zM0 5h1v1H0zM4.5.5H5V1h-.5zM5 1h.5v.5H5zM4 2h.5v.5H4zm-.5-.5H4V2h-.5zm-1 1H3V3h-.5zM3 3h.5v.5H3zM2 4h.5v.5H2zM1 5h.5v.5H1zM0 0h.5v.5H0z"/>/&gt;<path class="diagonal-1" d="M5.5 5.5H6V6h-.5zm-4-2H2V4h-.5zm-1 1H1V5H.5z"/></pattern><g fill="url(#diagonal-texture)"><path d="M174.9 301.086H36.5v43.2h45.76v180.8h46.881v-180.8H174.9zm6.557 0v224.005h46.881v-85.282h2.72l41.121 85.282h53.281l-47.68-89.442c27.521-9.12 43.681-32 43.681-63.681 0-44-27.841-70.882-72.962-70.882zm67.361 43.041c13.76 0 24.8 8.8 24.8 27.841 0 19.2-10.88 28-24.8 28h-20.48v-55.841z"/><path d="M429.3 301.086h-54.083l-59.682 224.005H363.7l10.56-46.081h55.361l10.72 46.081h48.641zm-27.361 58.081l17.92 77.282h-35.682zm138.236-58.081h-46.881v224.005h46.881zm171.679 0h-46.241v131.043l-63.2-131.043H556.49v224.005h46.081V394.528l63.361 130.563h45.921zM848.651 482.53h-73.6v-49.281h69.122v-42.561h-69.124v-47.041h74.242v-42.561H728.168v224.005h120.483zm14.554-181.444v224.005h46.881v-85.282h2.72l41.121 85.282h53.281l-47.681-89.442c27.521-9.12 43.681-32 43.681-63.681 0-44-27.841-70.882-72.962-70.882zm67.361 43.041c13.76 0 24.8 8.8 24.8 27.841 0 19.2-10.88 28-24.8 28h-20.48v-55.841zM112.981 222.152c44.641 0 72.642-27.841 72.642-71.842 0-45.121-28-73.122-72.962-73.122h-66.4v224.006H93.14v-79.042zM112.5 120.23c13.92 0 25.281 9.76 25.281 30.081 0 20.161-11.36 29.921-25.281 29.921H93.14v-60zm160.638-46.401c-51.681 0-82.4 41.441-82.4 115.363s30.721 115.363 82.4 115.363c51.521 0 82.4-41.441 82.4-115.363s-30.879-115.363-82.4-115.363zm-.16 45.761c21.44 0 33.921 22.081 33.921 69.6s-12.48 69.6-33.921 69.6-33.921-22.08-33.921-69.6 12.48-69.6 33.921-69.6z"/><path d="M472.336 301.194h55.521l-63.521-114.722 59.2-109.282h-54.08l-44.8 89.762h-10.4V77.189h-46.883v224.005h46.881v-91.522h9.76zm179.839-42.561h-73.6v-49.281H647.7v-42.561h-69.126V119.75h74.242V77.189H531.693v224.005h120.482zM593.294 9.188l-26.561 52.641h38.561l34.561-52.641m219.679 68.001h-63.681l-32.641 108-32.8-108H666.73v224.005h46.4V146.951l27.681 96.642h44.641l27.681-96.962v154.563h46.4zm94.397-3.36c-51.681 0-82.4 41.441-82.4 115.363s30.721 115.363 82.4 115.363c51.521 0 82.4-41.441 82.4-115.363s-30.879-115.363-82.4-115.363zm-.16 45.761c21.44 0 33.921 22.081 33.921 69.6s-12.48 69.6-33.921 69.6-33.921-22.08-33.921-69.6 12.48-69.6 33.921-69.6zm249.759-42.401h-46.241v131.043l-63.2-131.043h-45.921v224.005h46.081V170.631l63.361 130.563h45.921z"/></g></svg>