<svg id="レイヤー_1" xmlns="http://www.w3.org/2000/svg" viewBox="0 0 1466 422"><pattern id="diagonal-texture" patternUnits="userSpaceOnUse" width="6" height="6"><style>.diagonal-1{fill:#242424}</style><path d="M0 0h6v6H0z"/><path class="diagonal-1" d="M5 0h1v1H5zM4 1h1v1H4zM3 2h1v1H3zM2 3h1v1H2zM1 4h1v1H1zM0 5h1v1H0zM4.5.5H5V1h-.5zM5 1h.5v.5H5zM4 2h.5v.5H4zm-.5-.5H4V2h-.5zm-1 1H3V3h-.5zM3 3h.5v.5H3zM2 4h.5v.5H2zM1 5h.5v.5H1zM0 0h.5v.5H0z"/>/&gt;<path class="diagonal-1" d="M5.5 5.5H6V6h-.5zm-4-2H2V4h-.5zm-1 1H1V5H.5z"/></pattern><path d="M460.8 138.3c0-76.6-48.5-123.5-127.1-123.5H216.9V405h81.7V256.4h4.7L374.9 405h92.8l-83-155.8c47.9-15.9 76.1-55.7 76.1-110.9zm-126.5 48.8h-35.7V89.8h35.7c24 0 43.2 15.3 43.2 48.5 0 33.4-19 48.8-43.2 48.8zm202 126.8c-26.8-.2-48.6 21.4-48.8 48.2s21.4 48.6 48.2 48.8h.6c27 0 48.2-21.5 48.2-48.5.2-26.6-21.2-48.3-47.7-48.5h-.5zM753.1 9c-90 0-143.5 72.2-143.5 200.9s53.5 200.9 143.5 200.9c89.7 0 143.5-72.2 143.5-200.9S842.8 9 753.1 9zm-.3 322.1c-37.3 0-59.1-38.5-59.1-121.2s21.7-121.2 59.1-121.2 59.1 38.5 59.1 121.2-21.8 121.2-59.1 121.2zm204.5-17.2c-26.8-.2-48.6 21.4-48.8 48.2-.2 26.8 21.4 48.6 48.2 48.8h.6c27 0 48.2-21.5 48.2-48.5.2-26.6-21.2-48.3-47.7-48.5h-.5zM1241 206.6c27.3-16.2 45.1-43.2 45.1-81.1 0-70-47.7-110.6-125.1-110.6h-117.3V405h123.5c80.5 0 125.4-40.7 125.4-111.8 0-40.1-20.6-70.5-51.6-86.6zM1125.4 86.7h35.1c23.7 0 41.5 13.1 41.5 43.2 0 29.8-17.8 42.9-41.8 42.9h-34.8V86.7zm40.1 246.4h-40.1v-89.5h40.1c25.1 0 43.2 13.4 43.2 44.9 0 31.2-18.4 44.6-43.2 44.6zm204.8-19.2c-26.8-.2-48.6 21.4-48.8 48.2s21.4 48.6 48.2 48.8h.6c27 0 48.2-21.5 48.2-48.5.2-26.6-21.2-48.3-47.7-48.5h-.5z" fill="url(#diagonal-texture)"/></svg>