<svg xmlns="http://www.w3.org/2000/svg" width="1466" height="481" viewBox="0 0 1466 481"><pattern id="diagonal-texture" patternUnits="userSpaceOnUse" width="6" height="6"><style>.diagonal-1{fill:#242424}</style><path d="M0 0h6v6H0z"/><path class="diagonal-1" d="M5 0h1v1H5zM4 1h1v1H4zM3 2h1v1H3zM2 3h1v1H2zM1 4h1v1H1zM0 5h1v1H0zM4.5.5H5V1h-.5zM5 1h.5v.5H5zM4 2h.5v.5H4zm-.5-.5H4V2h-.5zm-1 1H3V3h-.5zM3 3h.5v.5H3zM2 4h.5v.5H2zM1 5h.5v.5H1zM0 0h.5v.5H0z"/>/&gt;<path class="diagonal-1" d="M5.5 5.5H6V6h-.5zm-4-2H2V4h-.5zm-1 1H1V5H.5z"/></pattern><g fill="url(#diagonal-texture)"><path d="M70.233 470.173h10.492l3.6-24.582h12.408V435.22H85.821l2.518-16.967h12.231V407.82H89.838l3.662-24.941H83l-3.654 24.941h-8.034l3.657-24.941H64.537L60.88 407.82H48.11v10.432h11.271l-2.518 16.968H44.392v10.372h10.972l-3.6 24.582h10.495l3.541-24.582h8.03zm-.42-51.921h8.034l-2.518 16.968H67.3zm75.169-36.272a35.971 35.971 0 0 0-16.188 3.507 33.5 33.5 0 0 0-11.9 9.833 45.092 45.092 0 0 0-7.344 15.139 70.557 70.557 0 0 0-2.518 19.425v6.716a51.484 51.484 0 0 0 1.829 14.149 33.656 33.656 0 0 0 5.246 11 24.034 24.034 0 0 0 8.274 7.1 23.348 23.348 0 0 0 10.912 2.518 23.48 23.48 0 0 0 18.586-8.633 29.086 29.086 0 0 0 5.1-9.5 37.789 37.789 0 0 0 1.8-11.841 49.179 49.179 0 0 0-1.289-11.451 30.286 30.286 0 0 0-3.9-9.443 20.137 20.137 0 0 0-6.505-6.415 17.2 17.2 0 0 0-9.113-2.368 17.437 17.437 0 0 0-7.674 1.649 18.5 18.5 0 0 0-5.935 4.527 32.6 32.6 0 0 1 2.308-9.023 21.888 21.888 0 0 1 4.437-6.775 18.111 18.111 0 0 1 6.565-4.257 24.361 24.361 0 0 1 8.753-1.469h.839V381.98zm-8.543 44.936a9.982 9.982 0 0 1 2.938 3.267 17.59 17.59 0 0 1 1.889 5.006 28.9 28.9 0 0 1 .659 6.385 29.471 29.471 0 0 1-.629 6.3 18.169 18.169 0 0 1-1.8 4.976 9.553 9.553 0 0 1-2.848 3.268 6.362 6.362 0 0 1-3.717 1.169q-4.017 0-6.475-4.557T124 438.937v-6.115a12.581 12.581 0 0 1 3.268-5.036 7.659 7.659 0 0 1 5.426-2.038 6.5 6.5 0 0 1 3.744 1.168zm44.501 3.807a21.254 21.254 0 0 1 1.319-1.769 7.89 7.89 0 0 1 1.709-1.529 9.047 9.047 0 0 1 2.338-1.079 10.645 10.645 0 0 1 3.148-.42 9.246 9.246 0 0 1 4.646 1.109 9.38 9.38 0 0 1 3.237 3.088 14.1 14.1 0 0 1 1.889 4.8 30.062 30.062 0 0 1 .6 6.235 42.071 42.071 0 0 1-.45 6.355 17.807 17.807 0 0 1-1.5 5.1 9.208 9.208 0 0 1-2.728 3.417 6.6 6.6 0 0 1-4.077 1.259 7.059 7.059 0 0 1-5.875-3q-2.279-3-2.7-8.454h-16.785a26.386 26.386 0 0 0 2.218 10.792 24.464 24.464 0 0 0 13.849 13.04 26.594 26.594 0 0 0 9.413 1.709 24.925 24.925 0 0 0 11.271-2.4 23.291 23.291 0 0 0 7.974-6.415 27.258 27.258 0 0 0 4.736-9.293 38.951 38.951 0 0 0 1.559-11.092 47.854 47.854 0 0 0-1.469-12.411 26.718 26.718 0 0 0-4.317-9.233 18.707 18.707 0 0 0-7.045-5.756 22.394 22.394 0 0 0-9.653-1.978 15.218 15.218 0 0 0-3.208.33 19.122 19.122 0 0 0-2.848.839 18.447 18.447 0 0 0-2.338 1.079q-1.02.57-1.739 1.049l1.559-18.706h28.359v-14.51h-42.265l-4.317 44.367z"/><path d="M41.858 11.241V385.1H120.1V242.769h4.54L193.272 385.1H282.2l-79.581-149.275c45.932-15.221 72.9-53.409 72.9-106.284 0-73.437-46.466-118.3-121.772-118.3zm112.425 71.835c22.966 0 41.392 14.688 41.392 46.466 0 32.045-18.159 46.733-41.392 46.733H120.1v-93.2zm231.954-71.835h-78.244V385.1h78.244zm40.539 0V385.1h112.693c92.665 0 143.67-73.17 143.67-186.931 0-114.028-51.006-186.931-143.67-186.931zM537.6 83.343c46.2 0 64.625 43.261 64.625 114.829C602.225 269.206 583.8 313 537.6 313h-32.58V83.343zM918.824 313H794.381V11.241h-78.244V385.1h202.687zm225.292 1.07h-122.84v-82.25h115.363v-71.034h-115.363V82.275h123.909V11.241H943.032V385.1h201.085zm299.261-302.829h-84.92l-54.744 136.193-54.745-136.193h-87.591l103.08 231.259v142.6h78.243V240.632z"/></g></svg>