<svg xmlns="http://www.w3.org/2000/svg" width="1466" height="399" viewBox="0 0 1466 399"><pattern id="diagonal-texture" patternUnits="userSpaceOnUse" width="6" height="6"><style>.diagonal-1{fill:#242424}</style><path d="M0 0h6v6H0z"/><path class="diagonal-1" d="M5 0h1v1H5zM4 1h1v1H4zM3 2h1v1H3zM2 3h1v1H2zM1 4h1v1H1zM0 5h1v1H0zM4.5.5H5V1h-.5zM5 1h.5v.5H5zM4 2h.5v.5H4zm-.5-.5H4V2h-.5zm-1 1H3V3h-.5zM3 3h.5v.5H3zM2 4h.5v.5H2zM1 5h.5v.5H1zM0 0h.5v.5H0z"/>/&gt;<path class="diagonal-1" d="M5.5 5.5H6V6h-.5zm-4-2H2V4h-.5zm-1 1H1V5H.5z"/></pattern><path d="M278.633 131.706c0-72.359-45.783-116.564-119.984-116.564H48.4v368.373h77.1V243.27h4.473l67.623 140.245h87.62L206.8 236.429c45.257-14.998 71.833-52.629 71.833-104.723zm-119.458 46.046h-33.68v-91.83h33.68c22.629 0 40.784 14.472 40.784 45.783 0 31.576-17.893 46.047-40.784 46.047zM438.2 9.617c-84.989 0-135.508 68.149-135.508 189.712S353.214 389.04 438.2 389.04c84.726 0 135.508-68.149 135.508-189.712S522.929 9.617 438.2 9.617zm-.263 304.17c-35.258 0-55.782-36.311-55.782-114.458S402.682 84.87 437.94 84.87s55.782 36.311 55.782 114.459S473.2 313.787 437.94 313.787zm354.828-117.616c25.786-15.261 42.626-40.784 42.626-76.569 0-66.044-44.994-104.46-118.142-104.46H606.474v368.373h116.563c76.043 0 118.405-38.416 118.405-105.512.001-37.89-19.47-66.571-48.677-81.832zM683.569 83.028h33.154c22.365 0 39.205 12.367 39.205 40.784 0 28.154-16.84 40.521-39.469 40.521h-32.89zm37.89 232.6h-37.89v-84.462h37.89c23.681 0 40.784 12.63 40.784 42.363 0 29.471-17.367 42.1-40.784 42.1zm151.419 67.886h77.1V15.142h-77.1zm296.588-368.372v215.5l-103.934-215.5h-75.516v368.373h75.784V168.806L1170 383.514h75.516V15.142z" fill="url(#diagonal-texture)"/></svg>