<svg xmlns="http://www.w3.org/2000/svg" width="1466" height="551" viewBox="0 0 1466 551"><pattern id="diagonal-texture" patternUnits="userSpaceOnUse" width="6" height="6"><style>.diagonal-1{fill:#242424}</style><path d="M0 0h6v6H0z"/><path class="diagonal-1" d="M5 0h1v1H5zM4 1h1v1H4zM3 2h1v1H3zM2 3h1v1H2zM1 4h1v1H1zM0 5h1v1H0zM4.5.5H5V1h-.5zM5 1h.5v.5H5zM4 2h.5v.5H4zm-.5-.5H4V2h-.5zm-1 1H3V3h-.5zM3 3h.5v.5H3zM2 4h.5v.5H2zM1 5h.5v.5H1zM0 0h.5v.5H0z"/>/&gt;<path class="diagonal-1" d="M5.5 5.5H6V6h-.5zm-4-2H2V4h-.5zm-1 1H1V5H.5z"/></pattern><g fill="url(#diagonal-texture)" fill-rule="evenodd"><path d="M206 313.707a20.94 20.94 0 0 0 7.434-7.854 23.042 23.042 0 0 0 2.7-11.272 29.318 29.318 0 0 0-1.739-10.492 21.269 21.269 0 0 0-4.856-7.644c-.145-.143-.307-.266-.456-.4h.79L155.63 171.351c31.308-10.675 49.693-37.456 49.693-74.538 0-51.5-31.672-82.965-83-82.965H46.052v262.193h19.3L62.38 296.32H49.609v10.432h11.272l-2.518 16.967H45.892v10.372h10.972l-3.6 24.581h10.495l3.541-24.58h8.03l-3.6 24.581h10.495l3.6-24.581h12.408v-10.373H87.321l2.518-16.967h12.231V296.32H91.338l2.974-20.279h5.073V176.22h3.094l44.6 95.158H135.99l-29.618 57.437.779 10.972h28.9v18.886h16.967v-18.886h7.434V325.7h-7.434v-49.659h22.958c-.15.139-.313.261-.46.4a21.044 21.044 0 0 0-4.886 7.644 29.3 29.3 0 0 0-1.739 10.492 23.043 23.043 0 0 0 2.7 11.272 20.781 20.781 0 0 0 7.494 7.854 21.907 21.907 0 0 0-8.573 8.394 24.841 24.841 0 0 0-3.118 12.65 28.593 28.593 0 0 0 1.919 10.912 21.552 21.552 0 0 0 13.31 12.621 32.249 32.249 0 0 0 20 0 21.455 21.455 0 0 0 7.914-4.766 22.156 22.156 0 0 0 5.216-7.854 29.01 29.01 0 0 0 1.889-10.912 24.687 24.687 0 0 0-3.118-12.62 22.526 22.526 0 0 0-8.524-8.421zM76.829 323.719H68.8l2.518-16.967h8.034zm4.017-27.4h-8.034l2.974-20.279h8.034zm55.2 29.378h-13.19l12.83-28.539.36-.659zm-13.365-196.11h-23.3v-65.36h23.3c15.654 0 28.214 10.3 28.214 32.587.005 22.473-12.375 32.774-28.211 32.774zm64.919 157.65a5.344 5.344 0 0 1 4.916-2.968 5.4 5.4 0 0 1 5.066 3.058 17.22 17.22 0 0 1 1.649 8.154 18.212 18.212 0 0 1-1.619 8.3 5.277 5.277 0 0 1-4.976 3.148 5.4 5.4 0 0 1-5.036-3.148 17.651 17.651 0 0 1-1.679-8.3 16.855 16.855 0 0 1 1.679-8.244zm10.942 55.278a6.594 6.594 0 0 1-5.906 3.268 6.928 6.928 0 0 1-6.085-3.268q-2.189-3.267-2.188-9.083t2.188-9.113a6.813 6.813 0 0 1 5.966-3.3 6.742 6.742 0 0 1 5.935 3.3q2.158 3.3 2.158 9.113t-2.072 9.083zM603.98 417.5l-37.5-21.912-23.663 39.891-13.284-17.979c-2.548-3.371-4.733-6.742-7.1-9.739 19.294-20.039 37.133-42.7 37.133-72.1 0-25.922-12.238-47.641-32.931-57.964 36.066-7.875 60.84-35.849 60.84-78.621 0-35.958-18.384-61.615-58.794-77.16l-14.2-5.431c-19.112-7.3-29.124-16.481-29.124-30.339 0-14.983 10.921-23.785 26.211-23.785 17.292 0 31.49 7.678 42.047 18.915l32.95-38.776c-22.571-22.474-46.78-32.4-76.086-32.4-48.782 0-80.637 32.4-80.637 77.721 0 34.272 16.928 65.174 62.07 81.654l15.472 5.806c16.746 6.18 23.845 15.732 23.845 27.9 0 14.8-11.1 24.534-27.122 24.534-19.841 0-33.856-10.488-44.414-23.6l-36.041 36.894c12.4 15.944 28.767 28.233 49.388 34.454-25.063 9.325-39.617 33.268-39.617 63.926 0 24.159 8.373 40.64 26.029 65.174-19.112 20.039-35.859 43.636-35.859 73.227 0 38.58 23.845 63.488 64.983 63.488 23.845 0 41.319-10.113 55.153-24.721l15.654 20.788h58.977l-46.234-62.355zm-106.665-99.263c8.919 0 14.744 7.866 14.744 18.915 0 10.488-7.1 20.788-17.11 31.838-10.193-15.17-13.47-22.661-13.47-31.089 0-13.11 6.921-19.664 15.836-19.664zm-4.186 174.358c-10.375 0-17.474-6.929-17.474-19.1 0-10.488 5.279-20.414 13.106-30.339l14.562 19.477 12.2 16.481c-6.923 8.424-14.204 13.481-22.395 13.481zm228.308-217.433H668.1v262.193h138.16v-50.566h-84.823zm566.583 0l-67.9 262.193h54.789l12.013-53.937h62.98l12.2 53.937h55.335l-67.895-262.193zm10.193 158.438l20.2-90.456L1338.8 433.6zM315.668 9.915c-58.794 0-93.742 48.506-93.742 135.029s34.948 135.029 93.742 135.029c58.612 0 93.742-48.506 93.742-135.029S374.279 9.915 315.668 9.915zm-.182 216.5c-24.391 0-38.589-25.845-38.589-81.467s14.2-81.467 38.589-81.467 38.589 25.845 38.589 81.467-14.198 81.464-38.589 81.464zm418.377 49.629H789.2L721.3 13.848h-61.52l-67.895 262.193h54.789l12.013-53.941h62.98zm-63.89-103.753l20.2-90.457 20.387 90.457zm493.192-5.057l-71.9-153.383h-52.241v261.311h-27.682V13.848H958.01v261.314h-16.6v-49.687h-84.819V13.848h-53.333v262.193h6.854v178.348c0 51.877 28.942 86.9 84.277 86.9s84.277-35.021 84.277-86.9V276.041H996v261.314h52.787V356.816l31.49 113.117h50.785l31.49-113.492v180.914h52.787V276.041h.433V13.848h-52.6zM925.151 451.767c0 24.347-11.832 35.771-30.762 35.771s-30.762-11.424-30.762-35.771V276.041h61.524zm217.741-176.605l-37.133 126.414-37.059-125.535h22.744V123.22l71.667 151.942zm153.559-53.062h62.98l12.2 53.937h55.335l-67.898-262.189h-61.524l-67.895 262.193h54.789zm31.49-140.273l20.387 90.457h-40.591z"/><path d="M0 0h1466v551H0z" fill="none"/></g></svg>