<svg xmlns="http://www.w3.org/2000/svg" width="1466" height="402" viewBox="0 0 1466 401.946"><pattern id="diagonal-texture" patternUnits="userSpaceOnUse" width="6" height="6"><style>.diagonal-1{fill:#242424}</style><path d="M0 0h6v6H0z"/><path class="diagonal-1" d="M5 0h1v1H5zM4 1h1v1H4zM3 2h1v1H3zM2 3h1v1H2zM1 4h1v1H1zM0 5h1v1H0zM4.5.5H5V1h-.5zM5 1h.5v.5H5zM4 2h.5v.5H4zm-.5-.5H4V2h-.5zm-1 1H3V3h-.5zM3 3h.5v.5H3zM2 4h.5v.5H2zM1 5h.5v.5H1zM0 0h.5v.5H0z"/>/&gt;<path class="diagonal-1" d="M5.5 5.5H6V6h-.5zm-4-2H2V4h-.5zm-1 1H1V5H.5z"/></pattern><g fill="url(#diagonal-texture)"><path d="M330.5 10.681c-66.58 0-106.157 53.388-106.157 148.62s39.577 148.62 106.157 148.62c66.374 0 106.157-53.388 106.157-148.62S396.878 10.681 330.5 10.681zm-.2 238.287c-27.622 0-43.7-28.446-43.7-89.667s16.078-89.667 43.7-89.667S374 98.08 374 159.3s-16.081 89.668-43.7 89.668zM565.588 15.01l-42.257 105.126L481.075 15.01h-67.611l79.566 178.509v110.073h60.396V192.076L631.138 15.01h-65.55zM137.266 359.586q3.836-4.556 6.895-8.723a64.227 64.227 0 0 0 5.186-8.244 41.9 41.9 0 0 0 3.268-8.184 33.488 33.488 0 0 0-.45-18.856 20.457 20.457 0 0 0-4.706-7.794 20.777 20.777 0 0 0-7.7-4.886 30.217 30.217 0 0 0-10.582-1.709 25.735 25.735 0 0 0-11 2.278 24.565 24.565 0 0 0-8.274 6.175 27.69 27.69 0 0 0-5.216 9.113 33.452 33.452 0 0 0-1.829 11.152h17.027a29.654 29.654 0 0 1 .54-5.816 14.97 14.97 0 0 1 1.679-4.646 9.067 9.067 0 0 1 2.818-3.058 7.011 7.011 0 0 1 3.957-1.109 6.4 6.4 0 0 1 5.786 3.3q2.008 3.3 2.009 9.113a19.637 19.637 0 0 1-.42 3.957 23.681 23.681 0 0 1-1.439 4.437 45.68 45.68 0 0 1-2.7 5.246q-1.679 2.848-4.2 6.325l-23.622 30.037v11.991h51.441v-14.091h-29.68z"/><path d="M211.535 316.9v-13.308h13.551l-61.427-115.226c35.454-11.75 56.274-41.226 56.274-82.04 0-56.686-35.867-91.316-94-91.316H39.569v288.582h22.292L58.38 327.33H45.609v10.432h11.272l-2.518 16.967H41.892V365.1h10.972l-3.6 24.581h10.495L63.3 365.1h8.03l-3.6 24.581h10.495l3.6-24.581h12.408v-10.371H83.321l2.518-16.967H98.07V327.33H87.338l3.481-23.738h9.146V193.725h3.5l52.975 109.867h12.71l-4.2 43.163 13.49 3.477a21.259 21.259 0 0 1 1.319-1.769 7.889 7.889 0 0 1 1.709-1.529 9.045 9.045 0 0 1 2.338-1.079 10.646 10.646 0 0 1 3.148-.42 9.246 9.246 0 0 1 4.646 1.109 9.379 9.379 0 0 1 3.237 3.088 14.1 14.1 0 0 1 1.889 4.8 30.061 30.061 0 0 1 .6 6.235 42.071 42.071 0 0 1-.45 6.355 17.807 17.807 0 0 1-1.5 5.1 9.208 9.208 0 0 1-2.728 3.417 6.6 6.6 0 0 1-4.077 1.259 7.059 7.059 0 0 1-5.875-3q-2.279-3-2.7-8.454h-16.785a26.387 26.387 0 0 0 2.218 10.792 24.464 24.464 0 0 0 13.849 13.04 26.6 26.6 0 0 0 9.413 1.709 24.925 24.925 0 0 0 11.271-2.4 23.29 23.29 0 0 0 7.974-6.415 27.258 27.258 0 0 0 4.736-9.293 38.951 38.951 0 0 0 1.559-11.092 47.853 47.853 0 0 0-1.469-12.411 26.719 26.719 0 0 0-4.317-9.233 18.707 18.707 0 0 0-7.045-5.756 22.394 22.394 0 0 0-9.653-1.979 15.215 15.215 0 0 0-3.208.33 19.119 19.119 0 0 0-2.848.839 18.442 18.442 0 0 0-2.338 1.079q-1.02.57-1.739 1.049l1.559-18.706zM72.829 354.729H64.8l2.518-16.967h8.034zm4.017-27.4h-8.034l3.481-23.738h8.034zm49.5-184.932H99.965V70.459h26.385c17.727 0 31.95 11.337 31.95 35.867 0 24.735-14.017 36.074-31.951 36.074z"/></g></svg>