<svg xmlns="http://www.w3.org/2000/svg" width="1466" height="481" viewBox="0 0 1466 480.995"><pattern id="diagonal-texture" patternUnits="userSpaceOnUse" width="6" height="6"><style>.diagonal-1{fill:#242424}</style><path d="M0 0h6v6H0z"/><path class="diagonal-1" d="M5 0h1v1H5zM4 1h1v1H4zM3 2h1v1H3zM2 3h1v1H2zM1 4h1v1H1zM0 5h1v1H0zM4.5.5H5V1h-.5zM5 1h.5v.5H5zM4 2h.5v.5H4zm-.5-.5H4V2h-.5zm-1 1H3V3h-.5zM3 3h.5v.5H3zM2 4h.5v.5H2zM1 5h.5v.5H1zM0 0h.5v.5H0z"/>/&gt;<path class="diagonal-1" d="M5.5 5.5H6V6h-.5zm-4-2H2V4h-.5zm-1 1H1V5H.5z"/></pattern><g fill="url(#diagonal-texture)"><path d="M51.267 98.673h10.492L65.3 74.092h8.03l-3.6 24.582h10.495l3.6-24.582h12.408V63.719H85.321l2.518-16.967h12.231V36.32H89.338L93 11.379H82.5L78.846 36.32h-8.034l3.657-24.941H64.037L60.38 36.32H47.609v10.432h11.272l-2.518 16.967H43.892v10.373h10.972zm18.046-51.921h8.034l-2.518 16.967H66.8zM192.97 79.787v18.886h16.967V79.787h7.434V65.7h-7.434V11.379H192.91l-29.617 57.437.779 10.972zm-.36-42.628l.36-.659v29.2h-13.19z"/><path d="M182.368 251.7l-20.2-7.509c-27.186-10.1-41.427-22.785-41.427-41.945 0-20.713 15.535-32.882 37.284-32.882 24.6 0 44.793 10.616 59.81 26.151l46.864-53.6C232.6 110.852 198.161 97.13 156.476 97.13q-7.626 0-14.852.717c.1-.046.208-.086.31-.133a20.886 20.886 0 0 0 8-6.685 33.7 33.7 0 0 0 5.216-11.571 66.879 66.879 0 0 0 1.859-16.877V47.352a65.572 65.572 0 0 0-1.889-16.817 34.109 34.109 0 0 0-5.246-11.571 20.576 20.576 0 0 0-8.034-6.655 25.684 25.684 0 0 0-20.475 0 20.626 20.626 0 0 0-8 6.655 33.684 33.684 0 0 0-5.216 11.571 66.567 66.567 0 0 0-1.859 16.817V62.58a65.832 65.832 0 0 0 1.889 16.877 34.074 34.074 0 0 0 5.246 11.571 20.814 20.814 0 0 0 8.034 6.685 23.37 23.37 0 0 0 7.268 1.991c-53.473 10.358-86.951 51.017-86.951 104.876 0 47.382 24.079 90.1 88.291 112.888l22.008 8.026c23.82 8.544 33.918 21.749 33.918 38.579 0 20.454-15.794 33.918-38.579 33.918-28.222 0-48.159-14.5-63.176-32.623l-51.266 51.006c25.892 32.365 63.953 53.855 115.477 53.855C216.027 470.229 266 428.8 266 358.377c0-49.712-26.153-85.184-83.632-106.677zM125.506 81.166a24.931 24.931 0 0 1-1.709-6.445 67.4 67.4 0 0 1-.6-9.8V44.894a65.641 65.641 0 0 1 .6-9.683 25.352 25.352 0 0 1 1.679-6.355 8.146 8.146 0 0 1 2.638-3.507 6.142 6.142 0 0 1 6.955 0 8.152 8.152 0 0 1 2.638 3.507 25.385 25.385 0 0 1 1.679 6.355 65.776 65.776 0 0 1 .6 9.683v20.025a70.986 70.986 0 0 1-.57 9.8 25.224 25.224 0 0 1-1.649 6.445 8.253 8.253 0 0 1-2.608 3.537 5.835 5.835 0 0 1-3.447 1.079 6.065 6.065 0 0 1-3.537-1.079 8.32 8.32 0 0 1-2.669-3.535zm243.186 21.142l-96.576 362.484h77.934l17.089-74.568h89.585l17.347 74.568h78.711l-96.576-362.484zm14.5 219.044l28.74-125.057 29 125.057zm345.543-44.275l-53.078-174.769H572.608v362.484h75.086V215.196l44.793 156.386h72.238l44.792-156.904v250.114h75.086V102.308H781.554l-52.819 174.769zm356.652 69.39c0 33.659-16.83 49.453-43.757 49.453s-43.757-15.794-43.757-49.453V102.308h-76.122v247.784c0 71.72 41.168 120.138 119.879 120.138s119.879-48.417 119.879-120.138V102.308h-76.122zM1340.57 251.7l-20.2-7.509c-27.186-10.1-41.427-22.785-41.427-41.945 0-20.713 15.535-32.882 37.284-32.882 24.6 0 44.793 10.616 59.81 26.151l46.864-53.6c-32.106-31.07-66.542-44.793-108.227-44.793-69.39 0-114.7 44.793-114.7 107.451 0 47.382 24.079 90.1 88.291 112.888l22.008 8.026c23.82 8.544 33.918 21.749 33.918 38.579 0 20.454-15.794 33.918-38.579 33.918-28.222 0-48.159-14.5-63.176-32.623l-51.266 51.007c25.892 32.365 63.952 53.855 115.477 53.855 67.577 0 117.548-41.427 117.548-111.852.005-49.706-26.145-85.178-83.625-106.671z"/></g></svg>