<svg xmlns="http://www.w3.org/2000/svg" width="1466" height="421" viewBox="0 0 1466 421"><pattern id="diagonal-texture" patternUnits="userSpaceOnUse" width="6" height="6"><style>.diagonal-1{fill:#242424}</style><path d="M0 0h6v6H0z"/><path class="diagonal-1" d="M5 0h1v1H5zM4 1h1v1H4zM3 2h1v1H3zM2 3h1v1H2zM1 4h1v1H1zM0 5h1v1H0zM4.5.5H5V1h-.5zM5 1h.5v.5H5zM4 2h.5v.5H4zm-.5-.5H4V2h-.5zm-1 1H3V3h-.5zM3 3h.5v.5H3zM2 4h.5v.5H2zM1 5h.5v.5H1zM0 0h.5v.5H0z"/>/&gt;<path class="diagonal-1" d="M5.5 5.5H6V6h-.5zm-4-2H2V4h-.5zm-1 1H1V5H.5z"/></pattern><g fill="url(#diagonal-texture)" fill-rule="evenodd"><path d="M165 140.86l-17.156-6.379c-23.094-8.578-35.191-19.355-35.191-35.631 0-17.6 13.2-27.934 31.672-27.934 20.895 0 38.051 9.018 50.808 22.215L234.948 47.6C207.675 21.208 178.421 9.55 143.01 9.55c-58.947 0-97.438 38.051-97.438 91.279 0 40.251 20.455 76.542 75 95.9l18.7 6.818c20.236 7.259 28.814 18.476 28.814 32.773 0 17.376-13.417 28.813-32.773 28.813-23.974 0-40.91-12.317-53.667-27.714l-43.55 43.33c21.995 27.494 54.327 45.75 98.1 45.75 57.407 0 99.857-35.192 99.857-95.018-.005-42.232-22.22-72.365-71.053-90.621zm227.915-4.179h-76.758V13.949h-64.445v307.929h64.445V196.067h76.762v125.811h64.445V13.949h-64.445zm86.927 185.2h165.626v-58.51H544.291v-67.744h95.018v-58.506h-95.018V72.456h102.056V13.949h-166.5zm185.676 0h64.445V13.949h-64.441zm220.184-157.7l81.385-150.232h-74.343l-61.585 123.392h-14.3V13.949h-64.442v307.929h64.445V196.067h13.417L896.7 321.878h76.323z"/><path d="M0 0h1466v421H0z" fill="none"/></g></svg>