<svg xmlns="http://www.w3.org/2000/svg" width="1466" height="269" viewBox="0 0 1466 269"><pattern id="diagonal-texture" patternUnits="userSpaceOnUse" width="6" height="6"><style>.diagonal-1{fill:#242424}</style><path d="M0 0h6v6H0z"/><path class="diagonal-1" d="M5 0h1v1H5zM4 1h1v1H4zM3 2h1v1H3zM2 3h1v1H2zM1 4h1v1H1zM0 5h1v1H0zM4.5.5H5V1h-.5zM5 1h.5v.5H5zM4 2h.5v.5H4zm-.5-.5H4V2h-.5zm-1 1H3V3h-.5zM3 3h.5v.5H3zM2 4h.5v.5H2zM1 5h.5v.5H1zM0 0h.5v.5H0z"/>/&gt;<path class="diagonal-1" d="M5.5 5.5H6V6h-.5zm-4-2H2V4h-.5zm-1 1H1V5H.5z"/></pattern><path class="a" d="M794.587 40.062c-21.374-20.684-44.3-29.82-72.05-29.82-46.195 0-76.359 29.82-76.359 71.533 0 31.543 16.03 59.984 58.777 75.152l14.651 5.343c15.858 5.688 22.58 14.479 22.58 25.683 0 13.617-10.514 22.58-25.683 22.58-18.788 0-32.06-9.653-42.058-21.718l-34.129 33.957c17.237 21.546 42.575 35.852 76.876 35.852 44.988 0 78.255-27.579 78.255-74.463 0-33.095-17.409-56.709-55.675-71.016l-13.445-5c-18.1-6.722-27.579-15.168-27.579-27.924 0-13.789 10.342-21.891 24.821-21.891 16.375 0 29.82 7.067 39.817 17.409zm60.166-26.372h-50.5v241.316h50.5v-98.595h60.157v98.595h50.5V13.69h-50.5v96.181h-60.157zm283.036 0h-50.676v162.543c0 22.408-11.2 32.922-29.13 32.922s-29.13-10.515-29.13-32.922V13.69h-50.677v164.956c0 47.746 27.407 79.979 79.806 79.979s79.807-32.233 79.807-79.979zm143.763 194.776h-80.324V13.69h-50.5v241.316h130.827zm116.698 46.54h59.812l-68.43-123.588 63.775-117.728h-58.261l-48.263 96.7h-11.2v-96.7h-50.5v241.316h50.5v-98.595h10.514z" fill="url(#diagonal-texture)"/></svg>