<svg xmlns="http://www.w3.org/2000/svg" width="1466" height="314" viewBox="0 0 1466 314"><pattern id="diagonal-texture" patternUnits="userSpaceOnUse" width="6" height="6"><style>.diagonal-1{fill:#242424}</style><path d="M0 0h6v6H0z"/><path class="diagonal-1" d="M5 0h1v1H5zM4 1h1v1H4zM3 2h1v1H3zM2 3h1v1H2zM1 4h1v1H1zM0 5h1v1H0zM4.5.5H5V1h-.5zM5 1h.5v.5H5zM4 2h.5v.5H4zm-.5-.5H4V2h-.5zm-1 1H3V3h-.5zM3 3h.5v.5H3zM2 4h.5v.5H2zM1 5h.5v.5H1zM0 0h.5v.5H0z"/>/&gt;<path class="diagonal-1" d="M5.5 5.5H6V6h-.5zm-4-2H2V4h-.5zm-1 1H1V5H.5z"/></pattern><path d="M224.721 42.154c-26.046-25.206-53.983-36.339-87.8-36.339-56.294 0-93.053 36.339-93.053 87.172 0 38.44 19.535 73.1 71.628 91.583l17.854 6.512c19.325 6.932 27.517 17.644 27.517 31.3 0 16.594-12.813 27.517-31.3 27.517-22.9 0-39.07-11.763-51.253-26.467l-41.59 41.38C57.73 291.066 88.608 308.5 130.408 308.5c54.824 0 95.364-33.608 95.364-90.743 0-40.33-21.215-69.107-67.847-86.542l-16.384-6.091c-22.055-8.192-33.608-18.485-33.608-34.028 0-16.8 12.6-26.677 30.248-26.677 19.955 0 36.339 8.612 48.522 21.215zm73.26-32.138h-61.546v294.073h61.545zm270.312 0h-83.6L441.842 151.8 398.781 10.016h-83.6v294.073H376.1V101.6l36.335 126.87h58.6l36.339-127.292v202.911h60.915zM687.955 5.6c-67.847 0-108.177 54.4-108.177 151.448S620.108 308.5 687.955 308.5c67.637 0 108.177-54.4 108.177-151.448S755.591 5.6 687.955 5.6zm-.21 60.075c28.147 0 44.531 28.987 44.531 91.373s-16.384 91.373-44.531 91.373-44.531-28.987-44.531-91.373S659.6 65.68 687.744 65.68zm323.631-55.659h-60.705v172.033L867.7 10.016h-60.285v294.073h60.5v-171.4l83.181 171.4h60.285z" fill="url(#diagonal-texture)"/></svg>