<svg id="レイヤー_1" data-name="レイヤー 1" xmlns="http://www.w3.org/2000/svg" viewBox="0 0 1466 409"><pattern id="diagonal-texture" patternUnits="userSpaceOnUse" width="6" height="6"><style>.diagonal-1{fill:#242424}</style><path d="M0 0h6v6H0z"/><path class="diagonal-1" d="M5 0h1v1H5zM4 1h1v1H4zM3 2h1v1H3zM2 3h1v1H2zM1 4h1v1H1zM0 5h1v1H0zM4.5.5H5V1h-.5zM5 1h.5v.5H5zM4 2h.5v.5H4zm-.5-.5H4V2h-.5zm-1 1H3V3h-.5zM3 3h.5v.5H3zM2 4h.5v.5H2zM1 5h.5v.5H1zM0 0h.5v.5H0z"/>/&gt;<path class="diagonal-1" d="M5.5 5.5H6V6h-.5zm-4-2H2V4h-.5zm-1 1H1V5H.5z"/></pattern><g fill="url(#diagonal-texture)"><path d="M71.73 98.67h10.5l3.6-24.58h12.4V63.72H87.32l2.52-17h12.23v-10.4H91.34L95 11.38H84.5l-3.65 24.94h-8l3.66-24.94H66l-3.62 24.94H49.61v10.43h11.27l-2.52 17H45.89v10.34h11l-3.6 24.58h10.47l3.54-24.58h8zm-.42-51.92h8l-2.52 17h-8zM123.4 61h8.21a9.43 9.43 0 0 1 7.46 3q2.67 3 2.67 9.92a16.91 16.91 0 0 1-.66 4.89 11.21 11.21 0 0 1-1.89 3.75 8.38 8.38 0 0 1-3 2.4 9 9 0 0 1-4 .84 7.38 7.38 0 0 1-3.51-.84 8.36 8.36 0 0 1-2.68-2.32 11.42 11.42 0 0 1-1.8-3.48 14 14 0 0 1-.66-4.41h-17a26.64 26.64 0 0 0 2.16 11.18 23.27 23.27 0 0 0 5.67 7.82 22.68 22.68 0 0 0 8 4.62 29.48 29.48 0 0 0 9.32 1.5 32.11 32.11 0 0 0 10.61-1.71 24.41 24.41 0 0 0 8.51-5 23 23 0 0 0 5.67-8.06 27.31 27.31 0 0 0 2.07-10.91 24.64 24.64 0 0 0-3-12.47 18.68 18.68 0 0 0-9.2-7.91 20 20 0 0 0 4.77-3.51 22.75 22.75 0 0 0 3.51-4.5 21 21 0 0 0 2.94-10.76 28.43 28.43 0 0 0-1.89-10.76 21.54 21.54 0 0 0-5.28-7.79 22.08 22.08 0 0 0-8.12-4.74 32.66 32.66 0 0 0-10.43-1.59 26.7 26.7 0 0 0-9.62 1.71 23.51 23.51 0 0 0-7.76 4.8 22.34 22.34 0 0 0-5.22 7.49 24.29 24.29 0 0 0-1.92 9.8h17a11.77 11.77 0 0 1 .66-4.08 9.85 9.85 0 0 1 1.74-3.06 7.22 7.22 0 0 1 2.55-1.92 7.86 7.86 0 0 1 6.68.18 7.61 7.61 0 0 1 2.61 2.31 10.29 10.29 0 0 1 1.56 3.48 17.94 17.94 0 0 1 .51 4.41 15.45 15.45 0 0 1-2.16 8.72q-2.19 3.27-6.86 3.27h-8.22zm91-36.91a21.27 21.27 0 0 0-4.86-7.64 20.43 20.43 0 0 0-7.46-4.68 29.39 29.39 0 0 0-19.07 0 20.71 20.71 0 0 0-7.49 4.68 21 21 0 0 0-4.89 7.64 29.3 29.3 0 0 0-1.74 10.49 23 23 0 0 0 2.7 11.27 20.78 20.78 0 0 0 7.49 7.85 21.91 21.91 0 0 0-8.57 8.39 24.84 24.84 0 0 0-3.12 12.65 28.59 28.59 0 0 0 1.92 10.91 21.55 21.55 0 0 0 13.31 12.62 32.25 32.25 0 0 0 20 0 21.46 21.46 0 0 0 7.91-4.77 22.16 22.16 0 0 0 5.22-7.85 29 29 0 0 0 1.89-10.91 24.69 24.69 0 0 0-3.12-12.62 22.53 22.53 0 0 0-8.52-8.41 20.94 20.94 0 0 0 7.43-7.85 23 23 0 0 0 2.7-11.27 29.32 29.32 0 0 0-1.73-10.5zm-15.86 58.43a6.59 6.59 0 0 1-5.91 3.27 6.93 6.93 0 0 1-6.09-3.27q-2.19-3.27-2.19-9.08t2.19-9.11a6.81 6.81 0 0 1 6-3.3 6.74 6.74 0 0 1 5.94 3.3q2.16 3.3 2.16 9.11t-2.1 9.08zm-.93-38.73a5.28 5.28 0 0 1-5 3.15 5.4 5.4 0 0 1-5-3.15 17.65 17.65 0 0 1-1.68-8.3 16.85 16.85 0 0 1 1.68-8.24 5.34 5.34 0 0 1 4.92-3 5.4 5.4 0 0 1 5.07 3.06 17.22 17.22 0 0 1 1.65 8.15 18.21 18.21 0 0 1-1.64 8.32z"/><path d="M221.5 132.2c-26-25.21-54-36.34-87.81-36.34-56.3 0-93.06 36.34-93.06 87.18 0 38.44 19.54 73.1 71.63 91.59l17.86 6.51c19.33 6.93 27.52 17.65 27.52 31.3 0 16.6-12.81 27.52-31.3 27.52-22.9 0-39.07-11.76-51.26-26.47l-41.59 41.38c21 26.26 51.89 43.69 93.69 43.69 54.83 0 95.37-33.61 95.37-90.75 0-40.33-21.22-69.11-67.85-86.55l-16.39-6.09c-22.06-8.19-33.61-18.49-33.61-34 0-16.81 12.6-26.68 30.25-26.68 20 0 36.34 8.61 48.53 21.22zm112.96-36.56c-67.85 0-108.18 54.41-108.18 151.46s40.33 151.46 108.18 151.46c67.64 0 108.18-54.41 108.18-151.46S402.1 95.64 334.46 95.64zm-.21 60.08c28.15 0 44.53 29 44.53 91.38s-16.39 91.38-44.53 91.38-44.53-29-44.53-91.38 16.38-91.38 44.53-91.38zm323.64-55.66h-60.71v172l-83-172h-60.27v294.09h60.5V222.73l83.19 171.42h60.29zm78.7 0H675v294.09h61.55zm118.23-4.42c-66.38 0-106.71 53.78-106.71 151.46s40.33 151.46 106.71 151.46c42.85 0 73.94-23.32 89.49-64.28l-51.47-26.47c-8.61 20.8-20.8 30.67-37.81 30.67-25.42 0-43.27-27.1-43.27-91.38 0-62.6 16.39-91.38 43.27-91.38 17 0 29.2 10.08 37.18 30.67L945.36 162c-14.91-42.62-47.68-66.36-90.54-66.36z"/></g></svg>