<svg id="レイヤー_1" data-name="レイヤー 1" xmlns="http://www.w3.org/2000/svg" viewBox="0 0 1466 440"><pattern id="diagonal-texture" patternUnits="userSpaceOnUse" width="6" height="6"><style>.diagonal-1{fill:#242424}</style><path d="M0 0h6v6H0z"/><path class="diagonal-1" d="M5 0h1v1H5zM4 1h1v1H4zM3 2h1v1H3zM2 3h1v1H2zM1 4h1v1H1zM0 5h1v1H0zM4.5.5H5V1h-.5zM5 1h.5v.5H5zM4 2h.5v.5H4zm-.5-.5H4V2h-.5zm-1 1H3V3h-.5zM3 3h.5v.5H3zM2 4h.5v.5H2zM1 5h.5v.5H1zM0 0h.5v.5H0z"/>/&gt;<path class="diagonal-1" d="M5.5 5.5H6V6h-.5zm-4-2H2V4h-.5zm-1 1H1V5H.5z"/></pattern><g fill="url(#diagonal-texture)"><path d="M739.46 162.92H579v51.54h53v215.73h54.36V214.46h53.07zm147.36 216.49h-85.35v-58.8h80.16v-50.79h-80.16V213.7h86.09v-50.78H747.1v267.27h139.72zm16.92-216.49v267.27h54.37V328.43h3.15L1009 430.19h61.78l-55.29-106.72c31.92-10.88 50.66-38.18 50.66-76 0-52.5-32.29-84.57-84.61-84.57zm78.12 51.35c15.95 0 28.76 10.5 28.76 33.22 0 22.91-12.62 33.41-28.76 33.41h-23.75v-66.63zm97.63-51.35v267.27h54.37V328.43h3.14l47.69 101.76h61.79l-55.3-106.72c31.92-10.88 50.66-38.18 50.66-76 0-52.5-32.29-84.57-84.61-84.57zm78.12 51.35c16 0 28.76 10.5 28.76 33.22 0 22.91-12.62 33.41-28.76 33.41h-23.75v-66.63zm267.23-51.35h-59l-38 97.36-38-97.36h-60.94l71.62 165.32v101.95h54.37V326.91z"/><path d="M1274.74 166.07h11.1l3.81-26h13.13v-11h-11.55l2.67-18h12.94v-11h-11.36l3.87-26.38h-11.1l-3.87 26.38h-8.5l3.87-26.38h-11l-3.87 26.38h-13.51v11h11.92l-2.66 18h-13.19v11H1259l-3.8 26h11.1l3.74-26h8.5zm-.44-54.93h8.5l-2.67 18h-8.5zm90.17-37.42h-55.88v14.9h37l-29.3 77.45h19l29.18-82zm47.16 0h-18l-31.33 60.76.82 11.61h30.58v20h17.94v-20h7.87v-14.91h-7.87zM1393.3 101l.39-.7v30.89h-14z"/></g></svg>