<svg id="レイヤー_1" data-name="レイヤー 1" xmlns="http://www.w3.org/2000/svg" viewBox="0 0 1466 642"><pattern id="diagonal-texture" patternUnits="userSpaceOnUse" width="6" height="6"><style>.diagonal-1{fill:#242424}</style><path d="M0 0h6v6H0z"/><path class="diagonal-1" d="M5 0h1v1H5zM4 1h1v1H4zM3 2h1v1H3zM2 3h1v1H2zM1 4h1v1H1zM0 5h1v1H0zM4.5.5H5V1h-.5zM5 1h.5v.5H5zM4 2h.5v.5H4zm-.5-.5H4V2h-.5zm-1 1H3V3h-.5zM3 3h.5v.5H3zM2 4h.5v.5H2zM1 5h.5v.5H1zM0 0h.5v.5H0z"/>/&gt;<path class="diagonal-1" d="M5.5 5.5H6V6h-.5zm-4-2H2V4h-.5zm-1 1H1V5H.5z"/></pattern><g fill="url(#diagonal-texture)"><path class="cls-1" d="M69.73 629.67h10.49l3.6-24.58h12.41v-10.37H85.32l2.52-17h12.23v-10.4H89.34L93 542.38H82.5l-3.66 24.94h-8l3.66-24.94H64l-3.66 24.94H47.61v10.43h11.27l-2.52 17H43.89v10.37h11l-3.6 24.58h10.47l3.54-24.58h8zm-.42-51.92h8l-2.52 17h-8zM151 542.38h-17l-29.62 57.44.78 11H134v18.89h17v-18.92h7.43V596.7H151zm-17.33 25.78l.36-.66v29.2h-13.17zM180.32 592h8.21a9.43 9.43 0 0 1 7.46 3q2.67 3 2.67 9.92a16.91 16.91 0 0 1-.66 4.89 11.21 11.21 0 0 1-1.89 3.75 8.38 8.38 0 0 1-3 2.4 9 9 0 0 1-4 .84 7.38 7.38 0 0 1-3.51-.84 8.36 8.36 0 0 1-2.73-2.31 11.42 11.42 0 0 1-1.8-3.48 14 14 0 0 1-.66-4.41h-17a26.64 26.64 0 0 0 2.16 11.18 23.27 23.27 0 0 0 5.67 7.82 22.68 22.68 0 0 0 8 4.62 29.48 29.48 0 0 0 9.32 1.5 32.11 32.11 0 0 0 10.61-1.71 24.41 24.41 0 0 0 8.51-5 23.05 23.05 0 0 0 5.67-8.06 27.31 27.31 0 0 0 2.07-10.91 24.64 24.64 0 0 0-3-12.47 18.68 18.68 0 0 0-9.2-7.91 20 20 0 0 0 4.77-3.51 22.75 22.75 0 0 0 3.51-4.5 21 21 0 0 0 2.94-10.76 28.43 28.43 0 0 0-1.89-10.76 21.54 21.54 0 0 0-5.28-7.79 22.08 22.08 0 0 0-8.12-4.74 32.66 32.66 0 0 0-10.43-1.59 26.7 26.7 0 0 0-9.62 1.71 23.51 23.51 0 0 0-7.76 4.8 22.34 22.34 0 0 0-5.22 7.49 24.29 24.29 0 0 0-1.92 9.8h17a11.78 11.78 0 0 1 .66-4.08 9.86 9.86 0 0 1 1.74-3.06 7.22 7.22 0 0 1 2.55-1.92 7.86 7.86 0 0 1 6.68.18 7.61 7.61 0 0 1 2.61 2.31 10.28 10.28 0 0 1 1.56 3.48 17.93 17.93 0 0 1 .51 4.41 15.45 15.45 0 0 1-2.11 8.71q-2.19 3.27-6.86 3.27h-8.21z"/><path class="cls-1" d="M186.7 491.68h-85.46V278.47H47.5v264.16h139.2zM248 278.47h-53.76v264.16H248zm196.77 0h-53V433l-72.44-154.53H266.7v264.16h52.82v-154l72.62 154h52.63zm139.05 264.16h63.64l-72.81-135.29 67.85-128.87h-62l-51.33 105.85h-11.92V278.47h-53.74v264.16h53.73V434.7h11.19z"/><path class="cls-1" d="M206.95 15.34H48.32v50.94h52.45V279.5h53.73V66.28h52.45zM300 11.38c-59.23 0-94.45 48.87-94.45 136s35.21 136 94.45 136c59.05 0 94.45-48.87 94.45-136S359 11.38 300 11.38zm-.18 54c24.57 0 38.88 26 38.88 82.08s-14.3 82.08-38.88 82.08-38.88-26-38.88-82.08 14.27-82.12 38.84-82.12zm197.7-54c-59.23 0-94.45 48.87-94.45 136s35.21 136 94.45 136c59.05 0 94.45-48.87 94.45-136s-35.4-136-94.45-136zm-.18 54c24.57 0 38.88 26 38.88 82.08s-14.3 82.08-38.88 82.08-38.88-26-38.88-82.08 14.3-82.12 38.87-82.12zm286.31-50.04h-53v154.53L658.21 15.34h-52.63V279.5h52.82v-154l72.6 154h52.63z"/></g></svg>