<svg xmlns="http://www.w3.org/2000/svg" width="1466" height="402" viewBox="0 0 1466 402"><pattern id="diagonal-texture" patternUnits="userSpaceOnUse" width="6" height="6"><style>.diagonal-1{fill:#242424}</style><path d="M0 0h6v6H0z"/><path class="diagonal-1" d="M5 0h1v1H5zM4 1h1v1H4zM3 2h1v1H3zM2 3h1v1H2zM1 4h1v1H1zM0 5h1v1H0zM4.5.5H5V1h-.5zM5 1h.5v.5H5zM4 2h.5v.5H4zm-.5-.5H4V2h-.5zm-1 1H3V3h-.5zM3 3h.5v.5H3zM2 4h.5v.5H2zM1 5h.5v.5H1zM0 0h.5v.5H0z"/>/&gt;<path class="diagonal-1" d="M5.5 5.5H6V6h-.5zm-4-2H2V4h-.5zm-1 1H1V5H.5z"/></pattern><path d="M135.05 78.787v18.886h16.967V78.787h7.434V64.7h-7.434V10.379H134.99l-29.618 57.437.779 10.972zm-.36-42.628l.36-.659v29.2h-13.19zm68.274 60.315a23.292 23.292 0 0 0 7.974-6.415 27.258 27.258 0 0 0 4.736-9.293 38.951 38.951 0 0 0 1.559-11.092 47.853 47.853 0 0 0-1.469-12.411 26.719 26.719 0 0 0-4.317-9.233 18.708 18.708 0 0 0-7.045-5.756 22.393 22.393 0 0 0-9.652-1.974 15.216 15.216 0 0 0-3.208.33 19.123 19.123 0 0 0-2.848.839 18.45 18.45 0 0 0-2.338 1.079q-1.02.57-1.739 1.049l1.559-18.706h28.359V10.379h-42.268l-4.317 44.366 13.49 3.477a21.246 21.246 0 0 1 1.319-1.769 7.89 7.89 0 0 1 1.709-1.529 9.045 9.045 0 0 1 2.338-1.079 10.643 10.643 0 0 1 3.148-.42 9.246 9.246 0 0 1 4.647 1.109 9.379 9.379 0 0 1 3.237 3.088 14.1 14.1 0 0 1 1.889 4.8 30.061 30.061 0 0 1 .6 6.235 42.071 42.071 0 0 1-.45 6.355 17.809 17.809 0 0 1-1.5 5.1 9.209 9.209 0 0 1-2.728 3.417 6.6 6.6 0 0 1-4.077 1.259 7.059 7.059 0 0 1-5.875-3q-2.279-3-2.7-8.454h-16.786a26.388 26.388 0 0 0 2.218 10.792 24.464 24.464 0 0 0 13.85 13.04 26.565 26.565 0 0 0 8.038 1.648l-49.648 208.44L90.578 96.952h-9.247l3.492-23.86h12.41V62.719H86.321l2.518-16.967h12.231V35.32H90.338L94 10.379H83.5L79.846 35.32h-8.034l3.657-24.941H65.037L61.38 35.32H48.609v10.432h11.272l-2.518 16.967H44.892v10.373h10.972l-3.492 23.86H26.826l77.414 289.783h72.032l77.413-289.783h-51.763a20.51 20.51 0 0 0 1.042-.478zm-132.125.478h-7.976l3.437-23.86h8.03zm4.99-34.232H67.8l2.518-16.967h8.034zm179.277 324.015h60.647V96.952h-60.647zM393.36 96.952h-60.647v289.783h157.1v-55.887H393.36zm325.129 0l-67.245 252.394v-18.5h-96.456V96.952H494.14v289.783h209.446l13.661-59.613h71.618l13.868 59.613h62.924L788.451 96.952zm11.591 175.112l22.976-99.975 23.183 99.975zm226.631-47.607v51.333h43.054c-4.14 41.6-19.043 57.129-42.019 57.129-25.459 0-44.089-24.425-44.089-91.075 0-64.373 16.145-90.454 43.261-90.454 16.766 0 27.943 8.279 36.223 25.253l48.435-28.978c-14.9-35.395-43.468-55.059-83.209-55.059-66.857 0-107.013 51.954-107.013 149.238 0 98.94 41.812 149.238 107.427 149.238 53.817 0 99.354-42.846 99.354-136.612 0-11.384-.414-22.148-1.242-30.013zm110.507 162.279h155.862v-55.06h-95.214v-63.752h89.419v-55.059h-89.419V152.01h96.042V96.952h-156.69zM1362.36 271.03c35.6-11.8 56.508-41.4 56.508-82.381 0-56.922-36.016-91.7-94.386-91.7h-86.728v289.786h60.646V276.41h3.519l53.2 110.325h68.927zm-37.46-46.16h-26.5v-72.239h26.5c17.8 0 32.083 11.384 32.083 36.016-.004 24.839-14.083 36.223-32.083 36.223z" fill-rule="evenodd" fill="url(#diagonal-texture)"/></svg>