<svg xmlns="http://www.w3.org/2000/svg" width="1466" height="415" viewBox="0 0 1466 415.414"><pattern id="diagonal-texture" patternUnits="userSpaceOnUse" width="6" height="6"><style>.diagonal-1{fill:#242424}</style><path d="M0 0h6v6H0z"/><path class="diagonal-1" d="M5 0h1v1H5zM4 1h1v1H4zM3 2h1v1H3zM2 3h1v1H2zM1 4h1v1H1zM0 5h1v1H0zM4.5.5H5V1h-.5zM5 1h.5v.5H5zM4 2h.5v.5H4zm-.5-.5H4V2h-.5zm-1 1H3V3h-.5zM3 3h.5v.5H3zM2 4h.5v.5H2zM1 5h.5v.5H1zM0 0h.5v.5H0z"/>/&gt;<path class="diagonal-1" d="M5.5 5.5H6V6h-.5zm-4-2H2V4h-.5zm-1 1H1V5H.5z"/></pattern><g fill="url(#diagonal-texture)"><path d="M314.832 15.152l-37.52 206.034L237.84 15.152h-65.93l-39.689 206.9-37.3-206.9H28.987l62.828 301.227H85.5l-3.654 24.941h-8.034l3.657-24.941H67.037L63.38 341.32H50.609v10.432h11.272l-2.518 16.967H46.892v10.372h10.972l-3.6 24.582h10.495l3.541-24.581h8.03l-3.6 24.582h10.495l3.6-24.582h12.408v-10.373H88.321l2.518-16.967h12.231V341.32H92.338l3.305-22.54h23.765a22.7 22.7 0 0 0-3.882 2.9 22.339 22.339 0 0 0-5.216 7.494 24.294 24.294 0 0 0-1.918 9.8h16.967a11.776 11.776 0 0 1 .659-4.077 9.853 9.853 0 0 1 1.739-3.058 7.221 7.221 0 0 1 2.548-1.919 7.856 7.856 0 0 1 6.685.18 7.613 7.613 0 0 1 2.608 2.308 10.286 10.286 0 0 1 1.559 3.477 17.939 17.939 0 0 1 .51 4.407 15.452 15.452 0 0 1-2.188 8.723q-2.189 3.269-6.865 3.268H124.4v13.67h8.214a9.429 9.429 0 0 1 7.464 3.028q2.667 3.028 2.668 9.922a16.914 16.914 0 0 1-.659 4.886 11.215 11.215 0 0 1-1.889 3.747 8.376 8.376 0 0 1-2.968 2.4 8.985 8.985 0 0 1-3.957.839 7.379 7.379 0 0 1-3.507-.839 8.356 8.356 0 0 1-2.728-2.308 11.419 11.419 0 0 1-1.8-3.477 14.036 14.036 0 0 1-.659-4.407h-16.967a26.637 26.637 0 0 0 2.158 11.182 23.272 23.272 0 0 0 5.666 7.824 22.679 22.679 0 0 0 8.034 4.617 29.483 29.483 0 0 0 9.323 1.5 32.113 32.113 0 0 0 10.612-1.709 24.414 24.414 0 0 0 8.514-4.976 23.05 23.05 0 0 0 5.666-8.064 27.313 27.313 0 0 0 2.068-10.912 24.639 24.639 0 0 0-3.028-12.471 18.682 18.682 0 0 0-9.2-7.914 20.005 20.005 0 0 0 4.766-3.507 22.744 22.744 0 0 0 3.507-4.5 21.026 21.026 0 0 0 2.938-10.762 28.428 28.428 0 0 0-1.889-10.762 21.54 21.54 0 0 0-5.276-7.794 20.958 20.958 0 0 0-3.675-2.725h20l36.652-181.743 36.646 181.752h75.473L379.9 15.152zm-237 353.568H69.8l2.518-16.967h8.034zM427.194 15.152L346.3 318.78h65.28l14.314-62.461h75.04l14.531 62.461h65.931L500.5 15.152zm12.145 183.478l24.073-104.752L487.7 198.63zm333.353-87.401c0-59.641-37.737-96.077-98.9-96.077h-90.868V318.78h63.545v-115.6h3.687l55.738 115.6h72.22l-64.63-121.234c37.303-12.362 59.208-43.376 59.208-86.317zm-98.462 37.954h-27.76V73.492h27.76c18.651 0 33.616 11.928 33.616 37.737-.001 26.025-14.746 37.953-33.617 37.953zM783.977 15.152h63.545V318.78h-63.545zM971.142 10.6c-70.052 0-111.692 56.171-111.692 156.369s41.64 156.369 111.692 156.369c69.835 0 111.692-56.171 111.692-156.369S1040.977 10.6 971.142 10.6zm-.217 250.71c-29.062 0-45.978-29.929-45.978-94.342s16.916-94.342 45.978-94.342 45.978 29.929 45.978 94.342-16.916 94.34-45.978 94.34z"/><path d="M211.8 323.963a20.577 20.577 0 0 0-8.034-6.655 25.685 25.685 0 0 0-20.475 0 20.627 20.627 0 0 0-8 6.655 33.687 33.687 0 0 0-5.216 11.571 66.569 66.569 0 0 0-1.859 16.817v15.229a65.84 65.84 0 0 0 1.889 16.877 34.075 34.075 0 0 0 5.246 11.571 20.814 20.814 0 0 0 8.034 6.685 25.356 25.356 0 0 0 20.475 0 20.887 20.887 0 0 0 8-6.685 33.7 33.7 0 0 0 5.216-11.571 66.873 66.873 0 0 0 1.859-16.877v-15.228a65.575 65.575 0 0 0-1.888-16.817 34.11 34.11 0 0 0-5.247-11.572zm-9.893 45.955a70.986 70.986 0 0 1-.57 9.8 25.222 25.222 0 0 1-1.649 6.445 8.253 8.253 0 0 1-2.608 3.537 5.835 5.835 0 0 1-3.447 1.079 6.065 6.065 0 0 1-3.537-1.079 8.32 8.32 0 0 1-2.668-3.537 24.927 24.927 0 0 1-1.709-6.445 67.373 67.373 0 0 1-.6-9.8v-20.024a65.614 65.614 0 0 1 .6-9.683 25.343 25.343 0 0 1 1.679-6.355 8.147 8.147 0 0 1 2.638-3.507 6.142 6.142 0 0 1 6.955 0 8.154 8.154 0 0 1 2.638 3.507 25.393 25.393 0 0 1 1.679 6.355 65.767 65.767 0 0 1 .6 9.683z"/></g></svg>