<svg id="レイヤー_1" data-name="レイヤー 1" xmlns="http://www.w3.org/2000/svg" viewBox="0 0 1466 760.02"><pattern id="diagonal-texture" patternUnits="userSpaceOnUse" width="6" height="6"><style>.diagonal-1{fill:#242424}</style><path d="M0 0h6v6H0z"/><path class="diagonal-1" d="M5 0h1v1H5zM4 1h1v1H4zM3 2h1v1H3zM2 3h1v1H2zM1 4h1v1H1zM0 5h1v1H0zM4.5.5H5V1h-.5zM5 1h.5v.5H5zM4 2h.5v.5H4zm-.5-.5H4V2h-.5zm-1 1H3V3h-.5zM3 3h.5v.5H3zM2 4h.5v.5H2zM1 5h.5v.5H1zM0 0h.5v.5H0z"/>/&gt;<path class="diagonal-1" d="M5.5 5.5H6V6h-.5zm-4-2H2V4h-.5zm-1 1H1V5H.5z"/></pattern><g fill="url(#diagonal-texture)"><path class="cls-1" d="M70.84 750h10.49l3.6-24.58h12.41v-10.36H86.43l2.52-17h12.23v-10.4H90.45l3.66-24.94h-10.5L80 687.66h-8l3.66-24.94H65.14l-3.66 24.94H48.72v10.44H60l-2.52 17H45v10.37h11L52.37 750h10.5l3.54-24.58h8zm-.42-51.92h8l-2.52 17h-8zm81.7-35.36h-17l-29.62 57.44.78 11h28.9V750h17v-18.87h7.43V717h-7.43zM134.8 688.5l.36-.66V717H122zm82.72-25.78H164.7v14.09h35L172 750h17.93l27.58-77.52z"/><path class="cls-1" d="M231.4 342.25H32.21v62.18h65.86v260.22h67.47V404.43h65.86zm9.46 0v322.4h67.47V541.91h3.91l59.18 122.74h76.68l-68.62-128.73c39.61-13.13 62.87-46.06 62.87-91.65 0-63.33-40.07-102-105-102zm96.94 61.95c19.8 0 35.69 12.67 35.69 40.07 0 27.63-15.66 40.3-35.69 40.3h-29.47V404.2z"/><path class="cls-1" d="M597.57 342.25h-77.83l-85.9 322.4h69.31l15.2-66.32H598l15.43 66.32h70zm-39.38 83.59L584 537.07h-51.37zm198.98-83.59H689.7v322.4h67.47zm247.09 0h-66.55v188.6l-91-188.6h-66.05v322.4H847V476.74l91.19 187.91h66.09zm196.9 261.14h-105.93v-70.92h99.48v-61.26h-99.48v-67.7h106.85v-61.26h-174.32v322.4h173.4zm20.97-261.14v322.4h67.47V541.91h3.91l59.18 122.74h76.68l-68.62-128.73c39.61-13.13 62.87-46.06 62.87-91.65 0-63.33-40.07-102-105-102zm96.95 61.95c19.8 0 35.69 12.67 35.69 40.07 0 27.63-15.66 40.3-35.69 40.3h-29.48V404.2zM401.58 23.71H332.5l-39.84 218.77-41.91-218.77h-70L138.6 243.4 99 23.71H29l67.23 322.4h80.14l38.92-193 38.92 193h80.14zM477.37 119h-62.64v227.11h62.64zM446 10.82c-21.19 0-37.31 16.35-37.31 37.31 0 21.19 16.12 37.08 37.31 37.08s37.31-15.89 37.31-37.08c.04-20.96-16.08-37.31-37.31-37.31z"/><path class="cls-1" d="M568.1 119h-62.64v227.11h62.64zM536.78 10.82c-21.19 0-37.31 16.35-37.31 37.31 0 21.19 16.12 37.08 37.31 37.08s37.31-15.89 37.31-37.08c0-20.96-16.09-37.31-37.31-37.31zm274.73 143.92h-94.87V85H819.8V23.71H649.17v322.4h67.47V216h94.88zM908 119h-62.62v227.11H908zM876.7 10.82c-21.19 0-37.31 16.35-37.31 37.31 0 21.19 16.12 37.08 37.31 37.08S914 69.31 914 48.12c0-20.95-16.12-37.3-37.3-37.3zm193.67 108.46h-50.89v-58h-62.64v58h-29v57.8h29v97.87c0 51.12 26.25 76 69.08 76 25.1 0 42.37-6.68 56.42-15.66L1063.92 283c-7.14 3.91-15.43 7.6-23.95 7.6-11.74 0-20.49-6-20.49-23v-90.5h50.89z"/></g></svg>