<svg id="レイヤー_1" data-name="レイヤー 1" xmlns="http://www.w3.org/2000/svg" viewBox="0 0 1466 323"><pattern id="diagonal-texture" patternUnits="userSpaceOnUse" width="6" height="6"><style>.diagonal-1{fill:#242424}</style><path d="M0 0h6v6H0z"/><path class="diagonal-1" d="M5 0h1v1H5zM4 1h1v1H4zM3 2h1v1H3zM2 3h1v1H2zM1 4h1v1H1zM0 5h1v1H0zM4.5.5H5V1h-.5zM5 1h.5v.5H5zM4 2h.5v.5H4zm-.5-.5H4V2h-.5zm-1 1H3V3h-.5zM3 3h.5v.5H3zM2 4h.5v.5H2zM1 5h.5v.5H1zM0 0h.5v.5H0z"/>/&gt;<path class="diagonal-1" d="M5.5 5.5H6V6h-.5zm-4-2H2V4h-.5zm-1 1H1V5H.5z"/></pattern><path d="M370.37 15.32h-62.73l-36.17 198.63-38.05-198.63h-63.56L131.6 214.78l-36-199.47H32.07L93.12 308h72.76l35.33-175.21L236.56 308h72.76zm95.7-4.39c-67.53 0-107.68 54.15-107.68 150.75s40.14 150.75 107.68 150.75c67.32 0 107.68-54.15 107.68-150.75S533.39 10.93 466.07 10.93zm-.21 59.8c28 0 44.33 28.85 44.33 91s-16.31 91-44.33 91-44.33-28.85-44.33-91 16.31-91.01 44.33-91.01zm277.97 180.85H646.4V15.32h-61.26V308h158.69zm151.87-117.3h-86.15V70.93h93.67V15.32H748.29V308h61.26V189.9h86.15z" fill="url(#diagonal-texture)"/></svg>