<svg xmlns="http://www.w3.org/2000/svg" width="1466" height="309" viewBox="0 0 1466 309"><pattern id="diagonal-texture" patternUnits="userSpaceOnUse" width="6" height="6"><style>.diagonal-1{fill:#242424}</style><path d="M0 0h6v6H0z"/><path class="diagonal-1" d="M5 0h1v1H5zM4 1h1v1H4zM3 2h1v1H3zM2 3h1v1H2zM1 4h1v1H1zM0 5h1v1H0zM4.5.5H5V1h-.5zM5 1h.5v.5H5zM4 2h.5v.5H4zm-.5-.5H4V2h-.5zm-1 1H3V3h-.5zM3 3h.5v.5H3zM2 4h.5v.5H2zM1 5h.5v.5H1zM0 0h.5v.5H0z"/>/&gt;<path class="diagonal-1" d="M5.5 5.5H6V6h-.5zm-4-2H2V4h-.5zm-1 1H1V5H.5z"/></pattern><path d="M791.936 14.417h-63.581l-40.988 101.97-40.988-101.97H580.8l77.177 173.149v106.769h58.583V186.167zm80.634-4.198C807.99 10.219 769.6 62 769.6 154.376s38.39 144.157 102.97 144.157c64.381 0 102.97-51.785 102.97-144.157S936.951 10.219 872.57 10.219zm-.2 57.183c26.792 0 42.388 27.592 42.388 86.974s-15.6 86.974-42.388 86.974-42.387-27.592-42.387-86.974S845.578 67.4 872.37 67.4zm283.777-22.394c-24.793-23.993-51.385-34.59-83.575-34.59-53.584 0-88.574 34.59-88.574 82.976 0 36.589 18.595 69.58 68.18 87.174l16.995 6.2c18.395 6.6 26.192 16.795 26.192 29.791 0 15.8-12.2 26.192-29.791 26.192-21.794 0-37.189-11.2-48.786-25.193L977.2 256.946c19.994 24.993 49.385 41.588 89.174 41.588 52.185 0 90.773-31.991 90.773-86.374 0-38.389-20.194-65.78-64.581-82.376l-15.6-5.8c-20.994-7.8-31.99-17.595-31.99-32.391 0-16 12-25.392 28.791-25.392 18.994 0 34.59 8.2 46.186 20.194zm69.833-30.591h-58.58v279.918h58.583V179.968h69.779v114.367h58.583V14.417h-58.585v111.567h-69.78zm203.395 0h-58.583v279.918h58.583z" fill="url(#diagonal-texture)"/></svg>