<svg id="レイヤー_1" data-name="レイヤー 1" xmlns="http://www.w3.org/2000/svg" viewBox="0 0 1466 548"><pattern id="diagonal-texture" patternUnits="userSpaceOnUse" width="6" height="6"><style>.diagonal-1{fill:#242424}</style><path d="M0 0h6v6H0z"/><path class="diagonal-1" d="M5 0h1v1H5zM4 1h1v1H4zM3 2h1v1H3zM2 3h1v1H2zM1 4h1v1H1zM0 5h1v1H0zM4.5.5H5V1h-.5zM5 1h.5v.5H5zM4 2h.5v.5H4zm-.5-.5H4V2h-.5zm-1 1H3V3h-.5zM3 3h.5v.5H3zM2 4h.5v.5H2zM1 5h.5v.5H1zM0 0h.5v.5H0z"/>/&gt;<path class="diagonal-1" d="M5.5 5.5H6V6h-.5zm-4-2H2V4h-.5zm-1 1H1V5H.5z"/></pattern><g fill="url(#diagonal-texture)"><path d="M975.7 486.69h-85.46V273.48H836.5v264.16h139.2zm61.3-213.21h-53.76v264.16H1037zm196.77 0h-53V428l-72.44-154.53h-52.63v264.17h52.82v-154l72.62 154h52.63zm139.05 264.16h63.64l-72.81-135.29 67.85-128.87h-62l-51.35 105.85h-11.92V273.48h-53.73v264.16h53.73V429.71h11.19zM684.23 10.35h-58.32l-37.59 96.23-37.6-96.23h-60.15l70.79 163.4v100.76h53.73V172.43zm77.61-3.96c-59.23 0-94.45 48.87-94.45 136s35.21 136 94.45 136c59.05 0 94.45-48.87 94.45-136s-35.4-136-94.45-136zm-.18 54c24.57 0 38.88 26 38.88 82.08s-14.3 82.08-38.88 82.08-38.88-26-38.88-82.08 14.31-82.12 38.88-82.12z"/><path d="M1038.25 10.35h-53.91v177.93c0 24.53-11.92 36-31 36s-31-11.51-31-36V10.35h-53.91v180.57c0 52.27 29.16 87.55 84.91 87.55s84.91-35.28 84.91-87.55zm195.54 0h-53v154.53l-72.44-154.53h-52.63v264.16h52.82v-154l72.62 154h52.63zm108.6-3.96c-59.23 0-94.81 47.36-94.81 136 0 90.19 37 136 95.18 136 47.68 0 88-39.06 88-124.53 0-10.38-.37-20.19-1.1-27.36h-88.76v46.79h38.14c-3.67 37.93-16.87 52.08-37.23 52.08-22.56 0-39.06-22.26-39.06-83 0-58.68 14.3-82.46 38.33-82.46 14.85 0 24.76 7.55 32.09 23l42.91-26.42c-13.17-32.18-38.48-50.1-73.69-50.1z"/></g></svg>