<svg xmlns="http://www.w3.org/2000/svg" width="1466" height="405" viewBox="0 0 1466 405"><pattern id="diagonal-texture" patternUnits="userSpaceOnUse" width="6" height="6"><style>.diagonal-1{fill:#242424}</style><path d="M0 0h6v6H0z"/><path class="diagonal-1" d="M5 0h1v1H5zM4 1h1v1H4zM3 2h1v1H3zM2 3h1v1H2zM1 4h1v1H1zM0 5h1v1H0zM4.5.5H5V1h-.5zM5 1h.5v.5H5zM4 2h.5v.5H4zm-.5-.5H4V2h-.5zm-1 1H3V3h-.5zM3 3h.5v.5H3zM2 4h.5v.5H2zM1 5h.5v.5H1zM0 0h.5v.5H0z"/>/&gt;<path class="diagonal-1" d="M5.5 5.5H6V6h-.5zm-4-2H2V4h-.5zm-1 1H1V5H.5z"/></pattern><path d="M214.815 59.094V10.242H38.475v56.994h101.99L37.832 261.359v48.852h23.643l-3.1 21.108H45.609v10.432h11.272l-2.518 16.967H41.892v10.372h10.972l-3.6 24.582h10.495l3.541-24.58h8.03l-3.6 24.582h10.495l3.6-24.582h12.408v-10.373H83.321l2.518-16.967H98.07V331.32H87.338l3.1-21.108h39.738l-22.164 9.058v14.149L124.615 327v66.67h17.027v-83.458h19.95v10.257h35.014l-27.7 73.2h17.927l27.579-77.522v-5.94h.616v-56.99H112.182zM72.829 358.719H64.8l2.518-16.967h8.034zm4.017-27.4h-8.034l3.1-21.108h8.034zm153.438-21.107h161.341v-56.995h-98.561v-65.993h92.562V130.23h-92.562V67.236h99.418V10.242H230.284v299.97zm243.657-299.97h-62.78v299.97h162.627V252.36h-99.847V10.242zm199.086 0h-90.42v299.97h90.419c74.35 0 115.274-58.708 115.274-149.985 0-91.491-40.924-149.985-115.273-149.985zm-1.5 242.118h-26.14V68.093h26.14c37.068 0 51.852 34.711 51.852 92.134 0 56.994-14.785 92.133-51.852 92.133zM932.119 10.242H859.7l-79.92 299.97h64.493l14.139-61.712h74.135l14.353 61.712h65.136zM871.7 191.509L895.48 88.02l24 103.49z" fill="url(#diagonal-texture)"/></svg>