<svg xmlns="http://www.w3.org/2000/svg" width="1466" height="663" viewBox="0 0 1466 663"><pattern id="diagonal-texture" patternUnits="userSpaceOnUse" width="6" height="6"><style>.diagonal-1{fill:#242424}</style><path d="M0 0h6v6H0z"/><path class="diagonal-1" d="M5 0h1v1H5zM4 1h1v1H4zM3 2h1v1H3zM2 3h1v1H2zM1 4h1v1H1zM0 5h1v1H0zM4.5.5H5V1h-.5zM5 1h.5v.5H5zM4 2h.5v.5H4zm-.5-.5H4V2h-.5zm-1 1H3V3h-.5zM3 3h.5v.5H3zM2 4h.5v.5H2zM1 5h.5v.5H1zM0 0h.5v.5H0z"/>/&gt;<path class="diagonal-1" d="M5.5 5.5H6V6h-.5zm-4-2H2V4h-.5zm-1 1H1V5H.5z"/></pattern><g fill="url(#diagonal-texture)"><path d="M194.193 95.83H30.791v52.813H125.3L30.2 328.524v45.268h164.2v-52.813H99.09l95.1-179.881zm159.79 225.149h-91.33v-61.151h85.771v-52.813h-85.771v-58.372h92.124V95.83h-150.3v277.962h149.5zM368.039 95.83v277.962h58.173V267.968h3.375l51.026 105.824h66.115l-59.165-110.986c34.15-11.317 54.2-39.709 54.2-79.02 0-54.6-34.547-87.955-90.536-87.955zm83.587 53.408c17.075 0 30.774 10.92 30.774 34.547 0 23.825-13.5 34.745-30.774 34.745h-25.413v-69.291zm196.515-57.577c-64.13 0-102.25 51.423-102.25 143.15s38.12 143.15 102.25 143.15c63.931 0 102.25-51.423 102.25-143.15s-38.319-143.15-102.25-143.15zm-.2 56.784c26.6 0 42.091 27.4 42.091 86.367s-15.486 86.367-42.091 86.367-42.091-27.4-42.091-86.367 15.487-86.368 42.092-86.368zm332.501-22.237c-24.619-23.825-51.026-34.348-82.991-34.348-53.21 0-87.955 34.348-87.955 82.4 0 36.333 18.465 69.093 67.7 86.565l16.876 6.155c18.266 6.552 26.009 16.678 26.009 29.583 0 15.685-12.111 26.009-29.583 26.009-21.641 0-36.929-11.119-48.445-25.017l-39.312 39.113c19.854 24.818 49.04 41.3 88.551 41.3 51.82 0 90.139-31.767 90.139-85.771 0-38.12-20.053-65.321-64.13-81.8l-15.486-5.758c-20.847-7.743-31.767-17.472-31.767-32.164 0-15.884 11.913-25.215 28.59-25.215 18.862 0 34.348 8.14 45.864 20.053zm192.547-30.378h-58.372v187.227c0 25.811-12.905 37.922-33.554 37.922s-33.554-12.111-33.554-37.922V95.83h-58.371v190.007c0 55 31.569 92.125 91.926 92.125s91.926-37.128 91.926-92.125zm73.018 0h-58.173v277.962h58.173zm183.829 0H1258.1v53.607h56.784v224.355h58.173V149.437h56.784z"/><path d="M207.892 401.207c-24.619-23.825-51.026-34.348-82.991-34.348-53.21 0-87.955 34.348-87.955 82.4 0 36.334 18.465 69.093 67.7 86.565l16.876 6.155c18.266 6.552 26.009 16.678 26.009 29.583 0 15.685-12.111 26.009-29.583 26.009-21.641 0-36.929-11.118-48.445-25.016L30.2 611.664c19.854 24.818 49.04 41.3 88.551 41.3 51.82 0 90.139-31.767 90.139-85.771 0-38.12-20.053-65.321-64.13-81.8l-15.486-5.758c-20.852-7.746-31.774-17.474-31.774-32.167 0-15.884 11.913-25.215 28.59-25.215 18.862 0 34.348 8.14 45.864 20.053zm132.985-30.377h-67.108l-74.057 277.962h59.762l13.1-57.181h68.7l13.3 57.181h60.357zm-33.951 72.07l22.237 95.9h-44.275zm348.597-72.07H576.5L536 504.847 495.3 370.83h-79.02v277.962h57.578V457.4L508.2 577.316h55.4L597.945 457v191.792h57.578zm198.486 0h-58.372v187.227c0 25.811-12.905 37.922-33.554 37.922s-33.554-12.111-33.554-37.922V370.83h-58.372v190.007c0 55 31.568 92.124 91.926 92.124s91.926-37.128 91.926-92.124zm186.585 30.377c-24.619-23.825-51.026-34.348-82.991-34.348-53.21 0-87.955 34.348-87.955 82.4 0 36.334 18.465 69.093 67.7 86.565l16.876 6.155c18.266 6.552 26.009 16.678 26.009 29.583 0 15.685-12.111 26.009-29.583 26.009-21.641 0-36.929-11.118-48.445-25.016L862.9 611.664c19.854 24.818 49.04 41.3 88.551 41.3 51.82 0 90.139-31.767 90.139-85.771 0-38.12-20.053-65.321-64.13-81.8l-15.486-5.758c-20.847-7.743-31.767-17.472-31.767-32.164 0-15.884 11.913-25.215 28.59-25.215 18.862 0 34.348 8.14 45.864 20.053zM69.733 98.673h10.492l3.6-24.581h12.408V63.72H85.321l2.518-16.967h12.231V36.32H89.338L93 11.379H82.5L78.846 36.32h-8.034l3.657-24.941H64.037L60.38 36.32H47.61v10.432h11.271L56.363 63.72H43.892v10.372h10.972l-3.6 24.581h10.495L65.3 74.092h8.03zm-.42-51.921h8.034L74.829 63.72H66.8zm88.419 37.832h-29.678l11.212-16.008q3.836-4.556 6.895-8.723a64.223 64.223 0 0 0 5.186-8.244 41.9 41.9 0 0 0 3.267-8.184 31.612 31.612 0 0 0 1.139-8.484 31.767 31.767 0 0 0-1.589-10.372 20.457 20.457 0 0 0-4.706-7.794 20.777 20.777 0 0 0-7.7-4.886 30.217 30.217 0 0 0-10.582-1.709 25.735 25.735 0 0 0-11 2.278 24.564 24.564 0 0 0-8.274 6.175 27.691 27.691 0 0 0-5.216 9.113 33.453 33.453 0 0 0-1.834 11.154h17.027a29.658 29.658 0 0 1 .54-5.816 14.969 14.969 0 0 1 1.679-4.646 9.067 9.067 0 0 1 2.818-3.058 7.011 7.011 0 0 1 3.957-1.109 6.4 6.4 0 0 1 5.786 3.3q2.008 3.3 2.008 9.113a19.639 19.639 0 0 1-.42 3.957 23.683 23.683 0 0 1-1.439 4.437 45.684 45.684 0 0 1-2.7 5.246q-1.679 2.848-4.2 6.325L106.29 86.682v11.991h51.441zm18.268.36v14.629h1.079a38.672 38.672 0 0 0 16.7-3.387 32.161 32.161 0 0 0 11.961-9.653 43.157 43.157 0 0 0 7.195-15.049 74.308 74.308 0 0 0 2.4-19.575v-6.116a54.373 54.373 0 0 0-1.829-14.6 36.221 36.221 0 0 0-5.126-11.241 23.44 23.44 0 0 0-7.974-7.225 21.2 21.2 0 0 0-10.312-2.548 22.077 22.077 0 0 0-10.432 2.458 24.29 24.29 0 0 0-7.944 6.655 30.925 30.925 0 0 0-5.036 9.8 39.529 39.529 0 0 0-1.769 11.961 47.1 47.1 0 0 0 1.379 11.691 28.973 28.973 0 0 0 4.077 9.323 19.513 19.513 0 0 0 6.715 6.145 18.779 18.779 0 0 0 9.233 2.218 14.022 14.022 0 0 0 6.355-1.5 20.263 20.263 0 0 0 5.456-4.017q-1.02 9.834-6.085 14.929t-15.139 5.1zm10.672-29.108a9.624 9.624 0 0 1-2.758-3.507 19.264 19.264 0 0 1-1.589-5.156 36.8 36.8 0 0 1-.51-6.3 34.806 34.806 0 0 1 .54-6.175 23.368 23.368 0 0 1 1.559-5.306 11.026 11.026 0 0 1 2.548-3.717 5.029 5.029 0 0 1 3.507-1.409 5.3 5.3 0 0 1 3.208 1.139 9.665 9.665 0 0 1 2.7 3.417 21.476 21.476 0 0 1 1.829 5.726 43.418 43.418 0 0 1 .66 8.064v7.798a14.17 14.17 0 0 1-3.178 4.8 6.522 6.522 0 0 1-8.514.63z"/></g></svg>